<?xml version="1.0" encoding="utf-8"?>
<!-- Generator: Adobe Illustrator 19.0.0, SVG Export Plug-In . SVG Version: 6.00 Build 0)  -->
<svg version="1.1" id="Calque_1" xmlns="http://www.w3.org/2000/svg" xmlns:xlink="http://www.w3.org/1999/xlink" x="0px" y="0px"
	 viewBox="0 0 1300 848" style="enable-background:new 0 0 1300 848;" xml:space="preserve">
<path id="XMLID_1715_" d="M921.4,273.1c0.7-8.9,1.1-17.7,2.3-26.4c1.4-10.1,5.1-13.3,15.3-13.3c14.6,0,29.3,0.8,43.9,0.7
	c10,0,19.9-0.9,29.9-1.5c1.4-0.1,3.8-0.9,4.1-1.8c2.5-7.5,9.1-8.7,15.3-10.2c3.5-0.8,7.3-1.3,10.9-1.1c19.8,0.7,39.6,1.9,59.4,2.5
	c14.2,0.5,28.3,0.4,42.5,0.6c5,0.1,10.1,0.5,15.1,0.7c0,0.4,0,0.9,0.1,1.3c-3.4,0.4-6.7,1-10.1,1.2c-22.1,0.8-44.3,1.9-66.4,2.2
	c-14,0.2-27.9-0.6-41.9-0.9c-4.7-0.1-8.8,1.5-11.8,5.7c0.2,0.5,0.3,1.3,0.7,1.6c10.9,9.3,14.5,22.8,20.2,35.1
	c8.8,19.1,14.6,39.2,18.9,59.8c4.5,21.1,9.1,42.2,12.8,63.4c4.9,27.6,6.1,55.6,6.6,83.6c0.9,44.8-0.7,89.6-3.7,134.3
	c-0.6,9.3-1.2,18.7-3.1,27.8c-1.1,5.5-3.8,11-7,15.7c-5,7.4-3.7,15.8,4.9,18.6c9.4,3.1,19.3,5.3,29.1,6.3c10.7,1,21.6,0.1,32.5,0.1
	c3.2,0,6.4,0.5,9.6,0.8c0.2,0.7,0.3,1.4,0.5,2.1c-2.3,1.1-4.5,3.1-6.8,3.2c-14.4,0.8-28.9,1.6-43.3,1.4c-7.6-0.1-15.1-2-22.7-3.2
	c-5.4-0.9-9.1-4-11.9-8.9c-9.2-16.3-17.5-32.9-21.1-51.4c-0.7-3.6-1.1-7.3-1.1-10.9c-0.1-5.2-2.7-7.2-7.5-7.2
	c-6.8,0-13.7,0-20.5-0.1c-25.3-0.5-50.6-1.2-75.8-1.7c-7.9-0.2-12.7-4.5-15.5-11.3c-4.4-10.5-8.4-21.2-12.4-31.6
	c-12.3,3.3-25.9,6.3-39.2,10.5c-18.4,5.8-36.3,13-54.7,18.8c-36.5,11.4-72.8,23.4-111.4,25.8c-10.9,0.7-21.8,2.9-32.6,4.6
	c-2.9,0.5-5.9,1.2-8.6,2.6c-9.9,5-20.5,6.6-31.4,6.8c-3.4,0-6.8,1-10,2.1c-19.5,6.6-36.7,4.6-52.7-10.2
	c-9.3-8.6-19.1-16.6-29.1-24.3c-3.1-2.4-7.4-3.8-11.4-4.6c-24.6-5.2-41.4-20.4-53.5-41.5c-1.7-2.9-2.6-6.5-3-9.9
	c-0.6-5.4-2.3-9.3-7.2-12.7c-12.8-8.8-24-19.5-33.5-31.9c-7.3-9.6-9.3-20.8-10.4-32.3c-0.5-5.6-0.8-11.3-1.1-16.9
	c-0.2-3.9-1.5-5.6-6-4.5c-9.9,2.3-19.9,4.1-29.9,5.7c-27.1,4.5-48.8-10.3-61-32.4c-12.9-23.4-11.7-56.1,10.7-76.1
	c2.7-2.4,3.6-4.7,2.9-8.6c-1.2-7.7,4.6-12.8,8.5-18.5c0.8-1.2,1.9-2.2,3.3-3.8c-7.2-0.9-13.7-1.9-20.3-2.5
	c-16.2-1.7-32.4-3.6-48.7-4.6c-8.8-0.6-17.7,0.8-26.4,0.4c-17.1-0.8-34.2-2.3-51.3-3.5c-13.1-0.9-26.2-1.9-39.4-2.5
	c-21.3-1.1-42.6-1.8-63.9-2.9c-4.4-0.2-8.8-1.5-13.1-2.7c-10.2-2.9-17.7-9-21.6-19.1c-3.7-9.6-6.1-19.5-5.5-29.7
	c0.9-15.8,10.7-25.7,23.6-32.9c15.8-8.9,33.3-12.8,51.1-14.3c17.7-1.4,35.5-1.1,53.3-1.5c1.1,0,2.3,0,3.4-0.3
	c24.3-5.5,48.9-5.3,73.6-4.6c11.9,0.3,24.2,1.9,35.8,0c38.5-6.2,77.3-5.5,116.1-6.8c9.6-0.3,18.8-1.6,28.3-4.1
	c23.5-6.3,47.6-11,71.5-15.8c25.3-5.1,50.8-8.7,75.9-14.5c26.1-6,51.2-3.1,76.2,4.7c33.3,10.3,62.3,29.1,91.4,47.4
	c24.4,15.3,48,31.7,72.4,47c24.1,15.1,50.8,23,79.1,25.4c1.3,0.1,2.7,0.3,3.9,0.6C919,272.2,920.2,272.8,921.4,273.1z M644.9,594.2
	c-0.8,0.7-1.7,1.5-2.5,2.2c-2.1-11.7-4.2-23.3-6.2-34.5c0,0.1-0.3,0.9-0.4,1.6c-3.1,16.9-7.9,33.3-14.9,49c-1,2.3-3.1,4.1-4.6,6.1
	c-0.5-0.3-1-0.6-1.6-0.9c4.6-11.7,8.8-23.5,10.2-37.2C617,588.4,610.7,596,602,601c5.7-13.8,21.1-21.4,24.2-37.5
	c-4.1,0.5-7.6,1-12.3,1.5c4.8-4.2,11.3-2.4,14.9-8.6c-7.2,1-13,2.2-18.9,2.6c-11.9,0.8-14,0.3-16.5-3c0.2-0.2,0.4-0.7,0.6-0.7
	c1.5-0.1,3-0.1,4.4-0.2c16.5-0.2,32.4-3,44.7-15.1c5.6-5.6,13.1-10.5,12.9-20.2c0-1.6,2.2-3.6,3.8-4.9c2.3-1.8,5-3.3,7.6-4.7
	c9.8-5.2,14.4-14.9,20.2-23.5c0.8-1.2,0.8-2.9,1-4.3c3.5-22.7-7.4-39.3-22.7-54.1c-5.4-5.2-11.2-4.1-17.2-2.4
	c-4.6,1.4-5.7,4.4-3.2,8.5c2.2,3.7,4.7,7.3,7.6,10.5c8.6,9.4,11.6,21.1,14.2,33c0.3,1.5-1,3.4-1.5,5c-0.8-0.9-2.1-1.7-2.2-2.7
	c-1.7-15.8-12.2-26.6-21.5-38.1c-0.9-1.1-2.2-1.8-3.4-2.7c-0.3,0.3-0.6,0.7-0.8,1c1,1.3,2,2.5,3,3.8c8.2,10.7,14.3,22.4,17.1,35.7
	c0.3,1.2-0.8,2.8-1.3,4.2c-0.8-1.1-1.9-2-2.3-3.2c-2.5-6.1-4.2-12.8-7.5-18.4c-4.2-7.2-9.7-13.8-14.9-20.4c-0.7-0.9-3.2-0.4-4.8-0.6
	c0.3,1.4,0.2,3.3,1,4.1c10.1,10.3,14.8,23.5,20.2,36.4c0.3,0.8,0,1.8,0,3.6c-11.7-12.3-18-27.9-30.9-38.3
	c0.8,9.7,10.7,14.6,11.8,24.1c-4.8-4.6-9-9.7-13.1-14.7c-4.1-4.9-5.5-4.7-9.4,1.5c7.7,1.2,7.9,8.6,11.3,13.4
	c0.4,0.5,0.1,2.2-0.4,2.5c-0.6,0.4-2.1,0.4-2.7-0.1c-1.2-0.9-2-2.2-3-3.3c-3-3.7-6-7.3-9.7-11.8c-3,3.6-5.5,6.4-8.3,9.8
	c-3.5-0.6-4.5,3.5-7.1,5.5c-6.2,4.8-11.9,10-17.3,15.7c-5.5,5.7-12.3,10.2-18.4,15.3c-17.8,15-36.8,27.4-60.6,30.5
	c-1,0.1-2.4,2.5-2.4,3.8c-0.4,9,3.5,16,10.4,21.6c9.5,7.8,19.9,13.9,31.6,17.6c16.6,5.3,29.5,16.4,43.2,26.5
	c12.6,9.3,25.6,17.4,42.4,15.8c14.7-1.4,29.7,0.7,44-4.1c9.1-3,18.1-7.2,27.4-8.7c12.9-2.1,26.3-1.2,39.2-3.4
	c19.1-3.2,38.5-6.6,56.8-12.6c25.6-8.4,50.7-17.9,76.8-24.5c20.6-5.2,40.9-11.6,61.3-17.7c7.7-2.3,13.7-6.5,15.3-15.3
	c0.7-4.1,2.3-8,3.4-12c8.3-28.7,14.5-57.8,15.4-87.7c0.7-24.3,0.1-48.6-0.4-72.9c-0.3-11.8-1.9-23.6-3-36c-2.7,3.6,0.1,8.9-5.5,10.9
	c-0.2-3.4-0.5-6.4-0.6-9.3c-0.5-8.6-0.7-17.3-1.5-25.9c-0.3-2.7-2.2-5.2-3.3-7.8c-0.5,0.2-1,0.4-1.5,0.6c0,2.9-0.3,5.9,0.1,8.8
	c2.6,20.3,1.7,40.6-1.3,60.7c-0.3,1.7-1.5,3.3-2.3,5c-0.5-0.2-1-0.4-1.4-0.6c0-1.5-0.2-3,0-4.4c4.1-21.8,0.5-43.5-1.2-65.2
	c-0.6-7.6-3.5-9.3-11-7.7c0,11.3,0.2,22.6-0.1,33.9c-0.3,9-1.1,17.9-1.9,26.9c-0.3,3.2-1.5,6.1-6,6c0.8-11.2,2.1-22.2,2.3-33.1
	c0.2-10.9,1.2-21.9-3.1-32.5c-0.8,1.4-1.2,2.8-1.3,4.2c-0.2,8.3-0.2,16.6-0.5,25c-0.2,6.1-0.6,12.3-1.5,18.3
	c-0.3,1.9-2.3,3.6-3.5,5.3c-0.5-0.3-1.1-0.5-1.6-0.8c0.8-17,2.8-34.1-2.1-51c-1.6,2.9-2.5,5.8-2.7,8.8c-0.5,9.3-0.6,18.6-1.1,27.9
	c-0.1,1.8-1.3,3.4-2,5.2c-0.6-0.1-1.2-0.3-1.9-0.4c-0.2-14.4-1-28.7-4.3-42.8c-1.9,21.3-1.6,42.8-9.5,63.2
	c1.6-21.9,5.3-43.8,0.9-65.7c-3,20.9-5.4,41.8-7.8,62.8c-2.4,20.8-4.7,41.7-7,62.6c-1-1.3-1.3-2.7-1.4-4.1
	c-1.1-21.2,0-42.1,5.7-62.8c5.1-18.5,2.9-37.7,2.2-56.7c0-0.8-0.8-1.5-1.3-2.2c-0.5,0-1,0-1.5,0.1c-0.5,4-1.1,7.9-1.4,11.9
	c-0.6,9.3-0.4,18.6-1.6,27.8c-1.7,13.2-4.2,26.2-6.5,39.3c-0.2,1.3-0.8,2.6-1.3,3.8c-1.6-1.5-2.4-3-2.4-4.5c0-4.2,0-8.4,0.6-12.5
	c2.2-16,4.7-32,2.4-48.2c-0.1-1.1-0.6-2.1-0.9-3.1c-0.3,0.1-0.6,0.1-0.9,0.2c-1,6.5-2.1,13-3.1,19.5c-0.7,0-1.5-0.1-2.2-0.1
	c-0.3-1.8-1-3.6-1-5.3c0.2-8.7,0.7-17.3,0.9-25.9c0-1.5-0.8-3-1.2-4.5c-0.4,0.1-0.7,0.1-1.1,0.2c-1.4,5-2.9,10.1-4.3,15.1
	c-0.6-0.1-1.2-0.2-1.8-0.3c-0.4-6.2-0.7-12.3-1.1-18.5c-4.9,14.8-9.1,29.3-13.3,43.8c-4.2,14.5-8.3,29.1-12.5,43.7
	c-0.4-0.1-0.9-0.1-1.3-0.2c0.6-7.2,0.5-14.6,1.9-21.7c2.6-13.2,6.2-26.2,9.1-39.3c0.8-3.7,0.6-7.5,0.9-11.3
	c-0.5-0.1-1.1-0.2-1.6-0.3c-3.8,16.3-8.5,32.2-19.5,45.4c6.2-21.7,14.5-42.9,13.7-66.2c-6.7,20.6-15,40.4-26.6,58.8
	c0.1-3.4,1-6.5,2.4-9.3c8.9-18.1,12-37.6,14.4-57.3c0.4-3.1,0.5-6.6-4.3-9.5c-1,6.3-1.8,11.8-2.8,17.2c-1.1,5.7-2.4,11.4-3.7,17
	c-1.3,5.4-3.2,10.5-8.3,13.8c1-8.3,2.9-16.3,4.3-24.5c1.4-8.2,2.3-16.4,3.4-24.7c-0.4-0.1-0.9-0.1-1.3-0.2
	c-3.3,16.5-8.6,32.2-17.8,46.4c4.7-18.2,14-35.2,13.6-54.7c-1,1-1.6,2.1-1.8,3.2c-3.3,15.2-9.5,29.4-16.9,43.1
	c-0.9,1.7-2.4,3.2-3.7,4.8c-0.6-0.3-1.1-0.7-1.7-1c6.9-17.8,17.7-34.8,13.2-55.4c-5.9,2.7-5.6,8.5-7.2,13.1
	c-4.5,12.6-9.4,24.9-18,35.3c-1,1.2-2.7,1.8-4,2.7c-0.3-0.4-0.5-0.8-0.8-1.2c1.2-1.6,2.5-3,3.5-4.7c9-14.3,16.9-29.1,18.3-46.3
	c0.2-2.8-1.2-5.7-1.9-8.6c-2,2.4-4.4,4.5-6,7.1c-7.1,11.8-13.7,23.9-21,35.6c-2,3.2-5.9,5.2-9,7.7c-0.5-0.5-1.1-1-1.6-1.5
	c9.4-8.7,16.6-18.8,20-31.2c-3.6,3.6-7.1,7.3-10.1,11.3c-3.2,4.1-6.3,8.1-12.8,9.4c10-14.2,20.6-26.8,26.3-42.4
	c-11.3,11-18.7,25.5-31,35.6c-0.5-0.4-1.1-0.7-1.6-1.1c8.4-12.8,16.8-25.6,25.3-38.4c-0.6-0.6-1.2-1.2-1.9-1.8
	c-1.4,1.1-3.2,1.9-4.2,3.3c-3.7,5.1-6.9,10.7-10.8,15.5c-5.5,6.8-11.6,13.2-17.6,19.7c-1,1.1-2.8,1.3-4.3,1.9
	c-0.3-0.4-0.5-0.8-0.8-1.2c2.9-3.3,6-6.5,8.6-10c6.7-9.5,13.3-19.1,19.4-28.9c1.7-2.7,1.6-6.5,2.3-9.7c-0.7-0.2-1.3-0.5-2-0.7
	c-3.5,5.4-7,10.8-10.6,16.2c-0.7-0.3-1.3-0.7-2-1c0.6-1.9,1-3.8,1.8-5.6c1.5-3.5,3.4-6.9,4.8-10.4c0.4-1-0.5-2.5-0.8-3.7
	c-1.2,0.5-2.9,0.7-3.7,1.6c-1.5,1.8-2.2,4.2-3.6,5.9c-5.8,7.2-11.7,14.5-17.8,21.5c-1.3,1.5-3.6,2-5.5,2.9c-0.3-0.5-0.7-0.9-1-1.4
	c1-1.4,2.1-2.8,3.1-4.2c6-8.3,12.1-16.6,18-25c0.9-1.2,0.8-3.1,1.2-4.7c-0.5-0.2-1.1-0.3-1.6-0.5c-0.9,1.1-1.7,2.3-2.7,3.3
	c-7.6,7.9-15.2,15.8-23,23.5c-1,1-2.9,1.2-4.4,1.8c-0.3-0.5-0.5-1-0.8-1.5c1.9-2,4.1-3.9,5.7-6.1c6.4-8.5,12.7-17,18.9-25.6
	c0.8-1.2,0.7-3,1.1-4.6c-0.5-0.1-1-0.3-1.5-0.4c-1,1.3-1.9,2.7-2.9,4c-5.9,7.4-11.7,14.9-17.8,22.2c-1.1,1.3-2.9,2-4.4,3
	c-0.3-0.4-0.6-0.9-0.9-1.3c6.8-10.7,15.8-20.2,17.7-33.5c-4.1,3.6-8.2,7.3-11.1,11.8c-8.6,13.5-19.4,24.5-34,31.3
	c-16.8,7.8-31.8,19.4-50.5,23c-1.2,0.2-2.4,1.1-3.5,1.7c-2.1,1.1-4.1,2.7-6.3,3.1c-7.2,1.4-14.5,2.3-21.7,3.5
	c-3.1,0.5-7.2,1.3-5.8,5.5c1.2,3.4,3.4,7.2,8.2,7.5c7.8,0.4,15.6,1.6,23.4,1.5c17.9-0.3,36-0.3,53.3-6.3c1-0.3,2.2,0,3.3,0
	c0.2,0.5,0.4,0.9,0.6,1.4c-1.6,0.9-3.2,2-4.9,2.7c-18.9,7.7-38.9,8.4-58.9,8.1c-5-0.1-9.9,0-14.9,0c-0.1,0.7-0.1,1.3-0.2,2
	c7.4,1.1,14.8,2.1,23.1,3.3c-5.1,6-10.9,1.1-17.3,3.7c3.5,2.7,5.8,5.4,8.7,6.4c4.8,1.7,10,2.2,15.1,3.4c1.6,0.4,3.1,1.1,4.7,1.6
	c0,0.6-0.1,1.2-0.1,1.8c-2.2,0.3-4.5,1-6.7,1c-5.7,0-8.4,3.2-6.8,8.6c0.7,2.4,1.9,4.6,2.4,7.1c2,10.8,7.7,19,16,26
	c5.1,4.3,8.8,10.2,13.2,15.3c5.7,6.4,11.4,12.8,17.3,19.1c0.7,0.8,2,1.1,3.1,1.5c8.8,3.5,17.5,7.2,26.5,10.3
	c19.3,6.6,38.9,11.8,59.6,7.9c0.8-0.2,1.8,0.3,2.6,0.5c0,0.5,0,1,0,1.5c-15.1,3.7-30.5,4.1-45.8,1.1c-15.2-3-30.2-6.9-45-10.4
	c0,0,0.1,1.3,0.7,1.6c12.3,5.3,24.6,10.6,38,16.3c-7-0.6-13.2-1.1-20-1.7c3.7,4.5,6.4,8.9,10.1,12c2.7,2.2,3.7,4.3,4.4,7.6
	c0.7,3.6,2.7,7,4.1,10.4c1.4-5.2,1.7-10,2.7-14.7c0.3-1.6,2.5-2.8,3.8-4.1c0.3,1.7,1,3.5,0.9,5.2c-0.5,5.1-1.7,10.1-1.9,15.2
	c-0.1,3.6,1.7,7.3,1.3,10.8c-0.8,8.2-1.3,16.6-3.9,24.3c-2.7,8.2-7.9,15.6-11.5,23.5c-2.5,5.5-5.4,10-11.1,12.9
	c-3.8,1.9-7.9,4-10.4,7.2c-5.1,6.5-9.3,13.7-13.8,20.7c-2.5,3.8-3.3,7.7-2,12.3c1.4,4.8,2,9.8,2.7,14.7c0.2,1.5,0,3.2,0,4.7
	c-0.5,0-1.1,0.1-1.6,0.1c-1.4-5.7-2.9-11.4-4.3-17.2c-1.3,2.2-1.7,4.3-1.6,6.4C644.1,576.3,644.5,585.3,644.9,594.2z M932.7,250
	c2,3,4.2,5.7,5.9,8.7c10.7,19.8,17,41.1,21.1,63.1c7.2,38.6,7.6,77.6,4.4,116.5c-2.5,30.8-6.2,61.6-10.6,92.2
	c-2.7,18.8-4.5,38-12.2,55.8c-3.2,7.5-0.7,11.2,7.6,11.9c5.1,0.4,10.3,0.2,15.4,0.2c28.5,0,56.9,0.1,85.4-0.1
	c10.7-0.1,15.5-4.2,17.2-14.8c3.4-20.6,6.8-41.3,9.4-62c3.6-28.6,4.8-57.5,1.8-86.2c-2-19.7-5-39.2-8.4-58.7
	c-6.1-34.7-14.5-68.9-28.2-101.5c-4.5-10.8-11-20.8-17.3-30.7c-1.6-2.6-6-4.9-9-4.9c-22.1,0.3-44.2,1.1-66.3,2
	C942.3,241.7,936.6,244.3,932.7,250z M622.1,208.1c0.6,0.4,1.1,0.8,1.7,1.3c-11.2,19.3-28.8,32.9-45.5,47.6c1.1,0.7,1.4,0.9,1.7,1
	c0.7,0.1,1.3,0.1,2,0c21.7-4.1,43.2-8.8,63.2-18.7c14.2-7,27.5-15.1,38.7-26.2c6.1-6,10.8-13.4,15.9-20.4c0.8-1.1,0.4-3.2,0.6-4.8
	c-0.5-0.1-1-0.2-1.5-0.4c-8.4,10-16.2,20.7-27.6,27.7c-0.3-1.4-0.1-2.4,0.5-3c6.3-7.5,12.8-14.9,19-22.5c1.2-1.5,1.4-3.9,2-5.9
	c-0.6-0.3-1.2-0.6-1.8-0.8c-8,8.2-14.4,18.2-24.8,24.1c0.5-2,1.4-3.6,2.5-5.2c3.2-4.5,6.5-8.8,9.4-13.5c0.8-1.3,0.2-3.5,0.3-5.3
	c-1.4,0.7-3.3,1.1-4.3,2.3c-4,4.5-7.5,9.3-11.5,13.8c-3.1,3.4-6.6,6.5-9.9,9.7c-0.4-0.4-0.8-0.8-1.2-1.1c0.9-1.3,1.7-2.7,2.7-3.9
	c4.5-5.8,9.3-11.4,13.6-17.3c1.6-2.2,2.3-5.2,3.3-7.8c-0.6-0.3-1.2-0.6-1.8-0.9c-2.2,2.6-4.4,5.2-6.5,7.9c-2.3,2.8-4.5,5.8-6.8,8.6
	c-2.1,2.4-4.3,4.7-6.5,7c-0.5-0.4-0.9-0.7-1.4-1.1c5-8,10-15.9,15.5-24.7c-5.1-0.4-6.9,2-8.7,4.7c-3.6,5.4-7.4,10.7-11.2,15.9
	c-0.7,0.9-1.9,1.5-2.9,2.2c-0.4-0.4-0.7-0.7-1.1-1.1c0.9-1.5,1.8-2.9,2.7-4.4c3.5-5.7,7.1-11.3,10.3-17.1c0.7-1.1,0.2-2.9,0.3-4.4
	c-1.3,0.9-2.7,1.8-3.9,2.8c-0.5,0.4-0.6,1.2-1,1.7c-4.3,6.7-8.6,13.4-13,20c-0.9,1.3-2.5,2-3.8,2.9c-0.4-1.5-0.1-2.3,0.2-3
	c5.3-10.7,10.8-21.3,15.9-32.1c1.6-3.4,3.4-3.6,6.7-2.8c19.8,4.9,38.6,12.6,56.4,22.3c15,8.2,29.6,17.3,44,26.5
	c24,15.3,47.7,31.1,71.6,46.3c9.1,5.8,18.1,12.6,28.1,15.6c18.1,5.4,36.8,8.7,55.4,12.1c9.7,1.8,19.6,2.1,29.8,3.1
	c-1-5.3-3.6-7.2-8.4-7.5c-11.8-0.7-23.6-1.7-35.3-3.1c-24.8-3.1-47.7-11.6-68.7-25.3c-30.8-20.1-61.3-40.6-92.3-60.3
	c-24.9-15.9-51.1-29.2-80.2-35.7c-14.3-3.2-28.6-6.5-43.4-3.6c-9.1,1.8-18.3,3.4-27.5,5c-31.3,5.4-62.6,10.5-93.8,16.2
	c-21.7,4-42.2,11.1-58.6,26.8c-2.2,2.1-4.2,4.7-5.6,7.4c-7.4,15.1-14.5,30.3-21.8,45.4c-3.5,7.3-7.5,14.4-11.8,22.6
	c2.7-0.4,4.3-0.6,5.8-0.9c3.3-0.6,6.5-1.6,9.8-2c10.1-1.1,15.7,1.5,17.2,8.6c0.6,3.1,0,6.6-1,9.7c-4.6,15.1-14.6,25.5-28.7,32.1
	c-13.7,6.4-27.2,9-39.6-2.8c-8.9,8.8-6.8,15.7,3.1,22.1c10.3,6.6,22.4,8.3,34.3,9.6c13.8,1.6,27.5,1.6,40.7-4.3
	c25.3-11.2,47.5-26.9,66-47.4c6.1-6.8,11.6-14.8,15.3-23.1c6.5-14.5,5.6-29.1-3.8-42.7c-1.4-2-2-4.5-3.5-7.7
	c7.9,3.8,12.2,8.4,14.9,16.4c1.8,5,2.9,10.2,4.2,15.4c1,3.8,3.4,6.1,7.3,6.6c4.2,0.5,4.9-3,5.6-5.8c3.1-11.6,5.8-23.2,8.9-34.8
	c0.6-2.2,2.2-4.1,3.3-6.1c0.6,2.4,2,4.9,1.5,7c-3,13.4-6.5,26.7-9.6,40.1c-0.4,1.7-0.5,4.4,0.5,5.3c1.3,1.2,3.8,1.4,5.8,1.4
	c1.1,0,2.4-1.1,3.4-1.9c22.1-18.9,44.9-37.1,65-58.2C619.5,210.1,620.9,209.1,622.1,208.1z M424.3,190.5c-14.7,0-28.3-0.5-41.9,0.1
	c-24.4,1.2-49,1.7-73.2,5c-17.7,2.4-35,3.4-52.7,1.8c-15.1-1.4-30.2-2.2-45.3,0.9c-5.5,1.2-11.1,2.5-16.7,2.9
	c-20.9,1.2-41.9,1.7-62.8,3.2c-15.1,1.1-30.1,3.8-43.4,11.9c-12.6,7.6-20.5,17.4-18.8,33.4c2.5,23.7,11.7,34.3,33.1,35.5
	c36.9,2.2,73.8,4.4,110.7,5.9c24.5,1,49,0.8,73.4,1.3c5.6,0.1,11.5-0.3,16.8,1.2c16.5,4.7,33.5,5.1,50.4,6.5
	c6.2,0.5,11-1.7,14.6-6.7c5.5-7.7,11.4-15.2,16.4-23.2c3.7-6,7.9-12.5,9-19.3c2.7-15.7,3.6-31.7,5.4-47.5c0.3-3.1,1.3-6.1,2-9.2
	c0.6,0.1,1.2,0.2,1.9,0.3c3.3,9.4-0.1,19.2,0.4,28.8c8.8-7.5,5.1-18,6.7-28.7c3,2.5,4.7,4,6.9,5.8
	C419.6,197.5,421.7,194.4,424.3,190.5z M433.9,454.9c0.5,13.7,0.4,27.9,10.2,38.6c9.3,10.1,19.7,19.3,30.6,27.6
	c7.1,5.4,16.5,6.5,25.3,3.7c18.6-6,35.2-15.7,50-28.3c17.9-15.4,34.7-32.1,53.2-46.7c11.2-8.8,22.9-16.9,32.8-27.3
	c9.8-10.2,11-18.4,5.8-31.7c-6.3-16-16.3-28.6-29.8-39.2c-6-4.7-11.2-4.7-17.3-1.6c-6.7,3.4-13.5,6.5-19.9,10.2
	c-14.7,8.4-28.9,17.5-43.8,25.5c-28.1,15.1-56.3,29.9-84.8,44c-8.6,4.3-11.9,10.4-12.3,19.1C433.8,450.9,433.9,452.9,433.9,454.9z
	 M551.9,290c-0.4,0.5-0.8,0.9-1.2,1.4c4.8,7.5,10.1,14.8,14.1,22.7c4.1,8,6.5,16.6,5.6,26c-8.7-16.7-15.7-34.1-28.3-48.2
	c0.2,2,0.8,3.9,1.6,5.7c2.7,6.1,5.8,12,8.1,18.2c0.9,2.3-0.1,5.3-0.2,7.9c-0.6,0.1-1.3,0.1-1.9,0.2c-1.5-2.7-3.1-5.3-4.5-8.1
	c-3.3-6.3-6.5-12.7-10-18.9c-0.9-1.6-2.9-2.7-4.3-4c-0.4,0.4-0.9,0.9-1.3,1.3c0.7,1.3,1.4,2.5,2,3.8c4.2,9,8.5,18,12.5,27.1
	c0.8,1.7,0.5,3.8,0.8,7c-1.7-1.4-2.3-1.7-2.6-2.2c-6.1-10.1-12.2-20.2-18.1-30.4c-0.9-1.5-1.1-3.4-1.9-6c-2.1,1.3-4.3,2.3-6,3.8
	c-23.4,21.4-48.4,40.9-77.3,54.4c-29.8,13.9-58.7,11.2-86-7.3c-5.5-3.7-7.4-3.6-11.4,2.1c-5.9,8.2-10.4,16.9-12.4,27
	c-4.3,21.7,4.8,44.8,22.9,56.8c18.6,12.2,38.8,13.1,58.8,5.4c19.6-7.6,38.6-16.8,57.4-26.4c18.8-9.6,36.9-20.4,55.3-30.9
	c9.1-5.2,18.8-9.8,26.8-16.4c12.2-10,23.3-21.3,34.4-32.5c2.3-2.3,3.7-6.3,4-9.7c1.4-14-4.2-25.3-14.5-34.4
	c-1.6-1.4-3.7-2.2-5.9-3.5c-0.1,1.3-0.3,1.8-0.2,1.9c0.6,0.7,1.4,1.4,2.1,2.1c9,9.3,15.8,19.7,15.7,33.3c0,1.7-0.8,3.4-1.5,6.3
	c-3.3-7.5-5.7-13.7-8.7-19.5c-3-5.9-6.7-11.4-12.3-15.3c0.4,1.7,1.3,3,2.1,4.4c3.2,6.3,6.6,12.5,9.5,19c0.6,1.3-0.3,3.3-0.5,5
	c-0.5,0-1.1,0.1-1.6,0.1c-1.1-1.6-2.1-3.2-3.2-4.9c-4.3-6.7-8.5-13.5-13-20.1C555.5,292.4,553.5,291.3,551.9,290z M361.7,312.6
	c2.3,4.8,5.6,7,10.1,7.4c23.1,2.4,41.3-11.5,47.5-32.6c1.2-4-0.4-7.2-4.4-8.1c-3.1-0.7-6.5-0.6-9.7,0c-11.3,2-22.9,3.5-28.4,16
	c-0.6,1.3-1.9,2.3-2.9,3.4C369.8,303.4,365.7,308,361.7,312.6z M533.6,269.1c-0.9-0.4-1.7-0.7-2.6-1.1c-1,2.9-2,5.7-3,8.6
	c0.7,0.3,1.4,0.5,2,0.8C531.2,274.6,532.4,271.9,533.6,269.1z"/>
<path id="XMLID_1714_" d="M1091.9,248.3c5.9,20.5,12.9,40.7,17.4,61.4c4.4,20.7,6.2,41.9,9.1,62.9c-0.8,0.2-1.6,0.4-2.4,0.6
	c-0.7-2.2-1.8-4.4-2.2-6.7c-4.7-29.6-11.3-58.8-20.2-87.4c-2.4-7.8-5.3-15.4-8.2-23c-1-2.7-2.9-5.1-4.4-7.6
	c-0.4,0.2-0.7,0.3-1.1,0.5c4.2,13,9,25.9,12.5,39.2c3.6,13.6,6.3,27.6,8.9,41.4c2.6,13.6,4.6,27.2,6.8,40.8
	c-0.8,0.2-1.6,0.4-2.5,0.6c-0.9-3.3-2.2-6.5-2.8-9.9c-5.7-32.8-13.5-65.1-24.6-96.5c-2.4-6.9-6-10.9-12.4-12.8
	c11.4,24.8,18.4,50,22.9,75.9c4.5,25.9,8.2,51.8,10.3,78c-0.8,0.2-1.6,0.3-2.4,0.5c-0.7-2-1.7-4-2-6.1
	c-4.9-38.7-13.8-76.5-26.4-113.4c-4.4-12.9-11.7-24.9-17.8-37.3c-2.1-4.2-4.6-8.1-6.6-12.3c-2.3-4.9-1.3-6.1,4.2-6
	c19.8,0.4,39.6,1.1,59.4,0.9c14.8-0.1,29.6-1.7,44.4-2c15-0.3,17.3,0.9,20.6,15.3c5,21.7,9.2,43.6,12.8,65.5c4,24.5,7.2,49.1,6.3,74
	c-0.2,5.1-0.6,10.2-0.9,15.2c-0.5,0.1-1,0.1-1.5,0.2c-0.5-2.8-1.2-5.5-1.4-8.3c-1.3-18.9-2.3-37.9-3.9-56.8
	c-1.7-21.2-7.8-41.4-14.8-61.4c-3-8.6-6.4-17.1-9.7-25.6c-0.9-2.2-2.3-4.3-4.4-6c2.1,6.1,4.1,12.1,6.2,18.2
	c10,29.8,15.6,60.5,18.6,91.7c0.9,9.4,0.6,19,0.6,28.4c0,2.3-1.1,4.5-1.7,6.8c-0.4-0.1-0.9-0.3-1.3-0.4c-0.7-8.4-0.7-16.9-2.1-25.1
	c-3.6-20.1-7.5-40.2-11.9-60.2c-3.6-16.2-8.1-32.2-12.5-48.2c-1.6-5.9-4.8-11.1-9.5-15c-0.5,0.2-1.1,0.5-1.6,0.7
	c4,14,8.8,27.8,12,42c3.3,14.4,5.3,29.1,7.5,43.7c2.2,14.5,3.9,29.1,5.8,43.6c-0.8,0.2-1.6,0.3-2.3,0.5c-0.9-3.2-2-6.3-2.5-9.5
	c-5.5-36.6-13.1-72.6-26.1-107.4c-1.3-3.4-3.1-6.6-4.7-9.9c-0.4,0.2-0.7,0.4-1.1,0.6c5.2,20.9,11.3,41.7,15.3,62.8
	c4,21.2,7.5,42.7,9,64.3c-0.7,0.1-1.3,0.3-2,0.4c-0.8-3.1-1.9-6.1-2.4-9.2c-5-31.9-11.4-63.5-21.5-94.2c-2-6-4.3-11.9-6.6-17.8
	c-0.7-1.9-2-3.6-3-5.4c-0.5,0.2-1.1,0.4-1.6,0.6c3.4,13.7,6.9,27.4,10.3,41.2c-0.8,0.3-1.7,0.5-2.5,0.8c-5-13.5-10-27-15-40.6
	c-0.3,0.1-0.6,0.2-0.9,0.4c5.5,20.7,11.7,41.3,16.3,62.2c4.6,20.9,8,42.1,10.1,63.4c-0.8,0.1-1.5,0.3-2.3,0.4
	c-0.8-2.9-1.9-5.8-2.3-8.8c-5.2-32.6-14.3-64.2-26-95c-2-5.3-4-10.6-6.2-15.8c-0.8-1.8-2.2-3.4-3.4-5.1
	C1092.9,247.9,1092.4,248.1,1091.9,248.3z"/>
<path id="XMLID_1713_" d="M1142,658.2c0.3-6.3,0.1-12.7,1.1-18.9c8.5-55.1,10.8-110.6,9.5-166.2c-0.2-9.3-0.5-18.6-0.6-27.9
	c0-2.2,0.6-4.4,0.9-6.7c0.5-0.1,1-0.2,1.6-0.3c0.8,2.7,2.2,5.3,2.3,8c0.7,24.1,1.6,48.2,1.4,72.3c-0.2,23.3-1.1,46.6-2.6,69.8
	c-1.2,18.9-3.6,37.7-6,56.5c-0.6,4.7-2.9,9.2-4.5,13.8C1144.1,658.6,1143,658.4,1142,658.2z"/>
<path id="XMLID_1712_" d="M1114.4,496.8c1.1,6.6,2.6,13.1,3.2,19.8c3.2,35.1,1.7,70.1-1.1,105.2c-0.7,8.7-3,17.3-4.7,26
	c-0.3,1.8-0.7,3.8-1.7,5.1c-1.2,1.6-3.1,2.6-4.7,3.8c-0.9-1.8-2.7-3.7-2.5-5.3c1.1-7.7,2.8-15.3,4.1-23c6.4-36.6,6.9-73.4,5.2-110.4
	c-0.3-5.5-0.4-11-0.4-16.5c0-1.5,0.5-3,0.7-4.5C1113.1,496.9,1113.8,496.9,1114.4,496.8z"/>
<path id="XMLID_1711_" d="M1085.5,660.3c0.5-3,0.1-6.5,1.6-8.8c7.1-11,7.7-23.6,9.6-35.8c5.2-32.8,4.1-65.7,3.1-98.7
	c-0.3-9.4,0-18.8,0-28.2c0.7,0,1.5-0.1,2.2-0.1c0.9,6.3,2,12.7,2.6,19c2.8,30.5,1.2,60.9-0.6,91.3c-0.9,14.7-3.2,29.4-5.4,44
	c-0.6,4.1-2.8,8.2-4.9,11.9c-1.4,2.5-3.9,4.4-5.9,6.6C1087.1,661.1,1086.3,660.7,1085.5,660.3z"/>
<path id="XMLID_1710_" d="M1158.8,612.3c6.7-68.4,4.1-136.8,1.3-205.2C1169.4,424.3,1171.2,593.7,1158.8,612.3z"/>
<path id="XMLID_1709_" d="M1129.3,503.4c0.7,4.4,1.7,8.7,2,13.1c2.6,39.3,2.6,78.5-4.3,117.4c-1,5.7-2.4,11.3-4,16.9
	c-0.6,2.1-2.3,3.8-3.6,5.6c-0.5-0.1-0.9-0.3-1.4-0.4c0-4-0.7-8.1,0.1-11.8c8-37.1,10.7-74.7,9.4-112.6c-0.2-7-0.7-14-0.8-21
	c-0.1-2.4,0.4-4.9,0.7-7.3C1128.1,503.4,1128.7,503.4,1129.3,503.4z"/>
<path id="XMLID_1708_" d="M1131.2,305.7c5,5.8,16.1,79.1,13.3,85.7c-5-28.2-10-56.8-15-85.4C1130,305.9,1130.6,305.8,1131.2,305.7z"
	/>
<path id="XMLID_1707_" d="M1174.2,425.6c1.1,20.1,3.5,40.1,2.4,60.3c-0.6,0.1-1.2,0.2-1.9,0.3c-0.6-1.7-1.8-3.4-1.8-5.1
	c-0.6-17.5-1-34.9-1.5-52.4c0-1.1,0.6-2.2,0.9-3.2C1172.9,425.6,1173.5,425.6,1174.2,425.6z"/>
<path id="XMLID_1706_" d="M1182.1,459.1c-1.1-16.9-2.3-33.7-3.4-50.6C1183.9,411.3,1186.6,452.6,1182.1,459.1z"/>
<path id="XMLID_1705_" d="M1145.6,460.2c1,16.2,3.5,32.4,0.7,48.8c-4-16.1-1.5-32.5-3.2-48.7
	C1143.9,460.2,1144.8,460.2,1145.6,460.2z"/>
<path id="XMLID_1704_" d="M1132.5,657.6c-3.1-3.3-1.9-17.2,1.7-22.2C1136.7,638.8,1135.8,652.3,1132.5,657.6z"/>
<path id="XMLID_1703_" d="M1126.2,446.8c3.1,2.9,4.8,16.5,2.7,21.8C1125.4,466.9,1123.5,451.7,1126.2,446.8z"/>
<path id="XMLID_1702_" d="M1191.1,418c0,11.2,0,22.5,0,33.7c-0.4,0-0.7,0-1.1,0c0-11.2,0-22.4,0-33.7
	C1190.4,418.1,1190.8,418.1,1191.1,418z"/>
<path id="XMLID_1701_" d="M1123.6,358.3c3.4,7.2,2.6,15,3,22.5c-0.7,0.1-1.4,0.2-2.1,0.3c-1.1-7.5-2.3-15-3.4-22.5
	C1122,358.6,1122.8,358.4,1123.6,358.3z"/>
<path id="XMLID_1700_" d="M1140,545.4c0-11.2,0-22.3,0-33.5c0.3,0,0.6,0,0.9-0.1c0,11.2,0,22.3,0,33.5
	C1140.6,545.4,1140.3,545.4,1140,545.4z"/>
<path id="XMLID_1699_" d="M1128.6,477.7c0,6.8,0,13.6,0,20.4c-0.6,0-1.1,0-1.7,0c0-6.8,0-13.7,0-20.5
	C1127.5,477.6,1128,477.7,1128.6,477.7z"/>
<path id="XMLID_1698_" d="M1165.2,376.2c0,5.1,0,10.1,0,15.8C1162,387.6,1161.7,380,1165.2,376.2z"/>
<path id="XMLID_1697_" d="M1108.9,378.7c0.4,4.3,0.8,8.6,1.3,13.4C1106,389.7,1105,382.2,1108.9,378.7z"/>
<path id="XMLID_1696_" d="M1099.5,414.2c0.5,4.3,1,8.6,1.5,13.7C1096.8,425.3,1095.8,418.2,1099.5,414.2z"/>
<path id="XMLID_1695_" d="M1119.7,379.3c0.5,5,1.1,10.1,1.8,16.1C1117.6,391.1,1116.4,382.7,1119.7,379.3z"/>
<path id="XMLID_1694_" d="M1109.8,396.5c0,2.8,0,5.5,0,8.3c-0.6,0-1.2,0-1.9,0c0-2.8,0-5.6,0-8.3
	C1108.6,396.4,1109.2,396.4,1109.8,396.5z"/>
<path id="XMLID_1693_" d="M1099.2,446.2c-0.2-2.8-0.5-5.7-0.7-8.5c0.8-0.1,1.7-0.2,2.5-0.3c0.3,2.8,0.7,5.6,1,8.4
	C1101,445.9,1100.1,446,1099.2,446.2z"/>
<path id="XMLID_1692_" d="M1110.3,478.4c-0.2-2.7-0.4-5.5-0.6-8.2c0.8-0.1,1.5-0.2,2.3-0.2c0.3,2.7,0.6,5.4,0.9,8.1
	C1112,478.2,1111.1,478.3,1110.3,478.4z"/>
<path id="XMLID_1423_" d="M644.9,594.2c0.5,3.5,0.9,6.9,1.4,10.4c-0.7,0.1-1.3,0.3-2,0.4c-0.6-2.9-1.3-5.7-1.9-8.6
	C643.2,595.7,644,595,644.9,594.2z"/>
<path id="XMLID_1422_" d="M816.3,354.8c-0.9,8.9-1.7,17.9-2.6,26.8c-1.7,17.8-0.4,35.4,3.2,53c4.3,21.4,3.4,43,2.2,64.6
	c-0.4,7.1-0.7,14.3-1.3,21.4c-0.2,2.5-1.4,4.9-2.1,7.3c-0.5-0.1-1-0.2-1.5-0.2c0-4.6-0.1-9.3,0-13.9c0.5-16,2.5-32,1.4-47.8
	c-1-15.7-5.6-31-7.3-46.7c-1.4-12.5-1-25.2-1-37.8c0-5.6,0.4-11.4,1.7-16.8c0.9-3.8,3.7-7.2,5.7-10.8
	C815.2,354.1,815.8,354.5,816.3,354.8z"/>
<path id="XMLID_1421_" d="M651.1,372.8c3.2,1.1,6.5,2,9.6,3.4c25.7,11.6,52.5,16.9,80.7,13.1c17.3-2.3,33-8.9,46.4-20.4
	c2.4-2.1,4.3-5.7,10.1-4.4c-2.8,3.2-4.6,6.2-7.3,8.1c-18.1,13.2-38.2,21.3-60.8,22.7c-20.5,1.3-39.4-5-58.3-11.4
	c-5.7-1.9-11.3-3.9-16.9-6c-1.6-0.6-3-2.1-4.4-3.2C650.5,374.2,650.8,373.5,651.1,372.8z"/>
<path id="XMLID_1420_" d="M803,381c0.2,2,0.8,4.1,0.5,6c-1.9,11.9,0.7,23.4,2.5,35.1c3.5,22.5,7.2,45,5.6,68
	c-0.5,8.2-1.6,16.3-2.4,24.4c-0.5,0-1-0.1-1.5-0.1c0-6.7,0.5-13.4-0.1-20c-1.5-18.5-3.5-37-5.3-55.5c-1.6-16.9-4.9-33.6-2.7-50.7
	c0.3-2.5,1.1-4.9,1.7-7.4C801.9,380.9,802.5,380.9,803,381z"/>
<path id="XMLID_1419_" d="M840.8,506.8c-0.2-1.1-0.6-2.2-0.6-3.2c0.9-24.3-2.8-47.9-8.6-71.5c-4.1-16.8-5-34.1-3.2-51.5
	c0.7-6.4,0.1-13,0.2-19.5c0-1.7,0.7-3.4,1.1-5.1c0.6,0.1,1.1,0.2,1.7,0.2c0.1,1.7,0.3,3.4,0.3,5.1c0.3,13.6-0.2,27.3,1,40.9
	c1.3,13.7,4.1,27.2,6.5,40.7c3.5,20.1,4.9,40.2,2.7,60.6c-0.1,1.1-0.4,2.2-0.6,3.3C841.2,506.7,841,506.8,840.8,506.8z"/>
<path id="XMLID_1418_" d="M829.9,499.6c-0.3-1.8-0.7-3.7-0.8-5.5c-0.8-12.1-0.9-24.2-2.4-36.2c-1.3-9.6-5.3-19-6.3-28.6
	c-1.5-13.6-1.4-27.4-1.7-41.2c0-1.2,1.8-2.4,2.8-3.6c0.8,1.4,2.2,2.9,2.2,4.3c-0.7,26.1,4.1,51.5,8.8,77.1c1.6,8.9,0.9,18.2,1,27.3
	c0,2.2-1.2,4.5-1.8,6.7C831,499.7,830.4,499.6,829.9,499.6z"/>
<path id="XMLID_1417_" d="M670.4,458.8c5.2,9.6,5.6,20.3,6.4,30.9c0.5,0.1,1,0.2,1.5,0.3c0.5-3.1,1.6-6.2,1.5-9.2
	c-0.6-17.9-9-32.7-19-46.8c-0.8-1.1-1.7-2.1-2.5-3.1c-0.2-0.2-0.2-0.6-0.4-0.9c0.3-0.4,0.6-0.8,1-1.1c4,3.8,8.2,7.4,12,11.4
	c11.5,12.1,15.1,27.1,14.2,43.2c-0.2,4.2-3.8,8.6-6.6,12.3c-1.8,2.3-4,0-4.6-4.5c-1.2-8.4-2.6-16.7-4-25c-0.4-2.4-0.9-4.8-1.3-7.1
	C669.2,459,669.8,458.9,670.4,458.8z"/>
<path id="XMLID_1416_" d="M881.1,517c0.5-15.3,2.2-31.6,1.2-47.7c-1-16-4.7-31.8-7.3-47.9C888.6,431,892.3,508.2,881.1,517z"/>
<path id="XMLID_1415_" d="M869.3,463.4c-1.4-3.7-2.9-7.3-4-11c-3.3-10.4-6.7-20.8-9.7-31.4c-3.5-12.4,0.2-24.4,3-36.3
	c0.2-0.9,1.8-1.5,2.7-2.3c0.5,1.1,1.6,2.3,1.5,3.3c-0.4,3.4-1.5,6.8-2,10.2c-2.1,14.6,1.2,28.8,4.5,42.8c1.9,8,4,16,6,24
	C870.6,463,869.9,463.2,869.3,463.4z"/>
<path id="XMLID_1414_" d="M911.9,479.5c0-8.3,0.6-16-0.1-23.6c-1.9-20.5-4.3-41-6.4-61.5c-0.2-2.1,0-4.3,0-7.5
	C913.5,394.6,918.6,472.4,911.9,479.5z"/>
<path id="XMLID_1413_" d="M801.4,507c-2.9-28.4-5.8-56.9-8.7-85.3C801.9,449.4,806,477.7,801.4,507z"/>
<path id="XMLID_1412_" d="M741.2,483.8c-0.3-1.5-0.8-3.1-0.8-4.6c-0.3-14.1-0.4-28.2-0.6-42.3c0-0.8,0.1-1.8,0.5-2.4
	c0.8-1.2,1.8-2.3,2.8-3.4c0.6,1.2,1.6,2.4,1.7,3.6c0.3,4.1,0.5,8.3,0.5,12.5c-0.1,9.5-0.4,19-0.8,28.4c-0.1,2.8-1.2,5.5-1.8,8.3
	C742.1,483.9,741.7,483.9,741.2,483.8z"/>
<path id="XMLID_1411_" d="M647.3,260c-8.6,9.6-53.4,17.6-65.4,12c1.5-0.8,2.5-1.6,3.5-1.8c5.8-0.7,11.6-0.9,17.4-1.9
	c12.6-2.2,25.1-4.7,37.6-7.1C642.3,260.9,644.2,260.6,647.3,260z"/>
<path id="XMLID_1410_" d="M786.5,486.2c-0.8-8.2-1.3-16.5-2.5-24.6c-1.6-11-3.9-21.8-5.6-32.8c-0.2-1.4,0.8-3,1.3-4.5
	c1.2,1.1,3.1,2,3.5,3.3c4.9,18.2,7.1,36.8,5.5,55.7c-0.1,1-0.6,1.9-0.9,2.8C787.3,486,786.9,486.1,786.5,486.2z"/>
<path id="XMLID_1409_" d="M848.6,476.4c-0.5-2.3-1.2-4.5-1.6-6.8c-2.8-17.2-5.6-34.3-8.3-51.5c-0.2-1.5,0.4-3.2,0.7-4.8
	c1.1,1.3,3,2.4,3.3,3.9c3.5,17.9,8.8,35.5,8,54c-0.1,1.6-0.2,3.2-0.3,4.8C849.8,476.1,849.2,476.3,848.6,476.4z"/>
<path id="XMLID_1408_" d="M578.1,495.6c1.8,2.8,3.2,4.8,4.4,6.8c5.2,9.2,9.7,19,19,25.1c0.7,0.5,0.8,1.9,1.1,2.9
	c-1.5,0.1-3.3,0.9-4.5,0.3c-8-3.9-13.8-10.4-18-18c-2.1-3.8-2.3-8.7-3.2-13.2C576.7,498.6,577.4,497.7,578.1,495.6z"/>
<path id="XMLID_1407_" d="M771.9,463c-2.1-16.5-4.2-32.9-6.3-49.4c0.5-0.2,0.9-0.5,1.4-0.7c0.8,0.9,2.2,1.7,2.4,2.7
	c2.1,14,4.2,28.1,6,42.2c0.2,1.7-0.8,3.5-1.2,5.2C773.4,463,772.7,463,771.9,463z"/>
<path id="XMLID_1406_" d="M925.9,362.8c0.4-4.9,1-9.8,1-14.6c0.1-12.3-0.1-24.5-0.1-36.8c0-1.3,1.1-2.7,1.6-4
	c0.9,1.1,2.6,2.2,2.6,3.4c0.1,12.6,0.3,25.2-0.1,37.9c-0.2,4.9-1.7,9.8-2.7,14.7C927.5,363.2,926.7,363,925.9,362.8z"/>
<path id="XMLID_1405_" d="M616.6,525.3c-7.9-9.3-15.8-18.6-23.6-28c-1.3-1.6-2.3-3.7-2.8-5.7c-0.3-1.1,0.6-2.6,1-3.9
	c1.1,0.5,2.5,0.8,3.2,1.7c7.1,9.8,14.2,19.6,21.1,29.5c1.2,1.7,1.7,3.8,2.6,5.7C617.6,524.7,617.1,525,616.6,525.3z"/>
<path id="XMLID_1404_" d="M766.2,471.3c-2.6-3.6-7.7-43.3-5.9-45.7C765.6,431.5,769.8,464.3,766.2,471.3z"/>
<path id="XMLID_1403_" d="M736.6,563.7c1.6-0.5,3.2-1.1,4.8-1.4c8.7-1.7,17.9-2,24.9-8.8c0.9-0.9,3.2-0.2,4.8-0.3
	c-0.4,1.6-0.4,3.5-1.3,4.6c-5.8,7.3-14.4,7.6-22.6,8.5c-3.4,0.4-7,0.1-10.4,0.1C736.7,565.5,736.7,564.6,736.6,563.7z"/>
<path id="XMLID_1402_" d="M673.9,350.7c-11.9,4.8-44.5,2.1-50-5.3C641.2,347.2,658.2,349,673.9,350.7z"/>
<path id="XMLID_1401_" d="M723.4,481.8c-0.5-4-1.4-8.1-1.5-12.1c-0.3-10-0.2-20-0.2-30c0-1-0.1-2.2,0.3-2.9c0.8-1.4,2-2.5,3-3.8
	c0.6,1.4,1.7,2.8,1.7,4.1c-0.3,11.1-0.9,22.3-1.3,33.4c-0.1,3.8,0,7.6,0,11.4C724.7,481.9,724,481.8,723.4,481.8z"/>
<path id="XMLID_1400_" d="M889.2,429c5.6,2.5,9.2,38.2,4.8,45.1C892.4,459.1,890.8,444.1,889.2,429z"/>
<path id="XMLID_1399_" d="M735.1,424.6c-0.7,14.5-1.4,29-2.1,43.5c-0.7,0-1.3,0-2,0c-0.3-3.7-1-7.4-1-11c0-9.8,0.3-19.6,0.7-29.4
	c0.1-1.3,1.5-2.6,2.3-3.9C733.8,424,734.5,424.3,735.1,424.6z"/>
<path id="XMLID_1398_" d="M858.1,473.5c-3.1-16.8-6.3-33.7-9.4-50.5c0.6-0.1,1.2-0.2,1.8-0.4c0.5,2.2,0.9,4.4,1.5,6.5
	c2.7,10.4,5.8,20.6,8.1,31.1c0.9,4.2,0.2,8.7,0.2,13.1C859.6,473.4,858.8,473.5,858.1,473.5z"/>
<path id="XMLID_1397_" d="M867.5,420.5c7.3,7.5,11.7,32.7,7.2,41.4C874.3,448,867,435.4,867.5,420.5z"/>
<path id="XMLID_1396_" d="M643.6,363.7c13.5,3.8,27,7.5,41.2,11.5C678.3,379.1,646.9,370.9,643.6,363.7z"/>
<path id="XMLID_1395_" d="M823.2,525c0-17,0-34,0-50.9C827.9,480.8,827,519.9,823.2,525z"/>
<path id="XMLID_1394_" d="M635.6,354c15.5,2.1,31,4.3,44.9,6.2C670.5,364.6,640.9,361.1,635.6,354z"/>
<path id="XMLID_1393_" d="M565.1,547.8c-11.6-4.9-17.3-14.8-21.8-25.7c-0.3-0.7,0.2-1.8,0.4-2.6c1,0.2,2.1,0.4,3.1,0.7
	c0.1,0,0.2,0.2,0.3,0.4C553.1,529.6,559.1,538.7,565.1,547.8z"/>
<path id="XMLID_1392_" d="M924,471.1c-2.1-2.1-4.4-42.3-2.2-46.6c0.9,2.1,2,3.6,2,5.1c0.4,13.6,0.5,27.2,0.7,40.8
	C924.5,470.6,924.2,470.8,924,471.1z"/>
<path id="XMLID_1391_" d="M696.2,397.3c-13.4-0.7-25.3-6.5-37.4-11.3c0.2-0.7,0.4-1.5,0.7-2.2c12.5,3.7,25,7.4,37.5,11.1
	C696.7,395.6,696.5,396.4,696.2,397.3z"/>
<path id="XMLID_1390_" d="M714.7,428.8c-1.7,14.5-3.4,29.6-4.9,43.1C704.9,461.4,707.8,434.7,714.7,428.8z"/>
<path id="XMLID_1389_" d="M932.2,426.6c3.1,4,4.1,31.4,1.4,37.5C930.3,460.8,929.2,430,932.2,426.6z"/>
<path id="XMLID_1388_" d="M759.6,304.6c5.5-10.2,11.2-20.8,16.9-31.3C781,278.5,768.2,301.6,759.6,304.6z"/>
<path id="XMLID_1387_" d="M592.5,276.9c15.8-1.3,30.8-2.6,46.1-3.9C631.6,278.4,600.2,281.2,592.5,276.9z"/>
<path id="XMLID_1386_" d="M838.3,357.6c-1.7-9.9-1.8-19.1,1-28.3c0.3-1,1.6-1.8,2.5-2.6c0.6,0.8,1.9,1.8,1.8,2.5
	c-1.1,9.1-2.5,18.2-3.8,27.3C839.8,356.7,839.3,356.9,838.3,357.6z"/>
<path id="XMLID_1385_" d="M664,453.6c-5.2-7.7-10.5-15.4-16.3-24c8.5,1,18.2,15,17.7,23.2C664.9,453.1,664.4,453.4,664,453.6z"/>
<path id="XMLID_1384_" d="M614,292c11-0.7,21.9-1.4,33.3-2.1c-2.8,5-23,6.8-33.1,3.6C614.2,292.9,614.1,292.5,614,292z"/>
<path id="XMLID_1383_" d="M739.4,401.2c-8.2,4.2-34.1,1.9-36.9-3.3C714.8,399,727,400.1,739.4,401.2z"/>
<path id="XMLID_1382_" d="M905.6,469.1c-1-6.6-2.1-13.3-2.9-20c-0.1-0.9,1.2-2.1,2.2-2.8c0.3-0.2,2.1,0.7,2.2,1.3
	c1.6,7.1,2.3,14.2,0.5,21.3C907,469,906.3,469.1,905.6,469.1z"/>
<path id="XMLID_1381_" d="M855.2,532.9c5.7,6,4.6,23.8-1.5,26.8C854.2,550.7,854.6,542.3,855.2,532.9z"/>
<path id="XMLID_1380_" d="M712.6,253.1c0.5-1.5,0.5-2.8,1.1-3.5c4-4.5,8-8.8,12.1-13.1c0.6-0.6,1.9-0.6,2.9-0.9
	c0.2,0.7,0.8,1.8,0.5,2.2c-4.5,5.2-9.1,10.3-13.7,15.3C715.1,253.5,714,253.1,712.6,253.1z"/>
<path id="XMLID_1379_" d="M661.7,536.5c1.4,8.5,2.7,16.9,4.1,25.8C660.5,558.9,657.4,543,661.7,536.5z"/>
<path id="XMLID_1378_" d="M904.7,430.1c-4.9-5.3-5.9-18.7-1.6-23.6C905.4,414.7,904.8,422.4,904.7,430.1z"/>
<path id="XMLID_1377_" d="M756.1,280.2c4.1-8,8.2-16.1,12.7-24.9C770.9,261.8,762.9,277.4,756.1,280.2z"/>
<path id="XMLID_1376_" d="M658.5,568c-4.7-3.9-7.4-17.9-4.7-24.2C656.1,545.5,659.7,564,658.5,568z"/>
<path id="XMLID_1375_" d="M855.3,332c-1,7.4-1.9,14.8-2.9,22.2c-4.2-5.6-2.7-19.9,1-22.5C854,331.8,854.6,331.9,855.3,332z"/>
<path id="XMLID_1374_" d="M716.3,472.3c-3.5-10.6-0.2-20.6,3.1-30.7c-0.6,10.2-1.2,20.5-1.8,30.7
	C717.2,472.3,716.7,472.3,716.3,472.3z"/>
<path id="XMLID_1373_" d="M752.1,434.4c3,8.6,1.1,17.6,1.7,26.5c-0.6,0.1-1.1,0.1-1.7,0.2c-0.9-8.8-1.8-17.5-2.8-26.3
	C750.3,434.6,751.2,434.5,752.1,434.4z"/>
<path id="XMLID_1372_" d="M602.3,491.4c-6.8-3.6-11.8-12.1-10-16.6C596.6,477.4,602.7,487.2,602.3,491.4z"/>
<path id="XMLID_1371_" d="M675.2,522.4c1.2,8.2,2.3,15.4,3.5,23.7C673,541.3,670.8,527.2,675.2,522.4z"/>
<path id="XMLID_1370_" d="M669.8,530.4c0.7,7.4,1.5,14.7,2.3,22.8c-4.9-4.2-7.1-18-4.2-22.7C668.6,530.4,669.2,530.4,669.8,530.4z"
	/>
<path id="XMLID_1369_" d="M947.7,457.8c0-8.3,0-16.7,0-24.8c2.6,2.5,3.8,19.5,1.5,24.8C948.6,457.8,948.2,457.8,947.7,457.8z"/>
<path id="XMLID_1368_" d="M636.8,340.3c-8,3.8-18.6,1.2-20.1-4.5C623.7,337.3,630.3,338.8,636.8,340.3z"/>
<path id="XMLID_1367_" d="M556.2,529.9c-2.5-3.7-5.3-7.2-7.5-11.1c-0.6-1,0.7-3.1,1.1-4.6c1.1,1,2.4,1.7,3.2,2.9
	c1.5,2.2,2.8,4.5,3.9,6.9c0.7,1.5,1,3.2,1.4,4.8C557.7,529.1,557,529.5,556.2,529.9z"/>
<path id="XMLID_1366_" d="M542.5,539.1c-3.9-1.6-6.2-5-7.7-8.8c-0.3-0.9,0.3-2.6,1.1-3.4c0.5-0.5,2.6-0.2,3,0.4
	c2,3.5,3.8,7.1,5.6,10.7C543.8,538.4,543.1,538.7,542.5,539.1z"/>
<path id="XMLID_1365_" d="M865.2,538.1c3.8,4.5,3.6,12.5-0.6,19C861.2,550.3,864.4,544.5,865.2,538.1z"/>
<path id="XMLID_1364_" d="M844.5,559.4c0.7-7.3,1.3-13.7,1.9-20.7C851,543.7,850,554.6,844.5,559.4z"/>
<path id="XMLID_1363_" d="M610.2,320.7c5.8,0.8,11.6,1.5,18.4,2.4C623,327.6,613.5,326.5,610.2,320.7z"/>
<path id="XMLID_1362_" d="M607.5,485.6c-2.4-3.1-5.1-6.1-7.2-9.5c-0.8-1.3-0.2-3.5-0.2-5.3c1.4,0.7,3.3,1.1,4.1,2.3
	c2.1,3.3,3.8,6.9,5.6,10.3C609,484.2,608.2,484.9,607.5,485.6z"/>
<path id="XMLID_1361_" d="M828,552.9c4,3.2,5.6,13.4,3.3,15.8c-0.4,0.4-3.2-0.4-3.2-0.7C827.9,563.3,828,558.6,828,552.9z"/>
<path id="XMLID_1360_" d="M566.4,501.6c2.3,3.6,4.7,7.1,6.9,10.7c0.2,0.4-0.4,1.7-0.9,1.9c-0.7,0.3-2.2,0.3-2.5-0.2
	c-2.2-3.5-4.2-7.1-6.3-10.6C564.5,502.8,565.5,502.2,566.4,501.6z"/>
<path id="XMLID_1359_" d="M667.9,490.7c1.8,3.3,0.8,8.9-2.5,13.7C662.6,499.9,663.9,493.1,667.9,490.7z"/>
<path id="XMLID_1358_" d="M759.2,578.4c0.3,3.6,0.7,7.1,0.7,10.7c0,0.7-1.3,1.5-2,2.3c-0.7-0.8-1.9-1.6-1.9-2.4
	c0-3.5,0.4-7,0.6-10.6C757.4,578.4,758.3,578.4,759.2,578.4z"/>
<path id="XMLID_1357_" d="M666,365.9c8.5,0,17,0,25.5,0c0,0.4,0,0.8,0,1.2C683,366.6,674.6,370,666,365.9z"/>
<path id="XMLID_1356_" d="M624.7,302.9c-5.2,2.7-9.9,0.5-15.4-0.3C613.9,299.2,621.2,299.6,624.7,302.9z"/>
<path id="XMLID_1355_" d="M613,328.3c6,1,11,1.9,16.9,2.9C624.7,334.6,616.1,333.4,613,328.3z"/>
<path id="XMLID_1354_" d="M882.5,551.4c0.5-4.3,1-8.7,1.6-13.5c4.6,3.5,4.2,9.2-0.1,13.9C883.5,551.7,883,551.5,882.5,551.4z"/>
<path id="XMLID_1353_" d="M531,544.2c-2.2-2.8-4.2-5.1-5.8-7.6c-0.4-0.7,0.2-2.2,0.7-3.1c0.2-0.4,1.6-0.5,2.2-0.3
	C530.2,534,532.3,540.6,531,544.2z"/>
<path id="XMLID_1352_" d="M795.5,315.8c-0.2,5.6-3.4,11.1-8.5,12.8c2.6-5.2,4.7-9.4,6.9-13.6C794.4,315.3,794.9,315.5,795.5,315.8z"
	/>
<path id="XMLID_1351_" d="M829.4,515.1c-0.2-2.5-0.5-5-0.3-7.5c0-0.7,1.6-2,2.3-1.9c0.8,0.1,2.2,1.5,2.1,2.2c-0.2,2.5-0.9,5-1.4,7.5
	C831.2,515.3,830.3,515.2,829.4,515.1z"/>
<path id="XMLID_1350_" d="M777.2,577c5.3,1.9,4.8,5.4,4.1,8.7c-0.1,0.3-3.2,0.3-3.2,0.3C777.7,583,777.5,580,777.2,577z"/>
<path id="XMLID_1349_" d="M694.3,517.2c-4.5-2-4.9-5.6-4.5-9.8C694.4,508.5,696.2,512.5,694.3,517.2z"/>
<path id="XMLID_1348_" d="M819.5,570.3c0-4.3,0-7.9,0-12C823.7,561.8,823.7,565.7,819.5,570.3z"/>
<path id="XMLID_1347_" d="M678,339.4c-6.5,2.5-13,4.5-20,2.6C664.7,341.1,671.4,340.3,678,339.4z"/>
<path id="XMLID_1346_" d="M698.2,507c-3.9-2.7-4-6.4-2.9-11.3C699.6,499,698.9,503,698.2,507z"/>
<path id="XMLID_1345_" d="M562.2,515.9c-1.3,1-2,1.6-2.8,2.2c-1.5-2.1-3.1-4.1-4.3-6.3c-0.2-0.4,1.3-1.7,2-2.6
	C558.7,511.3,560.3,513.4,562.2,515.9z"/>
<path id="XMLID_1344_" d="M700,382.9c-3.9-1.2-7.7-2.3-11.6-3.5c0.3-0.9,0.6-1.8,0.8-2.6c3.8,1.3,7.6,2.5,11.4,3.8
	C700.5,381.3,700.2,382.1,700,382.9z"/>
<path id="XMLID_1343_" d="M939.7,473.8c0-3.7,0-7.5,0-11.2c3.8,3.6,3.2,7.4,1.5,11.2C940.7,473.8,940.2,473.8,939.7,473.8z"/>
<path id="XMLID_1342_" d="M876.5,542.5c0,3.8,0,7.7,0,11.9C873.1,552.2,872.8,546.7,876.5,542.5z"/>
<path id="XMLID_1341_" d="M902.8,433c5.1,1.9,3.9,5,3.5,7.7c-0.1,0.4-1.1,1-1.5,0.9c-0.7-0.2-1.6-0.9-1.6-1.5
	C902.9,438.1,902.9,436,902.8,433z"/>
<path id="XMLID_1340_" d="M777.4,326.4c2.6-3.7,5.2-7.3,7.8-11c0.5,0.4,1.1,0.7,1.6,1.1c-2.5,3.8-5,7.5-7.5,11.3
	C778.7,327.3,778.1,326.9,777.4,326.4z"/>
<path id="XMLID_1339_" d="M794.4,474.1c0,3.9,0,7.7,0,12.1C791.2,483.1,791.1,480.6,794.4,474.1z"/>
<path id="XMLID_1338_" d="M891.1,547.9c0.2-2.9,0.4-5.9,0.7-9.9c3.7,4.1,3.7,7,0.9,10C892.2,547.9,891.7,547.9,891.1,547.9z"/>
<path id="XMLID_1337_" d="M681.8,521.9c1.2,2.7,2.3,5.5,3.6,8.5c-4.8,0-6.3-2.8-5.1-7.9C680.8,522.3,681.3,522.1,681.8,521.9z"/>
<path id="XMLID_1336_" d="M734.6,475.5c0,3.1,0,6.1,0,9.2c-0.7,0-1.5,0-2.2,0.1c-0.2-3.1-0.3-6.2-0.5-9.2
	C732.8,475.5,733.7,475.5,734.6,475.5z"/>
<path id="XMLID_1335_" d="M906.3,544.9c0.2-2.8,0.4-5.6,0.6-9.1c3.7,3.5,3.7,5.8,1,9.2C907.4,544.9,906.8,544.9,906.3,544.9z"/>
<path id="XMLID_1334_" d="M846.9,310.1c1.9,3.1,1.6,6-1.7,10c0-4.1,0-7.1,0-10C845.8,310.1,846.3,310.1,846.9,310.1z"/>
<path id="XMLID_1333_" d="M809.4,567.1c4.5,4.8,4.2,7.4,0,9.6C809.4,573.7,809.4,571.1,809.4,567.1z"/>
<path id="XMLID_1332_" d="M767.7,589.5c-0.5-2.9-1-5.8-1.5-8.7c0.9-0.2,1.8-0.3,2.6-0.5c0.5,2.9,1.1,5.8,1.6,8.7
	C769.5,589.1,768.6,589.3,767.7,589.5z"/>
<path id="XMLID_1331_" d="M836.9,564.5c0-2.7,0-5.3,0-8.4C841,558.5,841.2,561.2,836.9,564.5z"/>
<path id="XMLID_1330_" d="M728.3,588.4c-0.3,3.5-0.5,5.9-0.8,8.4c-0.9-0.3-2.4-0.4-2.7-1C723.5,593.1,723.9,590.8,728.3,588.4z"/>
<path id="XMLID_1329_" d="M899.7,545.3c0-2.9,0-5.7,0-8.6c0.5-0.2,1-0.3,1.4-0.5c0.5,1.5,1.5,3,1.5,4.4c0,1.8-0.9,3.7-1.4,5.5
	C900.8,545.8,900.3,545.6,899.7,545.3z"/>
<path id="XMLID_1328_" d="M921.4,489c0.3-3.1,0.5-6.2,0.8-9.3c0.6,0,1.1,0.1,1.7,0.1c0,3.1,0,6.2,0,9.3
	C923,489.1,922.2,489,921.4,489z"/>
<path id="XMLID_1327_" d="M695.3,594.9c0.1,2.3,0.1,4.6,0.2,6.9c-0.8,0-1.9,0.2-2.2-0.1C691.8,599.3,691.1,596.9,695.3,594.9z"/>
<path id="XMLID_1326_" d="M801,572.3c-0.1,2.1-0.3,4.3-0.4,6.4c-0.9-0.1-2.5-0.1-2.5-0.3c-0.1-2.1,0-4.2,0.1-6.3
	C799.2,572.2,800.1,572.2,801,572.3z"/>
<path id="XMLID_1325_" d="M916.3,485.7c-0.2,2.6-0.4,5.1-0.6,7.7c-0.8-0.1-1.6-0.1-2.4-0.2c0.1-2.6,0.3-5.1,0.4-7.7
	C914.5,485.6,915.4,485.7,916.3,485.7z"/>
<path id="XMLID_1324_" d="M564.5,526.2c-1.4-1.8-2.6-2.9-3.2-4.3c-0.1-0.3,1.6-1.4,2.5-2.2c1,1.2,2.1,2.2,2.8,3.6
	C566.8,523.7,565.6,524.8,564.5,526.2z"/>
<path id="XMLID_1323_" d="M584.4,488.6c0.9,1.7,1.8,3.3,2.6,5.1c0,0.1-1.6,0.9-2.5,1.4c-0.8-1.8-1.5-3.6-2.3-5.4
	C583,489.3,583.7,489,584.4,488.6z"/>
<path id="XMLID_1322_" d="M973.7,342.9c-0.6-2.5-1.3-4.9-1.7-7.4c-4.4-26.8-12.7-52.2-26.3-75.8c-1.6-2.7-4.5-5.6-0.9-10
	c1.8,1.7,3.6,3,4.8,4.8c10.9,16.3,17.2,34.3,20.9,53.4c1.9,9.9,3.4,20,5,30c0.2,1.5,0,3.2,0,4.7
	C974.9,342.7,974.3,342.8,973.7,342.9z"/>
<path id="XMLID_1321_" d="M1004.5,245.8c1.7,1.9,3.8,3.7,5.1,5.8c9,15.5,13,32.6,15.1,50.1c0.6,4.8,1.3,9.6,1.7,14.4
	c0.2,2.5,0,5,0,7.5c-0.6,0.1-1.3,0.2-1.9,0.3c-0.6-1.9-1.5-3.7-1.7-5.6c-2.6-22.4-7.2-44.3-18.2-64.3c-1.1-2.1-1.4-4.7-2-7.1
	C1003.3,246.5,1003.9,246.1,1004.5,245.8z"/>
<path id="XMLID_1320_" d="M1036.6,322.8c-0.6-2.1-1.5-4.1-1.7-6.2c-2.6-22.6-7.5-44.4-18.6-64.5c-0.3-0.6-0.7-1.2-0.7-1.8
	c0-1.5,0.1-3,0.2-4.5c1.4,0.7,3.4,1,4.1,2.1c3.1,5.5,6.3,11,8.6,16.8c7,17.3,8.6,35.7,10.3,54.1c0.1,1.3-0.3,2.7-0.5,4
	C1037.7,322.7,1037.2,322.7,1036.6,322.8z"/>
<path id="XMLID_1319_" d="M1004.7,324.4c-1-6.1-1.9-12.3-2.9-18.4c-3-18.1-7.8-35.6-16.8-51.8c-0.3-0.6-0.8-1.2-0.8-1.8
	c0.1-1.6,0.4-3.2,0.7-4.9c1.3,0.8,3.2,1.3,3.8,2.5c4.1,9,9.3,17.8,11.6,27.3c3.5,14,4.9,28.4,7.1,42.7c0.2,1.4-0.5,2.9-0.8,4.4
	C1006,324.4,1005.4,324.4,1004.7,324.4z"/>
<path id="XMLID_1318_" d="M979.2,324c-1.2-5.6-2.4-11.1-3.5-16.7c-3.6-18.3-9-36-18.6-52.2c-2-3.3-1.8-3.4,1.3-6.5
	c10.8,8.8,26.8,63.3,22.2,75.2C980.2,323.9,979.7,324,979.2,324z"/>
<path id="XMLID_1317_" d="M967.4,251.2c4-2.6,5.7-1.2,7.5,2c10.1,17.9,13.8,37.6,15.8,57.7c0.3,3.3,0.8,6.6,1,9.9
	c0.1,1.4-0.4,2.9-1.6,4.5C985.4,299.7,981.3,274,967.4,251.2z"/>
<path id="XMLID_1316_" d="M1049,369.6c-2.2-9.7-5.6-19.2-4.7-30.2C1049,343.3,1052.3,363.9,1049,369.6z"/>
<path id="XMLID_1315_" d="M993.4,247.8c5.6,2.9,14,23,12,29.5C1001,267.1,994.8,258.9,993.4,247.8z"/>
<path id="XMLID_1314_" d="M1011.1,306c4.5,4.1,6.9,23.7,4.9,29.7c-0.4,0.1-0.9,0.1-1.3,0.2C1013.5,325.9,1012.3,315.9,1011.1,306z"
	/>
<path id="XMLID_1313_" d="M1056,346.3c-3.9-2.1-7.3-15-5.9-21.6C1053.5,326.4,1057.4,340,1056,346.3z"/>
<path id="XMLID_1312_" d="M1059.5,377.1c-0.6-2.1-1.4-4.2-1.9-6.4c-1-4.5-1.8-9.1-2.5-13.7c-0.1-0.9,0.8-1.9,1.2-2.8
	c0.8,0.5,2,0.9,2.2,1.6c1.9,6.8,3.5,13.6,2.7,20.7C1060.7,376.8,1060.1,377,1059.5,377.1z"/>
<path id="XMLID_1311_" d="M978.4,247.9c5.9,9.5,9.4,19.9,11.3,31c-4.3-10.1-8.5-20.2-12.8-30.2C977.5,248.4,978,248.2,978.4,247.9z"
	/>
<path id="XMLID_1310_" d="M1062.2,385.9c3.1,6.2,3.9,12,2.3,18.5C1060.9,401.5,1059.7,392.2,1062.2,385.9z"/>
<path id="XMLID_1309_" d="M1021.6,581.5c-0.4,3-0.5,5.2-1,7.2c-0.2,0.9-1.4,1.6-2.1,2.4c-0.8-0.9-2.4-1.9-2.4-2.6
	c0.4-3.1,1.2-6.1,2-9c0.1-0.5,1.9-1,1.9-0.9C1020.8,579.7,1021.3,581,1021.6,581.5z"/>
<path id="XMLID_1308_" d="M988,581c-0.5,2.6-0.6,4.6-1.3,6.5c-0.3,0.8-1.7,1.8-2.4,1.7c-0.8-0.2-1.9-1.6-1.8-2.4
	c0.3-2.8,0.9-5.5,1.7-8.2c0.2-0.6,1.5-0.8,2.2-1.3C987.1,578.8,987.7,580.1,988,581z"/>
<path id="XMLID_1307_" d="M1000,325.4c0-0.4,0.2,0.7-0.1,1.5c-0.3,0.9-1.1,1.7-1.7,2.5c-0.6-0.8-1.7-1.5-1.8-2.3
	c-0.4-2.1-0.7-4.3-0.6-6.3c0.1-1.2,1.3-2.3,1.9-3.4c0.8,1,1.8,2,2.2,3.2C1000.3,321.6,1000,322.8,1000,325.4z"/>
<path id="XMLID_1306_" d="M1044.4,309.4c-0.6-4.5-1.2-9-1.8-13.5c0.6-0.1,1.3-0.2,1.9-0.3c0.7,4.5,1.3,9,2,13.5
	C1045.8,309.2,1045.1,309.3,1044.4,309.4z"/>
<path id="XMLID_1305_" d="M1038.7,327c0,2.8,0,5.6,0,8.4c-0.5,0.1-0.9,0.1-1.4,0.2c-0.4-2.8-0.7-5.6-1.1-8.4
	C1037.1,327.1,1037.9,327.1,1038.7,327z"/>
<path id="XMLID_1304_" d="M973.3,587.7c0.7-2.8,1.5-5.6,2.2-8.4c0.7,0.1,1.4,0.3,2,0.4c-0.5,2.8-1.1,5.7-1.6,8.5
	C975.1,588.1,974.2,587.9,973.3,587.7z"/>
<path id="XMLID_1303_" d="M1002.8,580.6c-0.4,2.8-0.9,5.6-1.4,9.1c-3.3-3.5-3.2-4.4,0.1-9.3C1001.9,580.4,1002.4,580.5,1002.8,580.6
	z"/>
<path id="XMLID_1302_" d="M1011.7,581.4c-0.6,2.7-1.2,5.5-1.7,8.2c-0.8-0.2-1.6-0.4-2.4-0.5c0.6-2.8,1.3-5.5,1.9-8.3
	C1010.2,581,1010.9,581.2,1011.7,581.4z"/>
<path id="XMLID_1301_" d="M992.6,337.2c-2.2-2.9-4.3-5.7,0-8.7C992.6,331.4,992.6,334.3,992.6,337.2z"/>
<path id="XMLID_1300_" d="M991.3,587.5c0.8-2.7,1.6-5.4,2.3-8.1c0.5,0.1,1,0.3,1.5,0.4c0.6,3.1,0.7,6.1-1.9,8.5
	C992.6,588.1,991.9,587.8,991.3,587.5z"/>
<path id="XMLID_1299_" d="M590.3,195.8c0-1.6-0.3-3.3,0.1-4.8c2.5-9.5,5.2-18.9,8-28.3c1.4-4.7,13.1-9.5,17.5-7.1
	c1.1,0.6,1.9,3.1,1.6,4.4c-0.9,4-2,8.1-3.7,11.8c-3.5,7.9-7.4,15.6-11.3,23.3c-0.7,1.3-1.9,2.4-2.9,3.5c-0.6-0.3-1.3-0.6-1.9-0.9
	c3.4-9.5,6.9-19,10.3-28.4c-0.8-0.4-1.6-0.8-2.4-1.2c-1.3,2-2.9,3.8-3.8,5.9c-2.5,6-4.6,12.1-7,18.1c-0.6,1.5-2,2.8-3,4.1
	C591.2,196,590.8,195.9,590.3,195.8z"/>
<path id="XMLID_1298_" d="M583.5,159.5c-3.5,15.6-6.6,29.5-9.7,43.4c-0.4,0.1-0.7,0.1-1.1,0.2c-0.5-1.4-1.3-2.8-1.3-4.2
	c-0.1-8,0.1-15.9,0-23.9c0-1.2-0.9-2.4-1.4-3.7c-1.1,0.9-3,1.6-3.3,2.7c-0.9,3.5-1.2,7.2-2,10.8c-0.3,1.1-1.5,2-2.3,3
	c-0.7-1-1.9-2-1.9-3c0-5,0-10,0.5-15c0.4-3.4,2.2-6.3,6-7.1C571.9,161.8,576.9,160.8,583.5,159.5z"/>
<path id="XMLID_1297_" d="M606.6,200.3c0.2-0.9,0.4-1.9,0.8-2.7c6.1-12.7,12.4-25.3,18.4-38c1.2-2.5,2.5-4.3,5-3
	c0.9,0.4,1.4,3.7,0.8,4.9c-6.3,11.8-12.8,23.5-19.4,35.2c-1,1.7-3,2.9-4.6,4.3C607.2,200.7,606.9,200.5,606.6,200.3z"/>
<path id="XMLID_1296_" d="M499.7,194.1c-2.8-8.2-5.4-15.3-14.9-10.6c1.9,3.3,3.8,6.6,5.7,9.8c-0.5,0.3-0.9,0.7-1.4,1
	c-5.4-2.1-7.5-7.8-11.4-11.4c4.3-7.1,11.8-5.1,17.7-7.1c0.5-0.2,1.6,0.5,2,1.1C500.6,181.6,502.3,186.5,499.7,194.1z"/>
<path id="XMLID_1295_" d="M551.4,257.9c3-12.3,6-25.1,9.2-37.8c0.3-1,1.4-1.8,2.1-2.8c0.7,1,1.9,2,1.9,3c0,4.1,0.5,8.5-0.8,12.3
	c-2.8,7.8-6.6,15.2-10.1,22.6C553.1,256.5,551.8,257.5,551.4,257.9z"/>
<path id="XMLID_1294_" d="M512.7,217.2c7.3,2.3,12.7,7.2,15.5,14.3c2.1,5.4,5.9,10.8,3,17.4c-4.7-11.5-9.2-22.9-20.8-29.8
	C511.2,218.4,511.9,217.8,512.7,217.2z"/>
<path id="XMLID_1293_" d="M481,215.2c-10.1-7.5-19.5-14.4-29.2-21.5C459.5,190.4,478.7,204.4,481,215.2z"/>
<path id="XMLID_1292_" d="M643.4,156.7c0,6-12.8,30.4-17.2,32.9C625.5,184.1,639,158.3,643.4,156.7z"/>
<path id="XMLID_1291_" d="M574.7,240.9c-5.1,8.1-11.1,15.5-18.5,21.7c-0.9,0.7-2.7,0.2-4.1,0.3c0.3-1.3,0.3-2.9,1-3.8
	c5.3-6,10.7-11.8,16.2-17.5c1-1.1,2.8-1.5,4.2-2.3C573.9,239.8,574.3,240.3,574.7,240.9z"/>
<path id="XMLID_1290_" d="M558.3,164.5c-1.7,8.6-3.2,16.7-4.8,24.7c-0.6,0-1.2-0.1-1.9-0.1c-0.3-1.8-0.7-3.7-0.9-5.5
	c-0.3-3.6-0.5-7.3-0.9-10.9C549.3,166.5,550.4,165.2,558.3,164.5z"/>
<path id="XMLID_1289_" d="M509.6,199c-2.3-7.8-4.5-14.9-6.5-22c-0.2-0.8,0.3-2.3,0.9-2.6c0.9-0.4,2.3-0.4,3.2,0.1
	C511.7,177,513.7,194,509.6,199z"/>
<path id="XMLID_1288_" d="M582.4,187.6c2.6-9.2,2.5-19.3,9.8-27.1c-0.1,10-2.4,19.3-7.3,27.9C584.1,188.1,583.3,187.8,582.4,187.6z"
	/>
<path id="XMLID_1287_" d="M516.4,265.6c-8.9,1.1-15.9-2.2-24.3-2.6C498.1,257.6,509.9,258.9,516.4,265.6z"/>
<path id="XMLID_1286_" d="M542.2,191.8c-1.1-7-2.3-14-3.3-21.1c-0.1-0.7,1.3-1.8,2.2-2.2c0.5-0.2,1.8,0.8,2.1,1.5
	c2.5,7.1,2.2,14.3,0.9,21.5C543.4,191.7,542.8,191.7,542.2,191.8z"/>
<path id="XMLID_1285_" d="M522.5,173.7c0.5,6.7,0.9,13.4,1.4,20.2c-0.6,0.1-1.2,0.2-1.9,0.3c-4.3-4.6-3.9-10.8-4.4-16.6
	c-0.1-1.4,1.5-3,2.3-4.5C520.8,173.3,521.7,173.5,522.5,173.7z"/>
<path id="XMLID_1284_" d="M536.4,241.8c-2.9-8-5.7-15.9-9-25c1.9,0.9,3.9,1.1,4.5,2.2C535.8,225.9,538.8,233.2,536.4,241.8z"/>
<path id="XMLID_1283_" d="M493.7,271.8c3.5-3.7,14.7-3.3,16.6,0.5c0.6,1.3-0.1,3.3-0.2,5.1C504.2,275.4,499,273.7,493.7,271.8z"/>
<path id="XMLID_1282_" d="M497.3,249.2c4.9-2.1,14-0.3,15.7,2.2c0.5,0.7,0.6,1.9,0.3,2.7c-0.1,0.5-1.4,1.3-1.9,1.1
	C507.1,253.5,502.8,251.6,497.3,249.2z"/>
<path id="XMLID_1281_" d="M477.8,198.9c-3.1-4-6.3-7.9-9.9-12.4c6.3-1.1,12.2,5.7,11.4,11.3C478.8,198.2,478.3,198.5,477.8,198.9z"
	/>
<path id="XMLID_1280_" d="M532.3,170.6c0.3,4.1,0.6,8.2,1.1,13.7c-5.4-3-5.1-7.3-5.8-10.7c-0.2-1,2-2.4,3.1-3.6
	C531.2,170.1,531.7,170.4,532.3,170.6z"/>
<path id="XMLID_1279_" d="M483.3,289.6c3.3-1.6,10.5-0.1,11.8,2.7c0.3,0.6-0.6,2.6-1.2,2.8C491.1,295.8,484.7,292.4,483.3,289.6z"/>
<path id="XMLID_1278_" d="M491.2,280.1c3.6,0.4,7.2,0.6,10.8,1.2c0.8,0.1,1.9,2.2,1.6,2.9c-0.3,0.9-2.1,2.1-2.9,1.9
	c-3.4-0.9-6.6-2.3-9.9-3.5C490.9,281.8,491,281,491.2,280.1z"/>
<path id="XMLID_1277_" d="M512.4,246.7c-3.6-2.1-6.8-4-9.9-6c-0.5-0.3-0.9-1.5-0.7-2.1c0.2-0.6,1.2-1.2,1.9-1.2
	C506.7,237.1,511.9,242.3,512.4,246.7z"/>
<path id="XMLID_1276_" d="M488.1,299.7c-1,0.5-2.5,1.6-3.1,1.3c-2.6-1.4-4.9-3.3-7.4-5c0.9-0.7,2.2-2.1,2.8-1.9
	c2.7,1.1,5.3,2.6,7.9,3.9C488.3,298.7,488.2,299.2,488.1,299.7z"/>
<path id="XMLID_1275_" d="M575.6,218.8c-1.3,5-2.6,10-3.8,15c-0.7-0.2-1.3-0.3-2-0.5c-1.1-5.5,2.8-9.9,3.3-15.1
	C573.9,218.5,574.7,218.7,575.6,218.8z"/>
<path id="XMLID_1274_" d="M453.2,201.6c-2.2,1.4-3.4,2.8-4.1,2.5c-2.3-0.8-4.4-2.2-6.6-3.3c1.1-1,2.4-2.9,3.3-2.7
	C447.9,198.6,449.9,200,453.2,201.6z"/>
<path id="XMLID_1273_" d="M577.1,233.5c2-2.8,4-5.6,6.6-9.2c0.9,1.8,2.1,3.3,1.8,3.7c-1.9,2.6-4,5-6.1,7.4
	C578.6,234.7,577.9,234.1,577.1,233.5z"/>
<path id="XMLID_1272_" d="M500.6,216.1c2.3,2.1,4.6,4.3,6.9,6.4c-0.2,0.6-0.5,1.1-0.7,1.7c-1.6-0.4-3.6-0.3-4.6-1.2
	c-1.6-1.4-2.5-3.6-3.7-5.4C499.1,217,499.8,216.6,500.6,216.1z"/>
<path id="XMLID_1271_" d="M435.9,212.1c-1.3-2.2-2.5-3.4-2.7-4.8c-0.1-0.9,1.9-3,2.2-2.8c1.8,0.8,3.3,2.2,4.9,3.3
	C439.2,208.9,438,210.1,435.9,212.1z"/>
<path id="XMLID_1270_" d="M562.5,192.3c0.8,0.6,1.2,0.8,1.2,1c0,2.6-0.1,5.3-0.2,7.9c-0.9-0.1-2.4,0.1-2.6-0.2
	C559.9,198,559.8,195,562.5,192.3z"/>
<path id="XMLID_1269_" d="M462.8,312.5c1.7-1.1,3.1-2.3,3.4-2c1.9,1.3,3.6,3,5.4,4.6c-0.7,0.6-1.6,1.8-1.9,1.7
	C467.6,315.7,465.6,314.3,462.8,312.5z"/>
<path id="XMLID_1268_" d="M668.4,218.7c-3.4,2.5-6.9,5.1-10.3,7.6c-0.4-0.6-0.9-1.2-1.3-1.7c3.4-2.6,6.8-5.2,10.2-7.7
	C667.5,217.5,667.9,218.1,668.4,218.7z"/>
<path id="XMLID_1267_" d="M453.9,320.6c3.3-4.3,5.5-2.9,7.3-1.1c0.5,0.5-0.1,2.2-0.3,3.4C458.8,322.2,456.7,321.5,453.9,320.6z"/>
<path id="XMLID_1266_" d="M480.4,306.2c-2.2,1.2-3.3,2.3-3.8,2c-1.6-0.7-3.1-2-4.6-3c0.8-0.7,1.7-2.1,2.3-1.9
	C476,303.8,477.6,304.8,480.4,306.2z"/>
<path id="XMLID_1265_" d="M664.1,211.2c-2.1,2.1-4.2,4.2-6.4,6.3c-0.6-0.6-1.2-1.1-1.7-1.7c2.1-2.2,4.1-4.3,6.2-6.5
	C662.8,210.1,663.4,210.7,664.1,211.2z"/>
<path id="XMLID_1264_" d="M483.9,274.2c-2.5,0.5-5,1-7.5,1.4c-0.2-0.8-0.3-1.5-0.5-2.3c2.5-0.6,5-1.2,7.4-1.7
	C483.5,272.4,483.7,273.3,483.9,274.2z"/>
<path id="XMLID_1263_" d="M532.3,194.7c-0.3-2.3-0.7-4.7-1-7c0.8-0.1,1.7-0.3,2.5-0.4c0.4,2.3,0.8,4.6,1.2,6.9
	C534.1,194.4,533.2,194.5,532.3,194.7z"/>
<path id="XMLID_1262_" d="M625,193.9c-1.6,2.6-3.2,5.3-4.8,7.9c-0.7-0.4-1.4-0.9-2.1-1.3c1.7-2.6,3.3-5.2,5-7.8
	C623.7,193.1,624.4,193.5,625,193.9z"/>
<path id="XMLID_1261_" d="M349.8,236.5c0-8.4,0.1-16.9-0.1-25.3c0-1.8-1.4-3.5-2.1-5.3c-0.9,1.9-2.5,3.7-2.7,5.7
	c-0.6,4.7-0.6,9.5-0.8,14.3c-0.8,0-1.5,0-2.3,0c-0.3-4.5-0.5-9-1.1-13.4c-0.2-1.4-1.5-2.8-2.3-4.1c-0.9,1.4-2.4,2.8-2.5,4.2
	c-0.3,5.5-0.1,11-0.3,16.5c-0.1,2.1-0.9,4.2-1.4,6.3c-0.6,0-1.1-0.1-1.7-0.1c-0.7-9.3-1.4-18.6-2.1-27.8c-0.9,0-1.8,0-2.7,0
	c-0.2,2.2-0.5,4.4-0.6,6.7c-0.2,8-0.3,15.9-0.5,23.9c-0.1,1.7-0.8,3.3-2.5,4.9c-0.1-1.5-0.3-3.1-0.4-4.6c-0.7-10.1-1.1-20.2-2-30.3
	c-0.4-4.4,2.4-5,5.4-5.5c8.2-1.2,16.4-2.4,24.7-3.2c11.9-1.2,23.8-2.1,35.7-3.1c3.8-0.3,5.8,0.7,6.4,5.2c1.9,13.3-0.7,26.2-2.9,39.1
	c-0.7,4-1.6,7.9-2.4,11.8c-0.6,0-1.2-0.1-1.8-0.1c-0.1-2-0.4-4-0.3-6c0.8-10.1,1.8-20.2,2.5-30.4c0.2-3.1,1.1-7.1-3.7-8.8
	c-2.4,17.3-0.7,34.9-7.4,51.2c-0.6-0.1-1.2-0.1-1.8-0.2c0-1.6-0.1-3.3,0-4.9c1.1-14.2,2.3-28.5,3.4-42.7c0.1-1.1,0-2.5-0.6-3.4
	c-0.6-1-1.8-1.6-2.8-2.3c-0.6,0.9-1.6,1.8-1.7,2.7c-0.6,4.3-0.9,8.6-1.5,12.9c-0.3,1.8-1.2,3.4-1.8,5.1c-0.6-0.1-1.2-0.1-1.8-0.2
	c0-6.8,0-13.6,0-20.3c-0.7-0.3-1.4-0.6-2.1-0.9c-1,1.3-2.7,2.5-2.8,3.8c-1.1,9.1-1.8,18.2-2.8,27.3c-0.2,2.2-1.1,4.4-1.6,6.6
	c-0.4,0-0.8,0-1.3,0c-0.1-1.4-0.3-2.9-0.3-4.3c0.3-8.8,0.8-17.6,1-26.5c0-1.7-1.3-3.4-2-5c-1,1.6-2.6,3.2-2.8,4.9
	c-0.9,7.6-1.3,15.2-2,22.8c-0.1,1-0.8,2-1.2,3C351,236.5,350.4,236.5,349.8,236.5z"/>
<path id="XMLID_1260_" d="M298.3,202.7c7.2,12.2,6.9,77.6,0,84.7C298.3,258.8,298.3,230.8,298.3,202.7z"/>
<path id="XMLID_1259_" d="M199.1,279.4c-1.4-15.5-3.3-31.1-4.1-46.6c-0.4-7.4,1-14.9,2.1-22.3c0.3-2,2.5-3.8,4.6-6.6
	c0,26.4,0,51.1,0,75.8C200.7,279.5,199.9,279.5,199.1,279.4z"/>
<path id="XMLID_1258_" d="M291.4,208.9c5.4,24.6,2.7,49.3,0.7,74C290.7,258.2,289.4,233.6,291.4,208.9z"/>
<path id="XMLID_1257_" d="M191.4,269.4c-1-4.4-2.7-8.8-3-13.2c-0.8-12.9-1.1-25.9-1.6-38.8c0-0.8,0-1.7,0.3-2.5
	c0.8-1.8,1.9-3.4,2.8-5.2c0.5,1.9,1.5,3.9,1.3,5.7c-1.7,16.8-0.6,33.5,1.7,50.2c0.1,1.1,0.2,2.2,0.2,3.4
	C192.6,269.1,192,269.3,191.4,269.4z"/>
<path id="XMLID_1256_" d="M282.5,255c-0.4-2.6-0.6-3.9-0.7-5.3c-0.6-12.3-1.2-24.6-1.6-36.9c0-1.1,1-2.3,1.6-3.5
	c0.9,0.8,2.6,1.6,2.6,2.4c0.3,13.3,0.4,26.5,0.5,39.8C284.8,252.3,283.8,253.1,282.5,255z"/>
<path id="XMLID_1255_" d="M182.4,260.9c-0.8-3.1-2.2-6.2-2.3-9.3c-0.6-11.1-1-22.2-1.1-33.3c0-1.6,1.8-3.3,2.7-4.9
	c0.6,1.7,1.7,3.4,1.7,5.1c0.3,12.9,0.5,25.8,0.7,38.7c0,1.1,0,2.2,0,3.2C183.5,260.6,182.9,260.8,182.4,260.9z"/>
<path id="XMLID_1254_" d="M215.9,206.3c0.5,2.1,1.6,4.2,1.5,6.2c-0.7,10.9-1.7,21.8-2.6,32.7c-0.1,0.6-0.2,1.3-1.4,2.4
	c-0.6-1.3-1.8-2.7-1.8-4c0.1-9.3,0.2-18.6,0.6-27.9c0.1-3.1,1.1-6.1,1.6-9.1C214.6,206.5,215.2,206.4,215.9,206.3z"/>
<path id="XMLID_1253_" d="M171.9,252c-0.6-7.8-1.4-15.7-1.8-23.5c-0.2-4,0.1-8,0.6-11.9c0.2-1.4,1.4-2.6,2.1-3.9
	c0.7,1.3,1.9,2.6,2,3.9c0.1,8.2-0.1,16.3-0.2,24.5c0,3.6,0,7.2,0,10.8C173.7,251.9,172.8,252,171.9,252z"/>
<path id="XMLID_1252_" d="M308.9,264.4c0-14.3,0-28.6,0-43.4C314.2,225.8,314.7,258.3,308.9,264.4z"/>
<path id="XMLID_1251_" d="M207.5,253.9c-4.9-6.4-4.5-29,0-35C207.5,230.9,207.5,242.4,207.5,253.9z"/>
<path id="XMLID_1250_" d="M268.4,238c-0.8-11.4-1.4-21.6-2.2-32.5C271.9,208.8,273.2,230.8,268.4,238z"/>
<path id="XMLID_1249_" d="M162.1,239.5c-0.4-1.5-1.2-3-1.1-4.4c0.2-6.3,0.5-12.6,1.1-18.8c0.1-1.2,1.9-2.1,2.9-3.2
	c0.6,1.2,1.7,2.4,1.6,3.5c-0.5,6.8-1.2,13.5-2,20.2c-0.1,0.9-0.8,1.7-1.2,2.6C163,239.4,162.5,239.4,162.1,239.5z"/>
<path id="XMLID_1248_" d="M259.4,232.5c-0.5-2.6-1.2-4.9-1.3-7.2c-0.3-5-0.4-9.9-0.3-14.9c0-0.9,1.1-1.8,1.7-2.6
	c0.7,0.6,2.1,1.1,2.1,1.7c0,7.3-0.3,14.7-0.5,22C261.1,231.6,260.5,231.8,259.4,232.5z"/>
<path id="XMLID_1247_" d="M222,233.2c-4-6.7-2.4-23.5,2.7-28.5C225.2,214.6,223.6,223.3,222,233.2z"/>
<path id="XMLID_1246_" d="M316.5,234c-0.9-10.7-1.7-19.9-2.5-29.8C319.2,207.9,320.7,226,316.5,234z"/>
<path id="XMLID_1245_" d="M127.9,212.9c0.5,7.4,1.1,14.7,1.7,22.7C124.6,232.2,123,217.6,127.9,212.9z"/>
<path id="XMLID_1244_" d="M147,214c0,8.1,0,15.5,0,24C142.4,231.6,142.5,218.1,147,214z"/>
<path id="XMLID_1243_" d="M229.9,229.8c-0.3-8.1-1.1-16.2,1.4-24.2c0.8,0,1.7,0.1,2.5,0.1c-0.5,8.1-0.9,16.2-1.4,24.2
	C231.6,229.9,230.8,229.8,229.9,229.8z"/>
<path id="XMLID_1242_" d="M156.2,233.3c-4.9-6-3.8-12.8-2.7-19.4c0.1-0.7,1.3-1.2,2-1.9c0.6,0.9,1.8,1.7,1.8,2.6
	C157,220.8,156.5,227,156.2,233.3z"/>
<path id="XMLID_1241_" d="M249.2,229.1c-0.1-6.4-0.2-12.8-0.2-19.2c0-0.5,1.4-1.1,2.1-1.6c0.5,0.9,1.5,1.8,1.5,2.7
	c-0.1,6-0.5,12.1-0.8,18.1C251,229,250.1,229.1,249.2,229.1z"/>
<path id="XMLID_1240_" d="M119.3,235.7c-3.1-6.8-3.5-13.4,0.1-20.1C121.7,222.3,120.2,229,119.3,235.7z"/>
<path id="XMLID_1239_" d="M368.8,232.9c4,4.2,3,15.1-1.6,19.4C367.8,245.8,368.3,239.4,368.8,232.9z"/>
<path id="XMLID_1238_" d="M137.1,234.3c-3.2-6.3-2.2-12.9-0.8-19.5C139.2,221.2,136.7,227.8,137.1,234.3z"/>
<path id="XMLID_1237_" d="M111.7,217.6c0,6.7,0,13.1,0,20.7C107.3,230.7,107.5,219.9,111.7,217.6z"/>
<path id="XMLID_1236_" d="M97.5,221.1c0,6.9,0,12.9,0,19.1C93.5,236.8,93.1,225.9,97.5,221.1z"/>
<path id="XMLID_1235_" d="M276.1,241.3c0-5.5,0-11,0-16.5c0.5,0,0.9,0,1.4,0c1.7,5.5,1.7,11,0.1,16.6
	C277,241.3,276.5,241.3,276.1,241.3z"/>
<path id="XMLID_1234_" d="M88.8,237.8c-3.3-4.3-4-8.6-1.5-12.9c0.5,0,1,0,1.5,0C88.8,229.2,88.8,233.5,88.8,237.8z"/>
<path id="XMLID_1233_" d="M242.4,216.8c-4.3-3.6-3.8-8.5,1.2-12.3C243.2,208.6,242.8,212.7,242.4,216.8z"/>
<path id="XMLID_1232_" d="M103.6,221.7c0,4.9,0,9,0,13.3C99.9,231.9,99.7,225.6,103.6,221.7z"/>
<path id="XMLID_1231_" d="M374.4,274.2c-0.3-0.2-0.8-0.3-0.8-0.5c0.4-2.7,0.9-5.4,1.3-8.1c0.8,0.3,2,0.3,2.4,0.9
	C378.7,268.4,377.1,272.3,374.4,274.2z"/>
<path id="XMLID_1230_" d="M342.5,234.1c0,3.2,0,6.3,0,9.5c-0.5,0-1,0-1.5,0c-1.9-3.2-1.5-6.3,0-9.5
	C341.6,234.2,342.1,234.1,342.5,234.1z"/>
<path id="XMLID_1229_" d="M637.7,409.8c-7.8-19.1-16.7-37.5-33.2-50.8c6.9,10.4,15.7,19.7,19.6,31.8c-0.9,0.7-1.8,1.4-2.7,2.2
	c-1-1.6-1.9-3.3-3-4.8c-7.1-9.4-14.3-18.7-21.3-28.3c-1.1-1.5-2.2-4.8-1.5-5.6c2.3-2.6,5.3-5.9,9.4-3c4.6,3.3,9.1,6.7,13.3,10.5
	c11.7,10.5,18.1,24,21,39.2c0.5,2.7,0.1,5.6,0.1,8.4C638.8,409.6,638.2,409.7,637.7,409.8z"/>
<path id="XMLID_1228_" d="M473.1,423.5c3.8,25.3,19.2,43.5,35,61.6c-0.5,0.5-0.9,0.9-1.4,1.4c-3.2-2.3-6.9-4.1-9.7-6.9
	c-13.4-13.4-23.4-28.9-27.1-47.8C469.4,428.8,468.1,425,473.1,423.5z"/>
<path id="XMLID_1227_" d="M494.5,492c-11.5-2.8-28.8-28.6-26.2-38C476.9,466.4,485.6,479,494.5,492z"/>
<path id="XMLID_1226_" d="M567.8,400.6c-0.5,0.7-0.9,2.2-1.6,2.4c-0.8,0.2-2.4-0.5-2.9-1.3c-3.5-5.2-6.8-10.6-10.1-15.9
	c-0.9-1.4-2-2.8-2.4-4.3c-0.2-1.1,0.5-2.5,1.2-3.5c0.3-0.4,2.1-0.3,2.5,0.2C560.1,384.7,565.2,391.6,567.8,400.6z"/>
<path id="XMLID_1225_" d="M587.2,361.9c11,3.7,27,27.4,26.9,37.2C605.7,387.5,596.8,375.1,587.2,361.9z"/>
<path id="XMLID_1224_" d="M542.7,412.3c-2.5-3-4.9-5.6-6.9-8.4c-2.3-3.2-4.5-6.6-6.4-10c-0.4-0.6,0.4-2.6,1.2-3
	c0.8-0.5,3.1-0.5,3.4,0.1c3.4,6.4,6.6,12.9,9.8,19.5C543.7,410.5,543.4,410.9,542.7,412.3z"/>
<path id="XMLID_1223_" d="M582.9,368.8c10.1,4.5,13.8,14.2,19.1,22.7c-0.6,0.5-1.1,0.9-1.7,1.4c-6.4-7.5-12.7-15.1-19.1-22.6
	C581.8,369.8,582.4,369.3,582.9,368.8z"/>
<path id="XMLID_1222_" d="M512.4,398.7c0.4,0.9,0.7,1.8,1.2,2.7c2.6,4.6,5.3,9.1,7.8,13.8c0.4,0.8,0.1,2.9-0.3,3
	c-1.1,0.3-3.1,0.3-3.4-0.3c-3-5.1-5.7-10.3-8.3-15.5c-0.3-0.6,0.9-1.9,1.4-2.9C511.3,399.2,511.9,398.9,512.4,398.7z"/>
<path id="XMLID_1221_" d="M582.4,389.5c-4.4-6.1-8.9-12.2-13.1-18.4c-0.6-0.8-0.1-2.4-0.1-3.6c1.1,0.1,2.7-0.1,3.1,0.5
	c4,6.2,7.9,12.5,11.7,18.8c0.3,0.5-0.2,1.5-0.3,2.2C583.2,389.2,582.8,389.3,582.4,389.5z"/>
<path id="XMLID_1220_" d="M524.8,394.1c2.3,5.2,4.4,10.3,6.6,15.3c-0.6,0.4-1.2,0.8-1.7,1.1c-1.2-0.9-2.7-1.5-3.6-2.6
	c-1.8-2.3-3.3-4.9-4.9-7.4C519.1,397.3,519.7,395.1,524.8,394.1z"/>
<path id="XMLID_1219_" d="M570.1,390.2c-4.3-5.5-8-10.1-11.5-14.8c-0.4-0.5-0.2-2.1,0.3-2.5c0.6-0.5,1.9-0.5,2.7-0.2
	C565,373.9,570.7,384.8,570.1,390.2z"/>
<path id="XMLID_1218_" d="M514.5,488.9c4.1,3,8.3,6,13.4,9.6c-8,1.2-13.3-2.2-14.5-8.2C513.8,489.8,514.2,489.3,514.5,488.9z"/>
<path id="XMLID_1217_" d="M500.9,404.7c2.8,0.3,6.7,8.3,5.2,10.4c-0.4,0.5-1.9,1-1.9,1c-1.9-3.3-3.6-6.6-5.3-10
	C498.9,406,500.3,405.1,500.9,404.7z"/>
<path id="XMLID_1216_" d="M445.8,449.9c-3.7-2.8-3.7-6.7-2.9-10.8c0.1-0.6,1.3-1.6,1.6-1.5c1,0.4,2.4,1.1,2.5,1.9
	c0.5,3.4,0.6,6.8,0.8,10.3C447.2,449.8,446.5,449.8,445.8,449.9z"/>
<path id="XMLID_1215_" d="M464.4,440.4c-1.9-3.8-3.9-7.7-5.7-11.6c-0.3-0.6,0.4-2,1-2.3c0.5-0.3,2.1,0.2,2.3,0.7
	c1.7,4,3.1,8.2,4.6,12.3C465.9,439.8,465.1,440.1,464.4,440.4z"/>
<path id="XMLID_1214_" d="M483.4,428.7c-4-2.6-5.7-5.8-5.7-9.8c0-0.8,0.6-1.9,1.3-2.3c0.4-0.3,2,0.1,2.1,0.6
	C482.5,420.6,484.9,424,483.4,428.7z"/>
<path id="XMLID_1213_" d="M591,405.3c-1.5-2.5-3.1-5-4.4-7.7c-0.4-0.7,0.2-2,0.4-3c0.9,0.3,2,0.3,2.5,0.9c2.3,2.8,4.8,5.6,3.1,9.4
	C592,405,591.5,405.1,591,405.3z"/>
<path id="XMLID_1212_" d="M549.6,395.4c3.3,2.8,5.6,5.7,4.5,10.6C549.1,403.5,547.7,400,549.6,395.4z"/>
<path id="XMLID_1211_" d="M489,411.7c1,3,2,6.1,2.9,9.1c-0.8,0.3-1.5,0.7-2.3,1c-1.4-2.5-2.9-5-4-7.6c-0.2-0.6,1.1-1.8,1.7-2.8
	C488,411.5,488.5,411.6,489,411.7z"/>
<path id="XMLID_1210_" d="M571.4,393.1c1.8-0.6,2.1-0.7,2.1-0.7c1.7,2.3,3.4,4.6,5.1,6.9c-0.8,0.4-2.1,1.3-2.2,1.2
	C574.8,398.2,573.2,395.8,571.4,393.1z"/>
<path id="XMLID_1209_" d="M604.9,397.9c1.6,2.3,2.9,3.9,3.9,5.8c0.3,0.6,0.2,2.1-0.3,2.4c-0.5,0.4-2,0.3-2.5-0.1
	C603.9,403.9,601.3,401.7,604.9,397.9z"/>
<path id="XMLID_1208_" d="M545.4,393.6c-2.2-3.4-3.7-6-5.6-9C544.7,384.3,546.9,387.6,545.4,393.6z"/>
<path id="XMLID_1207_" d="M495.4,432c-1.3-3.1-2.1-4.9-2.6-6.8c-0.1-0.5,1.1-1.2,1.7-1.9c1.2,1.6,2.5,3.2,3.4,4.9
	C498.1,428.7,496.9,429.8,495.4,432z"/>
<path id="XMLID_1206_" d="M487.2,430.6c1.3,2.2,2.5,3.6,2.9,5.2c0.2,0.5-1.5,1.6-2.3,2.4c-1-1.4-2.1-2.7-2.7-4.3
	C484.8,433.3,486.1,432.2,487.2,430.6z"/>
<path id="XMLID_1205_" d="M453.8,430.6c0.3,2.1,0.7,4.2,1,6.3c-0.5,0.3-1.1,0.5-1.6,0.8c-1.1-1.5-2.5-2.9-3.2-4.6
	c-0.2-0.6,1.4-1.9,2.1-2.9C452.7,430.3,453.2,430.5,453.8,430.6z"/>
<path id="XMLID_1204_" d="M628.3,407.9c-0.7-2.7-1.4-5.3-2.1-8c0.7-0.2,1.4-0.5,2.2-0.7c0.8,2.6,1.7,5.3,2.5,7.9
	C630.1,407.4,629.2,407.7,628.3,407.9z"/>
<path id="XMLID_1203_" d="M538.1,363.9c-1.5-1.5-3.4-2.7-4.3-4.5c-7.1-12.5-14-25.2-21-37.8c-1.2-2.2-2.7-4.2-3.6-6.5
	c-0.5-1.3,0-2.9,0.1-4.4c1.7,0.8,4.3,1.1,5,2.4c4.1,7.4,7.7,15.1,11.5,22.6c4.6,9,9.2,17.9,13.7,26.9
	C539.1,363,538.6,363.4,538.1,363.9z"/>
<path id="XMLID_1202_" d="M455.8,386.5c-2.3-1.5-4.1-2.1-4.6-3.2c-3.3-7.4-6.6-14.8-9.4-22.4c-0.5-1.3,0.9-3.3,1.4-4.9
	c1.2,1.1,2.9,2,3.5,3.4c2.9,7.4,5.6,14.9,8.3,22.3C455.3,382.8,455.3,383.9,455.8,386.5z"/>
<path id="XMLID_1201_" d="M532.4,329.9c-4-5.8-7.9-11.6-11.8-17.5c-1.3-1.9-2.5-3.9-3.3-6.1c-0.3-0.9,0.5-2.7,1.3-3.2
	c0.7-0.4,2.5,0,3.3,0.7C525.5,307.1,533.2,324.3,532.4,329.9z"/>
<path id="XMLID_1200_" d="M560.6,348.4c-2.8-7.4-5.5-14.8-8.6-23C559.2,326.7,564.9,341.8,560.6,348.4z"/>
<path id="XMLID_1199_" d="M484,330.5c6.7,0.3,16.4,17.3,14.5,24.9C493.5,346.9,489,339.1,484,330.5z"/>
<path id="XMLID_1198_" d="M547.2,333.8c1.2,1.1,2.9,2,3.4,3.4c1.6,4,2.9,8.1,4,12.3c0.3,1.1-0.8,2.6-1.2,3.9
	c-0.9-0.9-2.3-1.7-2.6-2.8c-1.7-5.2-3.2-10.5-4.7-15.7C546.4,334.5,546.8,334.1,547.2,333.8z"/>
<path id="XMLID_1197_" d="M439.7,373.6c-5.6-1.5-10.2-11-8.4-14.5c0.4-0.7,1.4-1.6,2.1-1.6c0.8,0,2,0.8,2.2,1.5
	C437,363.5,438.2,368.1,439.7,373.6z"/>
<path id="XMLID_1196_" d="M457.7,365.7c-2.7-1.3-8.4-10.2-7.8-12.7c0.3-1,2.4-2.4,3.2-2.1C455.8,351.8,459,362.7,457.7,365.7z"/>
<path id="XMLID_1195_" d="M503.1,314.9c3.2,6,6.1,11.6,9,17.2c0.7,1.4,1.2,3,2,5.1C506.7,331.3,500,318.3,503.1,314.9z"/>
<path id="XMLID_1194_" d="M493.6,322.1c4.7,2.3,9.3,11.2,7.6,14.8C496,333.5,492.4,326.4,493.6,322.1z"/>
<path id="XMLID_1193_" d="M483.8,350.9c-2.3-3.5-4.7-7-6.9-10.6c-0.3-0.4,0.6-2.1,1.2-2.3c0.9-0.3,2.7-0.2,3,0.3
	c2,3.6,3.7,7.3,5.6,11C485.7,349.8,484.8,350.4,483.8,350.9z"/>
<path id="XMLID_1192_" d="M468.8,365.1c-3-4.7-5.5-8.4-7.8-12.3c-0.3-0.6,0.1-2.1,0.7-2.5c0.6-0.4,1.9-0.3,2.6,0.1
	C467.2,352,470,359.9,468.8,365.1z"/>
<path id="XMLID_1191_" d="M477.1,352.2c-0.6,1.2-0.9,2.2-1.5,2.7c-0.4,0.3-1.7,0-2.1-0.5c-1.7-2.2-3.4-4.4-4.7-6.8
	c-0.4-0.8,0.4-2.3,0.7-3.5c1.2,0.3,2.8,0.2,3.4,0.9C474.5,347.3,475.7,349.8,477.1,352.2z"/>
<path id="XMLID_1190_" d="M538.4,346.7c-1.7-3-3.6-6-4.8-9.2c-0.4-1.1,0.7-2.8,1.1-4.2c1,0.8,2.5,1.5,3,2.6c1.4,3.1,2.3,6.4,3.4,9.6
	C540.2,345.9,539.3,346.3,538.4,346.7z"/>
<path id="XMLID_1189_" d="M385.2,362.3c1.7,6.4,0.9,9.5-2.7,11.7C380.5,367.9,381.2,364.1,385.2,362.3z"/>
<path id="XMLID_1188_" d="M372.6,361.9c0.7,1.6,1.8,3.3,1.8,4.9c0,1.2-1.7,2.3-2.6,3.5c-1-1.5-2.4-3-2.7-4.6
	c-0.2-1.1,1.2-2.5,1.9-3.7C371.5,361.9,372.1,361.9,372.6,361.9z"/>
<path id="XMLID_1187_" d="M396.1,369.7c-1.7,1.8-2.9,3.1-4,4.3c-0.8-1.6-2.2-3.3-2.3-4.9c-0.1-1.3,1.5-2.6,2.4-3.9
	C393.3,366.5,394.4,367.8,396.1,369.7z"/>
<path id="XMLID_1186_" d="M578.2,321.4c1.6,3.3,2.8,6.4-0.7,9.4C573,325.8,573.2,323.6,578.2,321.4z"/>
<path id="XMLID_1185_" d="M474.2,375.6c-0.8-1.5-2-3-2.3-4.6c-0.2-1.4,0.5-2.9,0.9-4.4c1.3,0.9,3.3,1.7,3.6,2.9
	c0.5,1.8-0.1,3.9-0.2,5.8C475.5,375.4,474.8,375.5,474.2,375.6z"/>
<path id="XMLID_1184_" d="M462.8,373c1.6,2.1,3.4,4.2,4.8,6.5c0.3,0.5-0.4,2.1-1,2.4c-0.6,0.3-2.2,0-2.5-0.6
	c-1.3-2.1-2.3-4.5-3.4-6.8C461.4,374,462.1,373.5,462.8,373z"/>
<path id="XMLID_1183_" d="M426.7,371.1c-1.2,1.4-2,2.3-2.7,3.1c-1.3-2.1-2.8-4.1-3.8-6.4c-0.2-0.5,1.4-1.7,2.1-2.6
	C423.6,367.1,425,368.9,426.7,371.1z"/>
<path id="XMLID_1182_" d="M408.8,373.3c-1.6,0.4-3.4,1.3-3.8,0.9c-1.5-1.7-2.6-3.7-3.5-5.7c-0.2-0.5,1-1.6,1.5-2.5
	C404.4,367.8,405.8,369.6,408.8,373.3z"/>
<path id="XMLID_1181_" d="M441.7,389.3c-1.3-2.6-2.8-5.1-3.8-7.7c-0.3-0.7,0.7-1.9,1.1-2.8c0.9,0.5,2.3,0.9,2.5,1.6
	c0.8,2.7,1.3,5.6,1.9,8.4C442.8,389,442.2,389.1,441.7,389.3z"/>
<path id="XMLID_1180_" d="M487.4,369c-1.5,0.5-3,1.3-3.2,1.1c-1.9-2.3-3.6-4.8-5.2-7.3c-0.2-0.2,0.8-1.2,1.2-1.8
	C482.1,363.2,484.1,365.4,487.4,369z"/>
<path id="XMLID_1179_" d="M543.1,360.4c-0.3-4.5-0.4-7.6-0.6-10.8c0.5-0.2,1.1-0.3,1.6-0.5c0.9,2.7,1.9,5.4,2.4,8.1
	C546.7,357.9,544.9,358.8,543.1,360.4z"/>
<path id="XMLID_1178_" d="M507.1,349.1c-0.5-0.4-1.1-0.8-1.3-1.3c-0.6-1.9-1.1-3.9-1.6-5.8c0.9,0,2.3-0.2,2.5,0.1
	c0.9,2.1,1.6,4.3,2.3,6.4C508.3,348.7,507.7,348.9,507.1,349.1z"/>
<path id="XMLID_1177_" d="M520.6,374.2c-1.3-2.8-2.3-4.9-3.7-8C523.3,368,523.8,369.2,520.6,374.2z"/>
<path id="XMLID_1176_" d="M530.6,362.6c1.1,1.9,2.4,3.1,2.3,4.2c-0.1,0.9-1.9,2.4-2.8,2.3c-1-0.2-2.5-1.8-2.5-2.8
	C527.5,365.3,529.1,364.3,530.6,362.6z"/>
<path id="XMLID_1175_" d="M411.9,281.6c1.1,6.6-17,29.9-24.9,32.8C395.5,303.2,403.3,292.8,411.9,281.6z"/>
<path id="XMLID_1174_" d="M398,310.3c6-8.5,11.7-16.7,17.5-24.9C417,290.8,405.1,307.8,398,310.3z"/>
<path id="XMLID_1173_" d="M389.9,286.6c-3,7.7-8.3,13.4-14.9,17.9C378.1,296.9,382.9,290.8,389.9,286.6z"/>
<path id="XMLID_1172_" d="M406.2,284.4c-4.7,6.1-9.3,12.1-14,18.2c-0.6-0.5-1.2-0.9-1.8-1.4c4.6-6.1,9.3-12.2,13.9-18.3
	C405,283.4,405.6,283.9,406.2,284.4z"/>
<path id="XMLID_1171_" d="M375.5,310.4c3.7-4.2,6.6-7.4,10.2-11.5C385.3,304.4,380.7,309.7,375.5,310.4z"/>
<path id="XMLID_1170_" d="M386.6,297.2c2.9-3.7,5.1-6.6,7.3-9.5C395,292.6,392.1,296.2,386.6,297.2z"/>
</svg>
