<?xml version="1.0" encoding="utf-8"?>
<!-- Generator: Adobe Illustrator 19.0.0, SVG Export Plug-In . SVG Version: 6.00 Build 0)  -->
<svg version="1.1" id="Calque_1" xmlns="http://www.w3.org/2000/svg" xmlns:xlink="http://www.w3.org/1999/xlink" x="0px" y="0px"
	 viewBox="0 0 1083 1300" style="enable-background:new 0 0 1083 1300;" xml:space="preserve">
<path id="XMLID_1596_" d="M637,451.3c15.2,1.2,29.3,4.1,42.5,10.5c4.5,2.1,8.7,4.9,12.7,7.9c9.3,6.8,10.2,17.3,11.7,27.6
	c2.6,18.1-0.6,35.1-9,51.2c-1.2,2.2-1.6,4.9-2.7,8.2c3.6-0.5,6.2-0.8,8.8-1.1c16.9-2.2,31.1,5,39.4,20c6.3,11.3,8.8,23.7,10.3,36.2
	c2.4,19.5,4.2,39,6.5,58.5c1.3,10.8-0.2,21.3-3.7,31.5c-6.5,19-8.8,38.8-11.7,58.5c-5,34-7.8,68.5-18.2,101.5
	c-3.1,9.9-7.6,19.5-11.8,29.1c-4.7,10.8-10.4,21.2-14.6,32.3c-2.6,6.9-3.7,14.5-4.2,21.8c-1.1,15.2,0.6,30.2,3.8,45.1
	c1.9,8.7,5.9,15.9,12.8,21.4c10.8,8.4,14.7,19.9,13,32.8c-2.6,19.8,0.7,38.7,5.9,57.6c3.1,11.2,5.5,22.6,3.6,34.5
	c-1.5,9.6-5.4,18-14.2,22.2c-14.2,6.8-28.6,13.3-43.5,18.6c-24.4,8.6-49.8,13-75.2,17.3c-23.4,4-46.8,6.7-70.5,5.9
	c-17.5-0.6-34.7-2.5-52-5.8c-20.3-3.9-39.6-10-57.6-20c-7.8-4.4-14.8-10.1-21.9-15.5c-1.5-1.1-2.9-3.7-2.7-5.3
	c2.4-19.4-1.6-38.1-5.7-56.8c-3.7-17.1-7.3-34.2-5.6-51.9c1.2-12,3.5-23.4,13.5-31.7c1-0.8,1.7-3,1.5-4.3
	c-4.8-25.6-9.3-51.3-15-76.8c-3-13.7-10.5-25.7-18.1-37.6c-22.5-34.7-38.4-72.2-48.1-112.3c-5.8-24-5.4-47.9,6.1-70.6
	c5.9-11.7,14.3-21.5,23.2-30.9c1.9-2.1,3.6-4.4,5.9-6.1c14.2-10.9,17.4-26.9,20.1-43.1c6.7-38.8,3.7-77.3-3.8-115.6
	c-8.8-44.7-18.7-89.2-27.7-133.8c-3.7-18.2-6.2-36.7-9.4-55c-5.1-29.5-10.4-58.9-15.6-88.3c-6.2-35.3-9.3-70.6-2.3-106.1
	c1.4-7.2,4.2-14.4,7.6-21c11.2-21.1,34.9-21.8,51.9-12.5c16.6,9.1,24.9,23.9,28.9,41.2c6.3,27.2,11.9,54.5,16.9,82
	c11,61.1,24,121.7,43,180.8c5.6,17.4,10.5,35,16.5,52.2c1.8,5.3,5.8,10,9.6,14.3c3.2,3.7,9.7,3.9,13.9,1.4c0.9-0.5,1.4-2,1.6-3.1
	c0.5-2.7,0.2-5.6,1-8.1c11.4-37.5,23.5-74.9,34.2-112.6c4.8-16.9,6-34.8,10.5-51.8c5.6-21.4,12.7-42.3,19.3-63.4
	c7.9-25,16-50,24.2-74.9c5.8-17.9,12.8-35.4,23.8-50.9c12.4-17.6,28.8-28.7,50.6-31.4c17.7-2.1,31.3,7.5,36.1,26.4
	c5,19.8,4.5,39.7-0.7,59.3c-5.4,20.6-12.9,40.6-18.1,61.2c-6.9,27.3-12.2,55-18.6,82.5c-6.7,28.8-14.6,57.4-20.7,86.3
	c-3.7,17.7-5.2,35.8-7.6,53.8C636.8,446.5,637,448.7,637,451.3z M627.5,654.7c1.1-1.4,2.2-2.8,3.3-4.1c-3.4-0.4-6.4-4.7-8.4-0.1
	c1.5,1.5,2.7,2.8,3.9,4.1c-3.3-0.2-6.7-0.4-10-0.6c-0.2,0.8-0.4,1.5-0.6,2.3c3.4,1.6,6.9,3.2,11.3,5.2
	C627.2,658.4,627.4,656.5,627.5,654.7z M603.1,677.4c-0.4,0.4-0.8,0.7-1.1,1.1c-2.1-0.8-4.2-1.5-6.3-2.4c-3.4-1.5-6.5-1.9-9.6,0.8
	c3.3,2.2,6.5,4.4,9.6,6.5c-7.6-2.1-14.3-8.1-23.8-2.1c8.1,0.7,15.5,0.3,19,8.2c-0.3,0.3-0.6,0.6-0.9,1c-2.8-1.4-5.5-2.8-8.9-4.5
	c1.2,4.2,2,7.1,3,10.6c-8.3-1.2-15.7-2.2-23-3.2c0-0.7,0-1.4,0.1-2c5.7-0.4,11.3-0.7,17-1.1c-1.8-1.4-3.7-1.9-5.5-2
	c-4.5-0.1-9,0.3-13.5-0.1c-2.9-0.3-4.4,0.8-5.3,3.3c-3.1,9.4-6,18.9-9.2,28.3c-1.3,3.7,0.3,6,2.9,8.2c7.3,5.9,15.5,8.1,24.7,6.7
	c15.6-2.3,31.5-17.5,32.8-31.4c-2.6-1.5-5.3-3-7.9-4.6c1.1-1,1.9-1.1,2.4-0.8c2.1,1.2,4.2,3.3,6.3,3.4c1.1,0.1,2.4-3.4,3.4-5.4
	c4-7.6,8-15.3,11.9-22.8c-14.6-9.2-14.6-9.2-17.7-5.7c1.5,1.7,3,3.4,4.5,5.1c-0.3,0.3-0.7,0.7-1,1c-1.5-0.7-2.9-1.6-4.4-1.9
	c-1.8-0.4-3.8-0.3-6.7-0.4C599.1,673.9,601.1,675.7,603.1,677.4z M675.7,567.1c1.8-3.5,3.6-7,5.3-10.6c1.3-2.7,1-4.4-2.2-5.8
	c-3.6-1.6-6.8-4.1-10.2-6.3c0.3-0.5,0.5-1,0.8-1.5c4.7,2.1,9.4,4.1,14.7,6.4c-0.2-10.5-10.9-9.6-14.9-15.2c0.2-0.4,0.4-0.8,0.6-1.2
	c5.6,2.2,11.2,4.3,17.3,6.7c1.1-12.2-10.8-10.5-16.2-16c8.1-3.9,12.4,4.7,19.1,5.1c1.7-3.5,0.7-6.5-1.8-8.5c-2.5-2-5.7-3.3-8.6-4.9
	c-2.8-1.5-5.6-3-9.2-4.9c9.5-3.6,14.1,4.9,20.9,6.3c0.4-0.9,0.6-1.4,0.7-1.9c0.1-1,0.1-2,0.2-3c1.3-12.5-4.5-22.9-10.5-33.1
	c-1.3-2.2-2.7-4.9-4.8-6.2c-22.9-14.5-45.4-14.3-64.2,6.5c-12.4,13.7-19.7,30.3-24.7,47.9c-2.6,9.2-4.4,18.6-6.8,28.6
	c3.2,0,5.3-0.1,7.5,0c9.5,0.3,19-0.1,28.4,1.2c14.9,2.1,27.4,8.5,32.4,24.2c1.5,4.6,1.7,9.8,7.6,11.3c0,0-0.1,0.5-0.2,1.1
	c-1.8-0.3-3.5-0.7-5.7-1.1c-2.9,17.2-10.4,32.5-18.2,47.8c3-2.6,5.7-5.3,7.1-8.6c4.1-10.1,9-19.6,15.6-28.3c3.2-4.2,5.4-9.2,8.2-14
	c-4.8-2.5-8.5-4.4-12.3-6.4c0.3-0.6,0.6-1.2,0.9-1.9c4.2,2.1,8.4,4.2,12.7,6.4c1.7-2.9,3.4-5.8,5.1-8.6c-5.8-3.4-11.1-6.6-17.5-10.4
	c8.9-1.1,13.5,4,18.5,8.6C673,573.1,674.4,570.1,675.7,567.1L675.7,567.1z M665.7,615.1c-0.6,0.5-1.1,0.9-1.7,1.4
	c-1.7,0.1-3.4,0.3-5.6,0.4c-2.9,9.3-10.9,15.8-13.3,26.3c-2.3,10.3-8.4,19.8-13.1,29.5c-5.8,11.8-12.3,23.2-17.7,35.2
	c-6,13.5-8.6,27.7-5.9,43.8c2.5-6.5,4.5-11.8,6.7-17.2c0.9-2.2,1.8-4.9,3.5-6.3c12.6-9.8,33.2-1.3,37.3,15.3
	c2.1,8.2-0.2,14.9-6.6,21.7c1-3.7,1.9-6.2,2.3-8.7c1.3-7,1.1-14-2.7-20.3c-4.1-6.9-10.4-9.1-18.2-9c-6.9,0.1-11.1,3.6-13,9.6
	c-2.1,6.7-5,13.9-4.5,20.6c1.2,16.5,4.4,16.9,17.6,15.5c4.9-0.5,9.7-2,15.8-3.3c-8.8,7.8-17.9,8.2-27.7,6.4c2.3,1.9,4.7,3.8,7.4,4.5
	c9.5,2.6,16.9-2.1,23.6-7.7c11.9-9.8,20.5-22.2,27.2-36c1.2-2.5,1.1-3.8-1.7-5c-1.8-0.7-3.2-2.3-4.8-3.5c0.3-0.4,0.6-0.9,0.9-1.3
	c1.4,0.3,2.9,0.9,4.3,0.8c1.7-0.1,3.3-0.8,5-1.2c-1.2-1.5-2.2-3.2-3.6-4.4c-1.5-1.2-3.3-2-5-3c0.3-0.7,0.6-1.3,0.9-2
	c2.3,0.6,4.5,1.3,6.8,1.6c1.3,0.2,2.7-0.3,4-0.5c-0.4-1.5-0.3-3.4-1.2-4.4c-1-1.2-2.9-1.5-4.3-2.4c-1.6-1-3.1-2.2-4.7-3.4
	c0.3-0.6,0.7-1.2,1-1.8c4.2,1.6,8.4,3.2,12.7,4.8c1-2,1.8-3.9,2.6-5.5c-4.4-2.4-8.3-4.5-12.2-6.7c0.3-0.6,0.6-1.2,0.8-1.9
	c2.3,0.6,4.7,0.9,6.7,2c2.2,1.2,4.1,3.1,6.3,4.8c2.2-3.5,4.1-6.8,6.4-9.8c5.9-7.7,6-8.4-0.8-15.3c-1.6-1.7-3.3-3.3-4.8-5.1
	c-0.8-1-1.1-2.3-1.6-3.5c0.4-0.3,0.8-0.5,1.2-0.8c4.7,4.1,9.4,8.2,14.6,12.8c3.4-12.4-10.1-15.1-12.3-24.2
	c8.1,3.2,12.3,10,17.8,17.6c0.5-3.6,1.4-5.8,0.8-7.4c-1.1-2.9-2.9-5.5-4.7-8c-2.6-3.4-5.5-6.5-8.3-9.7c8.7,2.1,13.2,8.2,15.8,15.8
	c5-3.6,4.8-7.2,1.5-11c-1.9-2.1-4-4-5.9-6.1c-2-2.1-4-4.1-6.6-6.9c10.4,0.1,13.3,8,18.6,13.6c0.4-2.1,0.8-4.4-0.2-5.8
	c-2-3-4.7-5.5-7.1-8.2c-2-2.2-4-4.5-6.1-6.7c9.1,0.6,12.7,7.4,17.2,14.9c3.1-8.3,5.8-15.6,8.5-22.9c1.1-2.9,0.1-4.6-2.3-6.7
	c-4.2-3.6-7.7-7.9-11.5-12c8.8-0.8,10.6,7,15.1,11.1c3.9-3,4.5-6.4,2.9-10.5c-0.7-1.9-1.1-3.8-1.7-5.7
	c-4.6-13.1-14.4-22.7-22.3-33.5c-0.5-0.7-1.7-1.4-2.5-1.4c-6.4,0.1-12.9,0.3-19.3,0.6c-0.2,0-0.3,0.5-0.5,0.7
	c1.1,0.6,2.1,1.3,4.2,2.5c-5.2,1-9.2,1.9-13.3,2.7c0,0.4-0.1,0.9-0.1,1.3c2.8,0.7,5.6,1.4,8.5,2c-0.1,0.4-0.1,0.9-0.2,1.3
	c-2.1,0.2-4.2,0.3-6.2,0.7c-2,0.4-3.8,1.1-5.8,1.7c0.1,0.4,0.1,0.8,0.2,1.1c2.4,0.8,4.9,1.6,8.3,2.7c-4.9,2.5-10.4-0.4-13.2,5.1
	c1.6,1,3.1,1.9,5.2,3.2c-4.3,0.3-8.3,0-9.8,4.5c3,0.9,5.4,1.6,7.8,2.3c-0.1,0.3-0.1,0.7-0.2,1c-3.2,0.8-6.3,1.5-9.2,2.3
	c1.2,1.3,2.2,2.4,3.2,3.4c-0.2,0.2-0.4,0.4-0.7,0.6c-3.4,1.1-6.7,2.3-10.8,3.7C663.6,613.6,664.6,614.4,665.7,615.1z M734.5,728.2
	l0,0.1c3.3-2.1,3.9-5.5,4.2-9.1c0.2-2.8,0.7-5.6,1.1-8.4c1.1-9.4,2.2-18.7,3.3-28.4c-6.8,0-13.3-0.2-19.7,0.1
	c-3.4,0.1-7,0.4-8.5,5.1c7.7,2.6,16.5-3.1,23.3,3.9c-7.5,0.6-14.9,0.7-22.2-0.4c-3.3-0.5-5,0.1-6.4,2.7c-4.1,7.2-8.7,14.2-12.2,21.7
	c-9.9,21.3-16.3,44.5-35.3,60.7c1.3,0.9,2.1,1.5,3.1,2.2c-3.7,1.7-8.8,0.6-10.2,6.2c2.4,0.1,4.3,0.3,6.1,0.4c0,0.2,0,0.3,0,0.5
	c-6,1.6-12.1,3.2-18.1,4.7c0.1,0.6,0.2,1.2,0.3,1.8c5.4,0,10.8,0,16.2,0c-11.6,4.7-23.1,4.8-34.5,0.6c-12.3-4.5-20.7-12.9-24.1-25.7
	c-9.6,1.5-9.6,1.5-11-1.2c3.3,0,6.4,0,9.8,0c-1.4-8.3-2.8-16.1-4.3-24.9c-12.9,11.4-26.9,8.8-41.2,7.8c1.8,1.9,3.8,4.1,6,4.2
	c5.6,0.3,11.2-0.2,16.8-0.6c4.6-0.3,9.2-1.1,13.8-1.6c0.1,0.5,0.1,1.1,0.2,1.6c-10.4,6.8-23.2,2.2-35,6.6c6.8,4.5,13,2.4,19.2,1.5
	c4.7-0.6,9.5-0.7,14.3-1.1c0.1,0.9,0.2,1.7,0.3,2.6c-5.3,0.9-10.5,2-15.8,2.5c-5.4,0.6-10.8,0.6-15.9,0.8c0.8,16.2,1.5,31.6,2.5,47
	c1.7,28.3-3.7,54.4-24,75.7c-9.3,9.8-20.5,16.6-33.6,20.2c25.7-13.1,41.5-33.5,45.7-62.3c-2,3-3.7,6.2-5.6,9.3c-1.9,3.1-4,6.1-6,9.1
	c3.4-13,13.2-23.5,12.4-37.8c-3.3,6.8-6.7,13.5-10,20.3c-0.6-0.3-1.2-0.6-1.8-0.8c2.4-6.1,5-12.2,7.1-18.5c2-6,3.8-12,4.7-18.2
	c0.4-2.8-1.7-6-2.6-8.9l0.1,0.1c1.4-7.1,2.2-14.2,0.1-21.4c-1.6,7.6-1.2,15.7-7.4,21.6c-0.2-3.7,0.2-7.2,1-10.7
	c1.7-7.3,3.8-14.5,5.3-21.8c1-4.8,0.8-9.7-2.6-14.7c-2.7,11.2-2,22.5-8.6,31.9c-0.2-1.9-0.1-3.8,0.3-5.7c1.8-8.9,4-17.8,5.5-26.8
	c0.7-4.5,0.6-9.2-3.1-13.9c-3,14.7-2.2,29.4-10.8,41.6c0.7-5.6,2.3-10.9,3.1-16.4c1.5-9.3,2.7-18.7,3.6-28c0.2-2.7-1.1-5.6-1.8-8.4
	c-0.5,0.1-0.9,0.2-1.4,0.3c-0.1,11.8,0.3,23.7-6.4,34.1c0.8-7.6,2.4-15.1,3.2-22.7c0.8-7.4,1.2-15-3.4-21.6c-0.9,5.5-1,11-1.6,16.4
	c-0.6,5.4-1.1,11-5.5,16.2c0-15.9,5.2-30.6,1.2-45.6c-4.6,1.8-5.4,3.4-5.6,9c-0.5,9.8-0.6,19.6-2,29.2c-1,7-3.9,13.7-5.9,20.5
	c-0.6-0.2-1.2-0.3-1.8-0.5c0.1-17.3,9.4-33.9,3.7-51.8c-2.3,5.3-3.8,10.7-4.9,16.2c-1.5,8-2.4,16.1-4.2,24c-0.6,2.8-2.9,5.2-4.4,7.8
	c-0.4-0.2-0.8-0.4-1.2-0.6c2.7-13.3,7.1-26.4,5.9-41.3c-7.4,7.4-1.9,18.4-8.8,24.8c-0.5-0.1-0.9-0.2-1.4-0.4
	c0.7-5.5,1.4-11.1,2-16.6c-0.6-0.1-1.2-0.1-1.7-0.2c-7,8.1-4.1,20.9-12.4,28.4c0.5-3.2,1.5-6.1,2.2-9.2c0.6-3,0.8-6.1,1.2-9.2
	c-0.5-0.1-1.1-0.3-1.6-0.4c-4.8,6.2-9.6,12.4-14.6,19c-0.4-1.9-0.6-3.1-0.9-5c-1.5,1.5-2.4,2.2-3.2,3c-9.7,9.6-19.1,19.6-29.2,28.7
	c-8.1,7.3-17.6,12.5-29,13.2c7.4-5.8,14.7-11.5,22.4-17.6c-1.8-1-2.5-1.4-4.8-2.7c12.9,0.3,14.5-11.1,21.4-16.6
	c-6.3,0.8-12.7,1.7-19,2.5c4.3-2.4,8.9-3.3,13.2-4.9c4.1-1.5,7.8-3.8,11.7-5.8c-0.2-0.4-0.5-0.9-0.7-1.3
	c-12.4,1.7-24.8,3.1-38.3,0.1c15.6-2.5,31.2,0.8,44.5-8c-13.7-1.5-27.7,1.3-40.6-5.1c8.2-0.2,16.3,0.2,24.5,0.8
	c14.9,1,19.7,0.5,23.7-3.2c-10.6-0.7-21.5,0.4-30.4-6.8c13.1,2,26.1,5.5,39-0.8c-8.9-2.3-19.1-0.4-25.7-8.9c11.2,1,21.8,8.1,33.4,2
	c-2.9-1.4-5.9-1.9-8.7-3.1c-4.7-1.9-5.1-2.7-5.7-6.4c7.6,2.5,15,6.7,23.6,3.1c-1.8-1.6-3.9-2.5-5.9-3.7c-2-1.2-3.8-2.6-5.7-3.9
	c0.4-0.7,0.8-1.4,1.2-2.2c5.3,2,10.6,4.1,15.9,6.1c0.3-0.4,0.5-0.9,0.8-1.3c-1.1-1.3-2.2-2.7-3.4-3.9c-1.2-1.2-2.7-2-3.7-3.3
	c-0.6-0.9-0.3-2.3-0.4-3.5c1.1,0.2,2.3,0,3.1,0.6c1.8,1.2,3,3.3,4.9,4.1c1.9,0.8,4.2,0.5,6.4,0.7c-0.9-1.7-1.6-3.6-2.8-5.1
	c-0.9-1.1-2.6-1.6-3.6-2.6c-0.8-0.8-1-2.1-1.5-3.1c0.4-0.4,0.8-0.8,1.2-1.2c2.3,1.5,4.6,3.2,7,4.5c2.1,1.2,4.3,2.2,6.7,2.7
	c0.9,0.2,2.4-1,3-2c0.3-0.5-0.7-2-1.4-2.8c-1.1-1.3-2.5-2.3-4.3-3.9c5.9-2.7,9.5,5.7,14.9,1.6c-1.9-2.9-3.7-5.6-5.5-8.2
	c0.4-0.3,0.8-0.5,1.3-0.8c3.1,1.9,6,4.1,9.2,5.4c1.5,0.6,3.8-0.2,5.5-0.9c0.4-0.2-0.3-2.8-0.6-4.2c-0.1-0.9-0.3-1.7-0.6-3.2
	c3.9,1.5,7.3,2.8,10.6,4c0.3-0.6,0.7-1.2,1-1.8c-2.3-3.1-4.6-6.2-7-9.3c0.5-0.4,1-0.9,1.6-1.3c1.5,1.2,2.9,2.3,4.4,3.5
	c1.8,1.5,3.4,3.3,5.4,4.3c1,0.5,2.6-0.3,4-0.6c-0.4-1.2-0.5-2.5-1.2-3.4c-1.4-1.8-3.1-3.3-4.7-4.9c7.5-0.1,12.8,8,22.2,1.1
	c-3-1.5-6.1-3.1-9.1-4.6c0.7-0.8,1.3-1.7,2-2.5c2.6,1.3,5.3,2.6,7.9,4c2.8,1.5,5.6,2.8,8.5,0c-2.1-2.7-3.9-5-5.7-7.3
	c0.4-0.3,0.7-0.7,1.1-1c0.8,0.2,1.6,0.3,2.3,0.7c2.1,1.3,4,3.2,6.2,4c1.4,0.5,3.4-0.3,5.1-0.5c-0.8-1.4-1.4-2.9-2.3-4.2
	c-1-1.4-2.2-2.6-3.9-4.5c7.4-0.4,12.2,9.2,18.9,2.2c-2.6-2.2-4.9-4.1-7.2-6c6.2-2.4,10.3,5.4,17.2,0.8c-3.9-2.2-7.1-4-10.4-5.8
	c0.3-0.7,0.6-1.3,0.9-2c3.4,0.9,6.8,2,10.2,2.8c3.9,0.9,7.4,0.8,8.3-4c-3-1.2-5.8-2.3-8.6-3.4c0.2-0.6,0.5-1.2,0.7-1.8
	c2.9,0.5,5.8,1.2,8.7,1.6c3.6,0.4,6.2-0.7,6.2-5c-2.4-0.5-4.6-0.9-6.8-1.3c0-0.5,0-1,0-1.5c2.9-0.3,5.8-0.4,8.6-1
	c1.4-0.3,3-1,3.9-2.1c2.2-2.5,4.1-5.2,5.9-8c1.4-2,2.6-4.2,3.8-6.4c-0.4-0.3-0.7-0.6-1.1-0.9c-4,1.8-7.9,3.7-12,5.4
	c-14.1,5.9-28.5,10.2-44.1,7.5c-10.8-1.8-18.1-8.1-20-18.9c-1.3-7.5-1.5-15.2-1.4-22.8c0.1-4.3-1.1-6.8-5.3-8.3
	c-0.6,1.5-1.1,2.9-1.8,4.8c-2-1-3.7-1.8-5.6-2.7c-0.4,2-0.8,3.8-1.1,5.6c-2.5-1.7-4.5-3.1-6.6-4.5c-0.3,0.4-0.6,0.8-0.9,1.1
	c0.3,1.8,0.6,3.7,0.9,5.3c-4.3,2.5-4-7.2-8.7-2.7c0.6,2.6,1.2,5.1,1.7,7.6c-0.6,0.2-1.1,0.5-1.7,0.7c-1.8-2.6-3.6-5.3-5.4-7.9
	c-0.3,0.2-0.6,0.3-0.9,0.5c0.3,3.8,0.6,7.6,0.8,11.4c-0.6,0.1-1.3,0.2-1.9,0.3c-0.8-2.4-1.3-5.1-2.5-7.2c-0.7-1.3-2.7-1.9-4.1-2.8
	c-0.5,1.3-1.4,2.6-1.4,3.8c0,3.5,0.3,7,0.5,10.5c-0.3,0-0.6,0-0.9,0.1c-1.5-3.9-3.1-7.8-4.6-11.7c-0.6,0.2-1.1,0.3-1.7,0.5
	c0,4.3,0,8.6,0,14c-2.4-4.6-4.2-8.3-6.1-11.9c-0.5,0.1-1.1,0.3-1.6,0.4c0.3,4.1,0.6,8.2,1,13.7c-1.4-3.6-1.8-6-3.1-7.7
	c-1.1-1.4-3.4-2-5.1-2.9c-0.6,1.8-1.6,3.5-1.7,5.3c-0.2,2.1,0.4,4.2,0.7,6.4c-0.3,0.1-0.7,0.1-1,0.2c-1.6-2.1-3.3-4.2-5.6-7.3
	c-0.5,3.7-0.7,5.8-1.1,8.2c-2.2-1.6-3.8-2.8-6.1-4.4c-0.3,3.6-0.5,6.1-0.7,8.8c-2.6-1.5-4.9-2.7-7.7-4.3c-0.4,2.9-0.7,4.6-0.9,6
	c-2.1-0.4-4.4-1.5-5.6-0.8c-1.1,0.7-1.1,3.3-1.5,5c-1.6-0.6-4.2-2.4-4.9-1.8c-1.4,1.2-1.7,3.5-2.1,4.5c-2.3-0.2-4.3-0.3-6.3-0.5
	c0,2.2,0,4.3,0,7.2c-1.8-1.9-3.2-3.3-5.2-5.5c-0.5,2.9-0.9,4.9-1.3,7.1c-4.8-3.9-4.7,0.4-5.1,2.1c-3.8,2.5-6.7,4.4-10.3,6.8
	c1,2.6,2.1,5.6,3.5,9.3c-1.8-1.5-2.9-2.8-4.3-3.5c-1.5-0.7-3.3-0.7-5-1c0.1,1.8-0.3,3.8,0.3,5.4c0.7,2.1,2.2,4,3.4,5.9
	c-2.5-1.1-4-2.9-6-4c-1.7-0.9-3.8-1.1-5.7-1.6c0.5,1.9,0.8,3.9,1.7,5.6c1,1.9,2.5,3.5,3.8,5.2c-0.4,0.4-0.9,0.7-1.3,1.1
	c-1.6-1.5-3-3.2-4.8-4.4c-1.5-1-3.4-1.4-5.2-2.1c0.5,1.9,0.6,3.9,1.5,5.6c0.9,1.6,2.5,2.9,3.8,4.3c-0.4,0.3-0.7,0.7-1.1,1
	c-2.1-1.5-4.1-3.4-6.4-4.5c-1.5-0.7-4.3-0.9-5.2-0.1c-1,1-1,3.6-0.5,5.3c0.8,2.3,2.4,4.4,3.7,6.6c-2.5-1-3.8-3.1-5.7-4.2
	c-1.5-0.9-3.7-0.6-5.6-0.9c-0.2,1.7-0.8,3.5-0.6,5.2c0.3,1.7,1.5,3.3,2.2,4.9c-0.8,0.7-1.7,1.4-2.5,2.1c-1-1.9-1.7-4.1-3.2-5.5
	c-0.8-0.8-3.1-0.8-4.3-0.2c-0.7,0.3-0.8,2.6-0.5,3.9c0.4,1.6,1.4,3.1,2.2,4.6c-0.4,0.3-0.8,0.6-1.2,0.9c-0.5-0.8-1.1-1.6-1.4-2.5
	c-1.5-3.8-3.5-3.8-6.3-1.2c-3.4,3.2-7,6.2-10.5,9.2c-13.1,11.5-25.2,23.8-32.2,40.1c-2,4.6-4.6,9.3-5.1,14.1
	c-1.1,11.6,6.1,18.3,15.7,23.2c2.9,1.5,5.8,3,8.8,4.6c-11.7,2.2-17.8-5.4-24.3-14.1c0,2.2,0,2.9,0,3.5c1.9,23,10,44.3,18,65.6
	c0.4,1.2,2.4,2.5,3.6,2.5c8,0,16,0.4,23.8-0.7c20.2-2.9,37-13.4,52.8-25.7c3.5-2.7,7.1-5.4,10.6-8.1c-22.8,26.9-50.7,41.9-87.6,36.4
	c2.8,6.3,5.1,11.6,7.5,16.9c6.7,15.2,12.7,30.8,20.4,45.5c11.2,21.6,28.3,32.4,49.1,32.9c-0.8-0.7-1.5-1.2-1.3-1
	c7.8-0.6,16.4-0.8,24.9-2c8.5-1.2,16.9-3.4,26-5.3c-11.1,9.6-24.6,8.4-37,11.3c10.4,3,20.2-0.1,30-2.5c8.4-2,16.8-3.9,25.3-5.4
	c1.6-0.3,3.5,1.6,5.2,2.4c-0.1,0.4-0.3,0.8-0.4,1.2c2.5-0.7,5-1.5,8.7-2.6c-12.4,12.2-35.2,19.8-49.5,17.1c6.4-1.6,13-3.2,19.6-4.8
	c-0.1-0.4-0.2-0.8-0.3-1.2c-10.5,1-21.1,2.2-31.6,3c-14.5,1-29,1.1-42.4-5.9c-0.9-0.5-1.9-0.7-3.4-1.2c0.3,1.6,0.4,2.6,0.7,3.5
	c10.3,32,16.7,64.7,18.6,98.3c0.3,4.5-0.6,10.6,1.8,13.1c2.9,2.9,8.9,3.4,13.6,3.9c21.3,2.3,42.7,4.7,64,6.1
	c43.6,3,87.2,3.3,130.5-3.1c22.1-3.3,43.7-8.6,63.6-19.3c2.6-1.4,4.9-3.1,8.6-5.4c-14.1-3.1-26.6,4.4-40.5,0.2
	c3.3-0.6,5.2-1.1,7.1-1.3c4.5-0.5,9-0.6,13.4-1.3c4.8-0.8,9.4-2.1,11.1-8.2c-9.1-2.5-17.8,4.6-27,0.8c8.5-2.4,16.6-4.6,25-7
	c-1.1-2.5-1.9-4.6-2.7-6.5c-13.3,2.6-19.5,2.6-24.8-0.4c5-0.5,9.5-0.8,13.9-1.4c6.6-0.9,8.7-2.7,9.1-8.2c-4.1,0.3-8.2,0.6-12.3,0.7
	c-3.9,0.1-7.8-0.2-11.6-0.4c17.4-2.7,20.3-3.8,21.1-8.9c-6.7,0.5-13.5,1-20.3,1.4c-0.1-0.6-0.1-1.3-0.2-1.9c1.7-0.3,3.5-0.5,5.2-0.9
	c4.2-1,8.5-1.8,12.5-3.2c1.6-0.6,2.6-2.8,3.9-4.2c-0.3-0.5-0.6-0.9-1-1.4c-4.5,0-9,0-14.7,0c6.1-3.3,14.3-1,15.9-10.1
	c-6.7,0-11.7,5.4-19.2,1.9c4.8-1.8,8.4-3.1,12-4.4c0.5-0.6,1-1.2,1.4-1.8c-2-1-3.9-2-6.5-3.2c15.5-5,13.5-19.1,19-29.9
	c-13.8,0.4-26.6,3.2-38.8-2.2c3-0.8,6-1.3,8.9-1.3c9.2,0.2,18.3,0.6,27.5,1c2.5,0.1,3.7-0.4,4.7-3.1c3.2-9.3,6.7-18.4,10.3-27.5
	c6.2-15.6,13.1-30.9,18.9-46.6c2.8-7.8,3.6-16.3,2.4-25c-10.6,2-20.6,3.8-29.8-2.3c0-0.6,0.1-1.1,0.1-1.7
	c10.2,0.9,20.5,1.9,30.9,2.8c0.6-7,1.1-13.4,1.6-20.2c-16.9,1.3-32.9,2.9-48.3-2.4c0-0.7,0.1-1.4,0.1-2.1
	c15.9,1.1,31.7,2.1,48.1,3.2c0.5-3.3,1.1-6.5,1.7-10.4c-16.1,1.4-31.2,2.4-45.9-2.6c4.6-0.9,9.2-1.4,13.7-1.2
	c9.5,0.5,18.9,1.4,28.4,2.1c2.2,0.2,4.4,0.1,4.7-3c0.4-4.9,1.1-9.8,1.6-14.9c-10.8-1.1-22.3,3.6-32.1-3.6c0.1-0.5,0.1-0.9,0.2-1.4
	c11,0.9,22.1,1.8,33.2,2.7c1.4-7.3,2.7-14,4.1-21.4c-10.3,0.7-20.2,3.5-29.8-1.1c1.7-0.7,3.4-1.1,5.2-1c6.5,0.2,13,0.8,19.4,0.9
	c1.9,0,4.9-0.4,5.5-1.6c1.3-2.5,1.5-5.7,2-8.6C736.3,729.1,735.1,728.6,734.5,728.2z M687.8,132.1c1.6-3.5,10-2.8,4-9
	c-0.1-0.1,0.4-0.8,0.7-1.1c3-3.4,1.5-5.4-1.3-6.2c0.7-1.7,1.9-3.2,1.8-4.5c-0.3-3.6-1.2-7.2-1.7-10.8c-0.8-5.5-3.3-10.3-8.9-11.4
	c-7.7-1.5-15.6-1.8-23.4-2.7c-0.1,0.6-0.2,1.2-0.3,1.8c3,0.7,6.1,1.4,10.4,2.3c-8.7,2.8-17.5-1.2-24.8,4.9c1.9,1,3.1,1.6,4.8,2.4
	c-12.8,2.3-12.8,2.3-14.8,6.1c2.2,0.5,4.3,0.9,7.6,1.6c-1.9,1-2.8,1.9-3.5,1.8c-9-1.5-12.6,4.9-16.5,11.1c-1.3,2.1-3.1,3.9-4.5,6
	c-4.3,6.5-8.1,13.1-6.6,20.1c-2.1,2.8-4.4,4.7-5,7c-0.5,1.9,1,4.4,1.7,6.7c-0.8-0.2-2.2-0.5-3.3-0.7c-4.6,5.1,0,7.5,2.8,10.6
	c-1.3,0-2.3-0.4-3.3-0.6c-1.2-0.1-2.4,0-3.6,0c0.1,1.5-0.1,3.3,0.6,4.6c0.5,1,2.2,1.2,3.3,1.9c1.3,0.9,2.5,1.9,3.8,2.9
	c-0.3,0.5-0.6,0.9-0.8,1.4c-1.8-0.9-3.6-2-5.5-2.6c-1.1-0.4-3.3-0.4-3.6,0.1c-0.6,1.1-0.8,3.2-0.1,4.1c1.1,1.5,3,2.5,4.6,3.7
	c1.2,0.9,2.4,1.8,3.5,2.7c-0.2,0.4-0.4,0.9-0.6,1.3c-3.1-0.8-6.3-1.6-9.6-2.4c-0.6,2.6-1,4.6-1.4,6.2c3.4,2.4,6.4,4.5,9.4,6.5
	c-0.4,0.7-0.8,1.3-1.2,2c-2.9-1.2-5.8-2.5-8.7-3.7c-3.2,7.3-3.2,7.2,3.1,11c1.8,1.1,3.2,2.7,4.8,4.1c-0.3,0.5-0.7,1-1,1.5
	c-3.1-1.2-6.2-2.4-9.4-3.7c-3.3,4.5-1.9,7.7,2.5,10.1c3.6,2,7.4,3.7,11.1,5.5c-0.2,0.6-0.5,1.2-0.7,1.7c-4.6-1.5-9.3-3-13.9-4.6
	c-1.8-0.6-3.5-2.1-4.7,1.1c-5.1,14.1-10.8,27.9-15.3,42.2c-3.7,11.5-6,23.4-8.7,34.2c6.1,3.7,10.9,6.7,15.7,9.6
	c-0.4,0.7-0.8,1.5-1.2,2.2c-4.8-2.4-9.6-4.9-14.8-7.4c-1.2,11.7,10,12.7,16.4,18.1c-8.2,2.2-12.4-4.7-19.2-6.9
	c1.6,13.4,15.2,11,21.3,18.2c-9.4,1.6-15.6-3.6-22.3-9.2c-14.5,50.1-32.2,98.7-38.7,149.9c4.3,1.6,8,3.1,11.8,4.5
	c0,0.5-0.1,1-0.1,1.5c-2.3,0.9-4.7,1.7-7.4,2.8c1,1.3,1.7,2.3,2.5,3.4c-2,0.2-4.2,0-4.8-1.2c-2.8-5.1-6.1-2.2-10-1.3
	c1.8,1.1,2.9,1.8,5,3c-19.5,3.9-36.9-5.7-55.3-4.1c3.1-2.3,6.2-3.7,9.6-4.5c3-0.8,4.3-2,3.3-5.2c-3.7-11.5-7.3-23-11.1-34.5
	c-3.8-11.4-8.2-22.7-11.9-34.2c-2.8-8.7-2.4-8.9-12.1-7.6c2.8-1.6,4.7-2.5,6.3-3.8c0.9-0.7,2.2-2.4,1.9-2.8c-0.7-1.1-2-2.1-3.3-2.4
	c-1.8-0.4-3.7-0.1-5.6-0.1c0-0.3-0.1-0.7-0.1-1c1.9-0.9,3.8-1.8,6.3-2.9c-1.4-4.8-2.8-9.6-4.4-15c-3.8,1.3-7.3,2.7-10.9,3.8
	c-3.4,1.1-6.8,1.9-10.2,2.8c-0.3-0.8-0.5-1.6-0.8-2.5c6.6-2.6,13.2-5.2,20.6-8.1c-3.8-15.6-7.9-32.7-11.9-49.6
	c-5.8,0.8-10.8,1.5-15.8,2.1c-0.1-0.7-0.2-1.3-0.2-2c4.3-4.3,9.8-1.5,15.3-2c-0.6-2.6-1.1-4.9-1.7-7.4c-5.5,0.2-10.6,3.8-15.7,1
	c0-0.7-0.1-1.3-0.1-2c5-0.4,10-0.8,15.3-1.2c-9.2-48.3-18.4-96.6-27.7-145.4c-8.2,3.3-14.3,9.7-22.8,7.5c-0.2-0.5-0.3-1-0.5-1.5
	c7.1-2.6,14.2-5.2,21.8-8c-0.5-2-1.1-4.4-1.9-7.4c-5.8,4.2-11.3,6.6-19.3,5.2c5.7-2.4,10.1-4.3,14.5-6.1c3.4-1.3,4.2-3.3,1.9-6.7
	c-2.1,0.8-4,1.6-6.1,2.2c-1.8,0.5-3.7,0.6-5.6,0.9c10.3-7.9,10.3-7.9,8.4-11.4c-1,0.5-1.9,1.1-3,1.5c-0.9,0.4-1.9,0.6-2.2,0.7
	c1.5-1.8,3.2-3.9,4.9-6c-1-0.6-2.1-1.2-3.1-1.8c3-5-5.8-13.5-15.9-18.9c-10.7-5.7-24.1-6.2-28.5,1.6c1,0.3,2,0.7,3.2,1.1
	c-4.1,3.9-12.3,1.2-13.5,9.6c3.8-0.4,7.3-0.8,10.7-1.1c-1.9,2-4,3.1-6.3,3.9c-1.9,0.6-4.2,0.3-5.7,1.2c-2.9,1.7-4.2,14.2-2.5,16.9
	c3.9-1.2,7.7-2.4,11.5-3.5c0.2,0.7,0.5,1.4,0.7,2c-4.2,1.7-8.4,3.4-13.4,5.4c-0.3,1.2-0.8,3.5-1.3,5.7c4.2-0.5,7.7-0.8,11.3-1.2
	c0.1,0.6,0.2,1.1,0.3,1.7c-3.6,1.4-7.3,2.8-11.4,4.3c-1.1,19.4,2,38.8,8.3,57.5c4.2-1,7.6-1.8,11-2.6c0.2,0.5,0.3,1.1,0.5,1.6
	c-2.2,1.2-4.2,2.6-6.5,3.4c-3.5,1.2-3.9,3.3-3.3,6.5c0.9,4.6,1.7,9.2,2,13.8c0.9,10.4,1.5,20.8,2.2,31.9c5.6-0.8,10.8-1.5,16-2.2
	c0.1,0.6,0.2,1.1,0.3,1.7c-5,0.9-10.1,1.9-15.2,2.8c0,1.9,0,3.9,0,6.3c3-0.9,5.5-1.9,8.1-2.5c2.4-0.5,5-0.5,7.5-0.7
	c-10.4,3.9-15.1,4.6-13.1,10.5c5.4-0.7,10.8-1.3,16.1-2c0.1,0.6,0.2,1.2,0.3,1.8c-2.9,1-5.8,2.3-8.9,2.8c-3,0.5-6.1,0.1-9.2,0.1
	c0.8,8.2,1.5,8.7,8.7,7.5c3-0.5,6-0.5,9-0.7c0.1,0.5,0.1,0.9,0.2,1.4c-4.2,1.1-8.5,2.2-12.7,3.5c-1.2,0.4-3.3,1.5-3.2,2.3
	c0.2,4.6,0.9,9.2,1.5,14c4.6-1,7.8-3.9,12.3,0.4c-4.6,0.7-8.2,1.3-12,1.9c12.1,78.6,26.2,156.5,45.9,234.4
	c7.5-9.6,16.7-14.2,27.2-16.6c-8.5,6.1-17.5,11.3-26.3,16.7c-1,0.6-1.7,2.5-1.7,3.8c0,1.5,0.9,3.1,1.6,5
	c8.4-4.7,14.1-13.7,24.6-14.8c-7.9,8.3-19.9,12.1-24,23.8c8.2-3.5,13.1-12.1,22.4-13.5c-6.1,5.9-12.4,11.4-18.6,17.2
	c-1.4,1.3-2.6,3.3-2.8,5.1c-2.1,17.2-3.9,34.3-6,51.5c-0.7,6.1-2.1,12.1-3.1,18.2c25.9-22.6,57.7-35.7,84.1-56.6
	c-4.4,2.1-8.6,4.7-12.8,7.2c-4.1,2.4-8.4,4.6-12.6,6.9c23.8-20.6,54.6-26.7,82.5-39.9c-4.2-7.9-8.1-15.3-12.1-22.8
	c5.4,6.3,10.3,12.8,15.4,19.1c0.8,1.1,2.8,2.1,4,1.9c4.5-0.9,8.8-2.4,13.7-3.8c-3.5-8.1-6.9-16.1-10.3-24.1
	c5.1,6.5,9.1,13.6,13.3,20.5c0.8,1.4,2.5,3.2,3.6,3.2c6.2-0.4,12.6-0.9,18-4.9c-0.7-1.5-1.4-2.9-1.8-3.8c2.1-1.5,4.8-2.6,5-3.9
	c0.2-1.6-1.9-3.4-3.3-5.5c2.7-0.3,4.5-0.6,7.6-1c-2.1-2.2-3.5-3.6-5.2-5.3c2-1.1,4-2.2,5.9-3.2c-1.8-1.8-3.5-3.5-5.1-5.2
	c2-0.2,4-0.5,6-0.7c0.3-0.3,0.5-0.7,0.8-1c-2.4-1.6-4.7-3.2-8-5.5c4.4-0.7,7.3-1.1,10.3-1.6c0-0.5,0-1.1-0.1-1.6
	c-3.3-1.7-6.7-3.3-10-5c0.2-0.5,0.4-0.9,0.6-1.4c3.7,0.2,7.5,0.5,11.7,0.8c-2.2-6.2-10.2-3.1-11.6-10c4.8,1.1,8.8,2,12.9,2.9
	c0.2-0.5,0.4-1.1,0.6-1.6c-6.5-3-13-6-19.5-9.1c0.2-0.5,0.4-1,0.6-1.6c7.1,2,14.1,4,20.7,5.9c1.8-3.5,3.2-6.4,4.6-9.3
	c-3.2-2-8.5-0.3-10.7-6.4c4.3,0.7,7.7,1.4,11.3,1.9c5,0.7,7.1-1.3,6.5-6.2c-1.8-0.4-3.5-0.8-6-1.3c3.7-2.3,8.3,2.7,10.6-3
	c-3.8-0.4-7.2-0.8-11.1-1.3c8.8-3.6,16.9-6.6,24.5-10.3c2.1-1,3.9-4,4.4-6.4c4.4-20.6,8.2-41.4,12.8-62
	c8.3-36.9,17.2-73.8,25.7-110.7c1-4.2,1.3-8.6,2-13.7c-6.5,3.7-12.2,3.5-18.5,0.6c1.2-0.6,1.7-0.9,2.2-1c5.4-0.7,10.9-1.3,16.6-2
	c0.4-2.1,0.8-4.3,1.3-6.9c-8.8,4.8-18.7,4.8-25.1,0.1c8.7-2.4,18.4,1.8,27.2-4.5c-7.9-1.7-15.4,3.4-23-2.5
	c5.8-0.6,10.5-1.2,15.2-1.7c8.6-0.9,9.3-1.4,11.1-9.5c1-4.4,0.2-5.1-4.3-4.2c-5.3,1.1-10.7,2-15.9-2c7.1-3.6,16.4,1.9,23.2-6
	c-5.7-1-10.8,0.1-13.9-5.6c2.6,0.3,4.5,0.6,6.5,0.8c1.8,0.2,3.7,0.7,5.4,0.2c1.3-0.3,2.3-1.9,3.4-2.9c-1.1-0.7-2.2-1.8-3.4-2.1
	c-2.2-0.6-4.6-0.5-6.9-1c-1-0.2-1.9-1.2-3-2c5.1-3.8,12,1.6,16.3-4.6c-5-2.5-11,0.5-15-5.2c6,0,11.1,0,16.4,0
	c0.7-2.3,1.3-4.4,2.3-7.7c-7.1,2.6-13.2,4.1-19.4-1c5.9-0.4,10.9-1.1,15.9-1c4.6,0.1,5.7-2.1,5.4-6.4c-7.9-0.8-16.6,3.5-24.7-3.9
	c9.8,0,18.1,0,26.5,0c0.9-2.7,1.7-5.1,2.7-8c-6.5,0.1-12.7,2.6-18.4-1.3c1.7-0.9,3.4-1.3,5.1-1.4c3.3-0.2,6.7,0,10-0.5
	c3.5-0.5,5.5-2.3,3.5-6.3c-5.6,0.6-11.4,2-16.4-2.6c4.6-0.9,9.1-1.2,13.6-0.8c5.5,0.5,6.9-2.3,7.2-7.1c-6.2-0.5-12.4,4-18.8-1.2
	c7.2-1.8,14.9-0.4,20.5-7.5c-5.5,0-9.8,0-14.2,0c5.3-4,14.1-1,16.5-10.1c-3.9,0.2-7.3,0.4-10.6,0.5c0-0.3,0.1-0.6,0.1-0.9
	c3.5-1.9,7-3.8,10.6-5.7c-0.2-0.6-0.5-1.1-0.7-1.7C691.7,132.1,689.8,132.1,687.8,132.1z M407,1124.7c0.3,6.2,1.4,11.5,0.6,16.4
	c-1.5,9.4,3.1,14.6,10.6,18.5c0.3,0.2,0.6,0.3,0.9,0.5c22.4,13.2,46.8,20.1,72.3,23.3c34.1,4.2,68.3,5.8,102.4-0.7
	c25-4.8,50.1-8.9,74.1-17.9c13.7-5.1,27-11.2,40.4-17.1c5.9-2.6,9.6-7.2,10.4-13.7c2.2-17.2,0.1-33.7-7.7-49.4
	c-1.6-3.1-2.8-6.9-2.7-10.2c0.3-7.3,1.6-14.5,2.5-21.7c0.8-6.5,0.6-12.8-2.5-17.9c-14.3,5.3-27.8,11.1-41.7,15.2
	c-36.1,10.7-73.3,14.6-110.8,15.4c-44.9,0.9-89.5-2-133.4-12c-8.7-2-17.3-4.3-27-6.7c0.4,8.1,0.2,15.6,1.1,23
	c1.6,13.4,7.5,25.4,13.5,37.4c3.7,7.3,6.9,14.8,10.8,23.1C415.6,1128.1,411.7,1126.6,407,1124.7z M573.2,597.4
	c3.1,5.2,5.9,10.2,9.1,15.1c0.7,1.1,2.3,1.8,3.6,2.1c11.2,2.5,22.4,2.4,33.5-1c15-4.6,22.4-15.6,20.8-30.9
	c-0.6-5.9-8.9-16.1-14-16.2c-19.4-0.3-39-1.1-58,4.1c-10.5,2.9-10.7,3-10.1,13.6c0.4,7,1,13.9,2.2,20.8c0.6,3.7,2.1,7.8,6.7,8.4
	c3.7,0.5,7.5,0.1,11.6,0.1C577.3,607.5,571,603.6,573.2,597.4z M726,667.3c5.1,0.7,9.4,1.3,13.7,2c0,0.5-0.1,1.1-0.1,1.6
	c-4.1,0.5-8.2,1.5-12.2,1.4c-4.5-0.1-5.9,2.2-7,6.4c6.4,0,12.4-0.2,18.3,0.1c4,0.2,5.4-1.3,5.3-5.1c-0.1-9.3,0-18.5,0-27.4
	c-3.4-1.3-5.5-2.2-8.1-3.1c-0.9,2.9-1.7,5.4-2.5,8c2.8,0.4,4.8,0.6,6.7,0.9c0,0.5-0.1,1-0.1,1.5c-1.7,0-3.4-0.3-5,0.1
	c-1.3,0.4-2.4,1.6-3.6,2.5c1,0.9,1.8,1.9,2.9,2.5c1.3,0.7,2.9,1,4.8,1.7C735.7,664.9,728.2,660,726,667.3z M540.9,711.9
	c4-8.8,7.3-16.3,10.7-23.8c-0.5-0.4-1.1-0.8-1.6-1.2c-3,1.7-8.2,3-8.7,5.2C540.1,698,540.9,704.4,540.9,711.9z M743.5,642.1
	c-0.3-6.1-0.6-11.8-0.9-17.5c-0.6,0-1.1,0.1-1.7,0.1c-1.2,5.7-2.3,11.4-3.5,17.4C739.5,642.1,741.1,642.1,743.5,642.1z M610.7,661.4
	c4.2,2.7,8,5.1,12.3,7.8C622.5,661.3,616.9,658,610.7,661.4z M634.4,641.5c-3.6,1.4-6,2.3-8.3,3.2c0.1,0.5,0.3,1,0.4,1.4
	c1.9,0.7,3.9,1.3,6.1,2.1C633.2,646.2,633.6,644.6,634.4,641.5z"/>
<path id="XMLID_1339_" d="M590.9,689.6c5.9,10.7,0.2,31.2-10.3,35.8c2.1-4.3,4.1-8.2,6-12.2c3.2-6.6,4.9-13.4,2.9-20.7
	c-0.1-0.5,0.3-1.2,0.5-1.9C590.3,690.2,590.6,689.9,590.9,689.6z"/>
<path id="XMLID_1334_" d="M665.7,615.1c3.7,0.1,7.4,0.2,11.2,0.2c0,0.7,0,1.4-0.1,2.1c-4.3-0.4-8.6,3.2-12.8-0.9
	C664.6,616,665.1,615.6,665.7,615.1z"/>
<path id="XMLID_1333_" d="M608.1,672.5c4.1,0.3,5.3,1.7,5.2,8.1c-2.1-2.4-4.2-4.7-6.3-7.1C607.4,673.1,607.7,672.8,608.1,672.5z"/>
<path id="XMLID_1330_" d="M672.8,607.9c2.9-2.6,5.3-0.8,7.8,0.4c-0.1,0.7-0.2,1.4-0.3,2c-2.7-0.6-5.4-1.2-8.1-1.9
	C672.4,608.3,672.6,608.1,672.8,607.9z"/>
<path id="XMLID_1329_" d="M603.1,677.4c2.1,1.5,4.1,3,6.2,4.5c-0.6,0.7-1.1,1.4-1.7,2.1c-1.9-1.8-3.8-3.6-5.6-5.4
	C602.4,678.2,602.7,677.8,603.1,677.4z"/>
<path id="XMLID_1328_" d="M589,954.5c-5.1-0.7-10.2-1.2-15.3-2.2c-21.5-4.2-43-3-64.6-0.5c-22.4,2.6-44.8,6.2-67.5,4.5
	c-2.6-0.2-5.2-0.6-6.7-0.8c30.2-2.8,61.3-6,92.5-8.6c18.8-1.6,37.5,0.9,56.1,4.1c1.3,0.2,2.4,1,3.7,1.5
	C587.7,953.2,588.4,953.9,589,954.5z"/>
<path id="XMLID_1327_" d="M500,983.4c39.8-5.9,81.1-3.2,122.2,3.7C580.9,985.8,539.6,984.6,500,983.4z"/>
<path id="XMLID_1326_" d="M589,954.5c-0.7-0.7-1.3-1.3-2-2c5.9,0.8,11.9,1.4,17.8,2.5c15.5,2.7,30.9,5.7,46.3,8.5
	c-0.8,0.2-2,0.6-3.1,0.7c-19.5,0.8-38.2-3.9-56.8-8.5C590.4,955.5,589.7,954.9,589,954.5z"/>
<path id="XMLID_1325_" d="M436.3,882.9c-14.5,9.7-49,7.2-60.9-3.4C395.8,885.7,415.6,885.8,436.3,882.9z"/>
<path id="XMLID_1324_" d="M619.5,937.3c18-2.6,35.5,1.5,54.1,3.5C659.4,943.9,635,942.4,619.5,937.3z"/>
<path id="XMLID_1323_" d="M413,822.2c-14.7,13.2-31.6,19.1-51.4,15.8C379.7,836.2,396.8,830.7,413,822.2z"/>
<path id="XMLID_1322_" d="M514.1,958.3c13.2-4.8,45.2-4.6,58.6,0C552.9,958.3,533.5,958.3,514.1,958.3z"/>
<path id="XMLID_1321_" d="M676.9,931.9c-14.8,2.9-29.4,1.5-45.3-2.5C642,926.7,663.5,927.9,676.9,931.9z"/>
<path id="XMLID_1320_" d="M569.5,803.9c13.3-2.1,26.7-4.2,40-6.3c0.1,0.4,0.2,0.9,0.2,1.3c-12.5,6.5-25.9,8.3-39.9,6.9
	C569.7,805.2,569.6,804.6,569.5,803.9z"/>
<path id="XMLID_1319_" d="M632.1,947.3c-15.7,0.6-30.8-1.7-45.3-7.6c0.1-0.4,0.1-0.8,0.2-1.2c15.1,2.5,30.1,5.1,45.2,7.6
	C632.2,946.4,632.2,946.8,632.1,947.3z"/>
<path id="XMLID_1318_" d="M487.3,659.5c-5.7-13.7-11.4-27.4-17.2-41.2c6.4,3.8,14.9,24.3,18.4,40.8
	C488.1,659.3,487.7,659.4,487.3,659.5z"/>
<path id="XMLID_1317_" d="M716.8,806c-12.1,4.2-24,1.1-35.9-1.6C693,800.9,704.8,804.8,716.8,806z"/>
<path id="XMLID_1316_" d="M564.8,777.8c11.7-1.3,22.7-2.6,34.2-3.8C592.4,780.8,573.7,783,564.8,777.8z"/>
<path id="XMLID_1315_" d="M568.1,794.6c10.8,0,21.6,0,32.7,0c-10.8,6-21.9,3.5-32.9,1.8C568,795.8,568.1,795.2,568.1,794.6z"/>
<path id="XMLID_1314_" d="M689,768.7c11.2,0.9,22.4,1.9,33.7,2.8c0,0.5-0.1,1.1-0.1,1.6c-11.5,2.4-22.8,1.6-33.8-2.7
	C688.8,769.9,688.9,769.3,689,768.7z"/>
<path id="XMLID_1313_" d="M419.9,1016.2c10.3,0,20.4,0.6,29.2,6.8C438.9,1022.6,428.6,1022.7,419.9,1016.2z"/>
<path id="XMLID_1312_" d="M517.9,940.7c15.3-2.9,30.3-5.7,45.7-1.8C548.3,939.5,533.1,940.1,517.9,940.7z"/>
<path id="XMLID_1311_" d="M734.5,728.2c-10.3,1.8-20.5,3.6-30.8,0.6c0-0.5,0-1.1-0.1-1.6c8.9-0.4,17.8-0.9,26.7-1.1
	C731.6,726,733.1,727.5,734.5,728.2C734.5,728.3,734.5,728.2,734.5,728.2z"/>
<path id="XMLID_1310_" d="M447.4,1010c-10.3,1.9-20,1.5-28.5-4.9c0.1-0.6,0.2-1.2,0.3-1.7c4.6,0.9,9.3,1.7,13.9,2.8
	C437.9,1007.2,442.6,1008.7,447.4,1010z"/>
<path id="XMLID_1309_" d="M553,918.4c-0.8,0.9-1.4,2.3-2.4,2.8c-9.1,3.8-18.4,7.4-27.6,11.1c-0.5,0.2-1.2,0-2.1-0.9
	c10.3-4.6,20.7-9.3,31-13.9C552.3,917.8,552.6,918.1,553,918.4z"/>
<path id="XMLID_1308_" d="M593.7,785.2c-10.4,5.6-23.6,5.5-28.4,0C574.6,785.2,583.7,785.2,593.7,785.2z"/>
<path id="XMLID_1307_" d="M430.1,938.8c-10.1,3.2-17.9-3.3-26.5-6.3C413.7,929.6,421.3,936.7,430.1,938.8z"/>
<path id="XMLID_1306_" d="M726.8,751.5c-8.7,3-17.4,2.4-26.1,0C709.5,747.3,718.2,749.4,726.8,751.5z"/>
<path id="XMLID_1305_" d="M546.7,800.2c-1.3,12.6-3.8,24.9-11.2,35.4c-0.6-0.2-1.1-0.4-1.7-0.6c4.3-11.6,8.7-23.1,13-34.7
	C546.8,800.3,546.7,800.2,546.7,800.2z"/>
<path id="XMLID_1304_" d="M515.2,658.4c-6.3-7.5-4.6-16.2-6.7-25C513.9,638.7,516.9,650.2,515.2,658.4z"/>
<path id="XMLID_1303_" d="M442.1,999.1c-8.6,0.3-17-0.1-25.5-6C427,990.9,434.3,996.1,442.1,999.1z"/>
<path id="XMLID_1302_" d="M399,851.8c-10,5.2-20.3,7.7-31.5,4.2C378,854.6,388.5,853.2,399,851.8z"/>
<path id="XMLID_1301_" d="M421.1,1027c7.7,0.5,15.8-0.6,22.3,4.8C435.7,1031.8,427.5,1033.6,421.1,1027z"/>
<path id="XMLID_1300_" d="M441.1,987.7c-8.5,0.8-17.3,2.3-23.6-5.1c0.2-0.6,0.3-1.2,0.5-1.8C425.7,983.1,433.4,985.4,441.1,987.7z"
	/>
<path id="XMLID_1299_" d="M684.8,909.4c-7.4,2.6-14.5,2.5-22.5-1.5C670.8,903.8,677.7,908.2,684.8,909.4z"/>
<path id="XMLID_1298_" d="M351.5,776.6c-9.1,2.2-19.7-2.5-21.9-10.1C337,769.9,344.5,773.3,351.5,776.6z"/>
<path id="XMLID_1297_" d="M465.6,804c6.1-10.2,12.2-20.4,18.6-31.1C482.4,786.3,473.5,794.9,465.6,804z"/>
<path id="XMLID_1296_" d="M345,808c7.9,1.6,15.7,3.3,24.9,5.2c-9.7,1.4-18.1,3.1-25.3-3.4C344.8,809.2,344.9,808.6,345,808z"/>
<path id="XMLID_1295_" d="M583.8,769.8c-7.2,3.6-14,4.6-21.9,1.9C567.3,768.3,576.8,767.6,583.8,769.8z"/>
<path id="XMLID_1294_" d="M408.1,951.8c6.1,1.9,12.1,3.9,19.2,6.2c-8.3,2.8-15.5,0.8-19.7-4.5C407.8,952.9,408,952.4,408.1,951.8z"
	/>
<path id="XMLID_1293_" d="M651.4,803c-7.2,1.5-14.3,2.7-20.9-1.6c0.1-0.6,0.1-1.3,0.2-1.9c6.9,0.7,13.8,1.5,20.8,2.2
	C651.5,802.1,651.5,802.5,651.4,803z"/>
<path id="XMLID_1292_" d="M336.9,788.3c6.6,1.6,13.2,3.3,19.8,4.9c-0.1,0.6-0.3,1.2-0.4,1.8c-7.2,1.1-13.9-0.2-19.9-4.7
	C336.6,789.6,336.8,789,336.9,788.3z"/>
<path id="XMLID_1291_" d="M339.2,797.8c7.7,2.2,14.6,4.2,21.7,6.2C351.7,806.8,343.4,804.7,339.2,797.8z"/>
<path id="XMLID_1290_" d="M695.6,884.9c-9.6,4.7-16,4.1-19.5-1.9C683.1,883.7,689.4,884.3,695.6,884.9z"/>
<path id="XMLID_1289_" d="M333.6,778.6c7.7,1.8,15,3.4,22.5,5.2C346.8,786.9,338.2,784.9,333.6,778.6z"/>
<path id="XMLID_1288_" d="M553,918.4c-0.3-0.3-0.7-0.6-1-0.9c1.2-1,2.2-2.2,3.5-3.1c5.7-4.2,11.4-8.4,17.8-13.2
	C567.2,908.7,562,915.7,553,918.4z"/>
<path id="XMLID_1287_" d="M407.5,897.2c-8.3,1.7-16.2,1.5-23.6-5.5C392.5,893.7,400,895.4,407.5,897.2z"/>
<path id="XMLID_1286_" d="M416.5,971.4c6,2,11.9,3.9,17.9,5.9c-0.2,0.6-0.3,1.1-0.5,1.7c-6.6,0.4-12.6-1.7-18.1-5.2
	C416,973,416.3,972.2,416.5,971.4z"/>
<path id="XMLID_1285_" d="M459.2,905.7c-9,4-18.1,8.5-29.2,6.2C440.1,909.8,449.7,907.7,459.2,905.7z"/>
<path id="XMLID_1284_" d="M669.4,894.3c6.9,0.6,12.6,1.1,19,1.6C680.9,900.5,674.1,900.2,669.4,894.3z"/>
<path id="XMLID_1283_" d="M428.3,966.2c-10.2,2.7-15.2,1.3-17.8-5.3C417,962.8,422.7,964.5,428.3,966.2z"/>
<path id="XMLID_1282_" d="M735.4,699.4c-7.8,3-15.6,3.4-23.4,0.7c0-0.6,0-1.2,0-1.8C719.8,698.7,727.6,699.1,735.4,699.4z"/>
<path id="XMLID_1281_" d="M700.9,825.2c6.2,0,12,0,18.7,0C713,829.7,705.1,829.5,700.9,825.2z"/>
<path id="XMLID_1280_" d="M459.2,649.6c-2.7-7.4-5.5-14.8-8.2-22.2c0.8-0.3,1.6-0.6,2.4-0.9c2.5,7.5,5.1,15,7.6,22.5
	C460.4,649.3,459.8,649.5,459.2,649.6z"/>
<path id="XMLID_1279_" d="M406,905.5c-6.5,0.7-13.4,2.4-17.5-4.4c0.2-0.5,0.4-1.1,0.5-1.6C394.7,901.5,400.4,903.5,406,905.5z"/>
<path id="XMLID_1278_" d="M658.7,948.9c-6.5,4.9-12.6,4.8-16.4,0C648.2,948.9,653.4,948.9,658.7,948.9z"/>
<path id="XMLID_1277_" d="M422.5,949.2c-6.4,0-12.7-0.4-18.5-6.5C412.1,942.3,417.1,946.4,422.5,949.2z"/>
<path id="XMLID_1276_" d="M510.9,774.9c-2.6-7.7,1.7-12.2,4.1-17.2C516.6,763.7,514.8,768.8,510.9,774.9z"/>
<path id="XMLID_1275_" d="M733.4,707.7c-6.5,1.8-12.8,5-19,0.8c0-0.6,0-1.2,0.1-1.8C720.8,707,727.1,707.3,733.4,707.7z"/>
<path id="XMLID_1274_" d="M530.3,864.2c-1.8,7.6-6.4,12.8-13.9,15.5C521,874.5,525.6,869.3,530.3,864.2z"/>
<path id="XMLID_1273_" d="M410.1,782.2c-6,0-11.9,0-17.9,0c5.9-2.8,11.9-3.4,18.1-1.8C410.3,781,410.2,781.6,410.1,782.2z"/>
<path id="XMLID_1272_" d="M547.2,908.7c6.3-7.6,12.5-15.1,18.8-22.7c0.4,0.3,0.7,0.6,1.1,0.9c-6.2,7.6-12.5,15.2-18.7,22.8
	C548,909.4,547.6,909.1,547.2,908.7z"/>
<path id="XMLID_1271_" d="M568.2,812.7c5.3-3.6,10-2.1,15.3-1.5C578.9,815.2,573.8,815.8,568.2,812.7z"/>
<path id="XMLID_1270_" d="M376.3,861.5c5.4,0.8,10.8,1.6,16.5,2.5c-5.7,3-9.5,2.7-16.6-1C376.3,862.5,376.3,862,376.3,861.5z"/>
<path id="XMLID_1269_" d="M708.6,857.3c-3.9,0-7.8,0-12.5,0C699.6,852.8,702,852.8,708.6,857.3z"/>
<path id="XMLID_1268_" d="M487.9,904.1c4.7-3,9.4-5.9,14-8.9c0.4,0.7,0.9,1.4,1.3,2c-4.6,2.9-9.3,5.9-13.9,8.8
	C488.8,905.4,488.3,904.7,487.9,904.1z"/>
<path id="XMLID_1267_" d="M505.7,662.1c-1.1-4.1-2.2-8.3-3.7-13.7C508.1,652.7,509.2,656.6,505.7,662.1z"/>
<path id="XMLID_1266_" d="M705.1,865.3c-4,0-7.9,0-13,0C696.3,861.4,697.8,861.5,705.1,865.3z"/>
<path id="XMLID_1265_" d="M686.8,873.9c5,0.3,9.1,0.5,13.6,0.7C695.7,878.5,690.9,878.4,686.8,873.9z"/>
<path id="XMLID_1264_" d="M649.5,810.9c-4.2,2.6-8.1,1.1-12-0.4c0-0.7,0.1-1.3,0.1-2c4,0.2,7.9,0.4,11.9,0.6
	C649.5,809.8,649.5,810.4,649.5,810.9z"/>
<path id="XMLID_1263_" d="M494.6,626.2c-1.5-5.5-2.9-11-4.4-16.6c0.8-0.2,1.5-0.4,2.3-0.6c1.2,5.6,2.4,11.2,3.6,16.7
	C495.5,625.9,495,626.1,494.6,626.2z"/>
<path id="XMLID_1262_" d="M416.5,768.1c-3.6,0.2-7.2,0.5-10.9,0.7c-0.1-0.7-0.1-1.4-0.2-2c3.3-2.3,7.2-0.8,10.8-0.8
	C416.3,766.7,416.4,767.4,416.5,768.1z"/>
<path id="XMLID_1261_" d="M701.8,845.6c3.5-2.1,6.7-1.1,9.7,2.1c-3.3,0-6.6,0-9.8,0C701.7,847,701.8,846.3,701.8,845.6z"/>
<path id="XMLID_1260_" d="M578.6,820.8c-5.3,4.5-8.6,4.5-11.5,0C570.9,820.8,574.3,820.8,578.6,820.8z"/>
<path id="XMLID_1259_" d="M366.7,849.3c4.8,0,9.5,0,14.3,0c0,0.4,0,0.9,0,1.3c-4.8,0-9.5,0-14.3,0
	C366.6,850.1,366.6,849.7,366.7,849.3z"/>
<path id="XMLID_1258_" d="M704.4,716.5c3.9,0.3,7.8,0.6,11.6,0.9c0,0.5,0,1,0,1.4c-3.9,0-7.8,0-11.7,0
	C704.3,718,704.4,717.2,704.4,716.5z"/>
<path id="XMLID_1257_" d="M529.9,962.1c4.9,0,9.8,0,14.6,0c0,0.4,0,0.7,0,1.1c-4.9,0-9.9,0-14.8,0
	C529.8,962.8,529.8,962.5,529.9,962.1z"/>
<path id="XMLID_1256_" d="M702.1,835.4c3.6,0.2,6.6,0.3,9.7,0.5C706.9,840.4,705.2,840.3,702.1,835.4z"/>
<path id="XMLID_1255_" d="M501.6,663.6c-1.6-2.7-3.3-5.4-4.9-8c6.1,0.1,4.9,4.4,6.2,7.3C502.5,663,502,663.3,501.6,663.6z"/>
<path id="XMLID_1254_" d="M395.5,874c-5.4-0.6-10.8-1.2-16.1-1.8c0.1-0.6,0.1-1.1,0.2-1.7c5.4,0.8,10.7,1.7,16.1,2.5
	C395.6,873.4,395.6,873.7,395.5,874z"/>
<path id="XMLID_1253_" d="M361.2,820.7c-3.6-0.3-7.2-0.5-10.9-0.8c0.1-0.8,0.2-1.6,0.3-2.4c3.6,0.6,7.2,1.1,10.8,1.7
	C361.3,819.7,361.2,820.2,361.2,820.7z"/>
<path id="XMLID_1252_" d="M485.7,753.2c-1,2.7-2,5.4-3,8.1c-0.6-0.2-1.2-0.4-1.8-0.5c0.8-2.8,1.6-5.5,2.4-8.3
	C484.1,752.7,484.9,753,485.7,753.2z"/>
<path id="XMLID_1251_" d="M577.6,343.7c10.3,2.5,20.5,5.1,30.9,7.4c4.8,1.1,9.7,1.5,14.6,2.2c0,0.5-0.1,0.9-0.1,1.4
	c-8.4-0.5-16.9-0.6-25.3-1.8c-6-0.8-11.9-3-17.7-4.8c-1.4-0.4-2.6-1.8-3.9-2.7C576.6,344.9,577.1,344.3,577.6,343.7z"/>
<path id="XMLID_1250_" d="M601.1,236.8c2.8,0.9,5.5,1.9,8.4,2.6c12.2,2.8,24.5,5.5,35.2,7.9c-11.9,2.9-32.5-0.3-40.8-7.1
	C602.9,239.1,602,237.9,601.1,236.8z"/>
<path id="XMLID_1249_" d="M408.8,492.2c10.8-12.5,24.7-20.7,39.7-26.9c0.4,0.6,0.7,1.2,1.1,1.7C436.1,475.3,422.4,483.7,408.8,492.2
	z"/>
<path id="XMLID_1248_" d="M582.4,476.5c-18.1-2.3-35.8-6-49.1-18.3C549.1,464.1,565.8,470.3,582.4,476.5z"/>
<path id="XMLID_1247_" d="M388.6,241c-14.1,2.9-28.2,5.8-42.4,8.7c12.9-8.5,27.5-9.2,42-10.2C388.4,240,388.5,240.5,388.6,241z"/>
<path id="XMLID_1246_" d="M365.2,358.4c8.7-5,29.4-8.1,46.1-7.1c-5,1-10,2-15,2.9c-5.1,0.8-10.2,1.5-15.3,2.2
	C375.7,357.1,370.5,357.7,365.2,358.4z"/>
<path id="XMLID_1245_" d="M596.8,369.4c-12,1.2-23.7-2.1-33.8-10.3c0.2-0.5,0.3-1.1,0.5-1.6C575,361.6,586.4,365.7,596.8,369.4z"/>
<path id="XMLID_1244_" d="M376.3,371.1c10.8-0.9,21.1-1.8,31.7-2.7C400.1,374.5,380.6,376.4,376.3,371.1z"/>
<path id="XMLID_1243_" d="M555.1,364.3c10.5-1.1,16.8,6.6,25.7,8.5C574.3,375.3,561.2,371.1,555.1,364.3z"/>
<path id="XMLID_1242_" d="M414.5,566.2c-7.5,6.1-14.4,11.6-21.8,17.6C393.2,575.8,402.4,568.6,414.5,566.2z"/>
<path id="XMLID_1241_" d="M385.3,531.8c3.9-9.4,12.4-12.9,21.7-15.2c-6.9,5.5-13.7,11-20.6,16.5C386,532.7,385.7,532.2,385.3,531.8z
	"/>
<path id="XMLID_1240_" d="M376.3,257.7c8.3-4.3,17.3-4.3,26.5-4C398.9,257.6,389.1,259.1,376.3,257.7z"/>
<path id="XMLID_1239_" d="M384.1,519.4c5.2-9,15.5-10.8,23-16.6c0.3,0.4,0.7,0.9,1,1.3c-7.5,5.7-15.1,11.4-22.6,17.2
	C385,520.7,384.6,520.1,384.1,519.4z"/>
<path id="XMLID_1238_" d="M385.1,396.2c-8.9,1.9-16.7,7.9-26.6,7C361.4,398.2,370.1,395.9,385.1,396.2z"/>
<path id="XMLID_1237_" d="M610.4,377.1c7.3-0.7,14.6-1.4,22.6-2.2C628.2,381.3,620.3,382.2,610.4,377.1z"/>
<path id="XMLID_1236_" d="M434.9,457.6c5.4-8,12.6-11.9,23.5-10.4C449.9,451,442.4,454.3,434.9,457.6z"/>
<path id="XMLID_1235_" d="M624,320.5c7.4-0.4,14.7-0.8,23-1.3c-4.5,5.6-13,6.4-22.9,3C624.1,321.6,624.1,321,624,320.5z"/>
<path id="XMLID_1234_" d="M601.7,259c-9.4,0.8-17.1-3-22.2-10.6C588.1,249.8,593.9,255.2,601.7,259z"/>
<path id="XMLID_1233_" d="M532.7,472.2c11.2,4.7,22.4,9.4,35,14.6C554,484.1,541.9,481.3,532.7,472.2z"/>
<path id="XMLID_1232_" d="M603.7,432.9c6.3-1.8,12.7-3.5,19.9-5.5c-3.6,6.8-11.5,9.3-19.5,7.1C604,434,603.9,433.5,603.7,432.9z"/>
<path id="XMLID_1231_" d="M461.2,453.1c-10.2,5.5-20.5,11.1-30.4,16.4C432.9,464.8,450.7,454.6,461.2,453.1z"/>
<path id="XMLID_1230_" d="M398.6,471.9c-6.9,3.9-13.9,7.9-20.8,11.8c-0.3-0.4-0.5-0.9-0.8-1.3c4.1-8.6,13.7-8.2,20.5-12.3
	C397.9,470.7,398.2,471.3,398.6,471.9z"/>
<path id="XMLID_1229_" d="M622.8,329.7c6.7-0.5,13.4-1,20.8-1.5c-3.6,6-12.4,6.9-20.8,3C622.8,330.7,622.8,330.2,622.8,329.7z"/>
<path id="XMLID_1228_" d="M616,252.5c-1.2,0.2-2.4,0.8-3.4,0.5c-7.1-2.2-13.2-6-17.7-12.6c6,3,12.1,6,18.1,9
	C614,250.4,615,251.5,616,252.5z"/>
<path id="XMLID_1227_" d="M362.1,411.6c4.2-4.4,8.8-5.5,23.2-4.5c-7.6,2.1-15.1,4.1-22.7,6.2C362.4,412.7,362.2,412.1,362.1,411.6z"
	/>
<path id="XMLID_1226_" d="M438.8,595.1c5.4-8,14.6-9.3,23.3-11.5c-7.5,4.3-15,8.5-22.4,12.8C439.3,596,439.1,595.6,438.8,595.1z"/>
<path id="XMLID_1225_" d="M403.3,333.3c7.9-0.7,14.7-1.3,21.5-1.9C419.5,337.3,409.3,338.1,403.3,333.3z"/>
<path id="XMLID_1224_" d="M383.3,265.5c7.7-3.9,15.2-3.7,23.3-3.4C401.6,266.5,390.9,268.1,383.3,265.5z"/>
<path id="XMLID_1223_" d="M373.7,467.9c6.9-3,13.8-6,20.7-9.1c0.2,0.5,0.4,0.9,0.6,1.4c-6,4.8-12.2,9.3-20.4,9.7
	C374.3,469.3,374,468.6,373.7,467.9z"/>
<path id="XMLID_1222_" d="M491.7,489.1c6.4,1.1,12.8,2.2,19.5,3.4c-5.6,4.4-15.6,3.3-19.9-1.8C491.4,490.2,491.5,489.7,491.7,489.1z
	"/>
<path id="XMLID_1221_" d="M366.6,251.2c10.7-2,21.3-4,32-6c0.1,0.4,0.2,0.8,0.2,1.3c-10.2,4.7-21.4,4.1-32.2,6.1
	C366.6,252.1,366.6,251.6,366.6,251.2z"/>
<path id="XMLID_1220_" d="M389.8,428c-6.3,4.3-12.9,7.8-20.9,7C374.8,429.6,382.4,429.1,389.8,428z"/>
<path id="XMLID_1219_" d="M410.1,579.8c-5.2,4.2-10.3,8.5-15.5,12.7C395.5,584.8,401.8,579.8,410.1,579.8z"/>
<path id="XMLID_1218_" d="M597.2,459.5c5.6-1.4,11.2-2.7,17.3-4.2c-2.7,6.3-10.2,8.7-17,6C597.3,460.6,597.2,460.1,597.2,459.5z"/>
<path id="XMLID_1217_" d="M528.6,443.7c5.3,3.1,10.6,6.2,16.1,9.5C537,456.4,528.4,451.1,528.6,443.7z"/>
<path id="XMLID_1216_" d="M582.9,469.9c-9.1,1.5-15-3.1-21.4-6.1C568.9,463.3,575.9,464.4,582.9,469.9z"/>
<path id="XMLID_1215_" d="M624.5,420.9c-5.5,6.1-12.7,4.3-19.9,2.3c6.5-1.3,13-2.6,19.6-3.9C624.3,419.8,624.4,420.3,624.5,420.9z"
	/>
<path id="XMLID_1214_" d="M612.7,384.9c6.1-1,12.2-2,18.4-3C630.5,387.3,621.1,389.5,612.7,384.9z"/>
<path id="XMLID_1213_" d="M495.1,499.8c6.5-3.8,12.5-1.1,19.9,1.1C507.2,504.3,501.1,501.8,495.1,499.8z"/>
<path id="XMLID_1212_" d="M617.1,447c-5.3,6.9-13.6,8.2-19.1,3.5C604.4,449.3,610.1,448.2,617.1,447z"/>
<path id="XMLID_1211_" d="M372.2,459.9c4.5-6.9,12.5-6.5,19.1-9.1c0.2,0.5,0.5,0.9,0.7,1.4c-6.3,3.2-12.5,6.3-18.8,9.5
	C372.8,461.1,372.5,460.5,372.2,459.9z"/>
<path id="XMLID_1210_" d="M601.6,442.6c5.9-1.5,11.9-3,18.6-4.6C616.8,444.3,609.7,446.1,601.6,442.6z"/>
<path id="XMLID_1209_" d="M436.9,444.8c5.2-5.9,11.2-9.9,19.1-9c0.2,0.5,0.4,1,0.6,1.5C450,439.7,443.5,442.3,436.9,444.8z"/>
<path id="XMLID_1208_" d="M662.3,242.1c-7,4.5-13.2,5.6-20.1,0C649,242.1,655.2,242.1,662.3,242.1z"/>
<path id="XMLID_1207_" d="M629,403.4c-3.9,6.4-10.1,7.7-17.4,3.3C617.1,405.7,622.7,404.6,629,403.4z"/>
<path id="XMLID_1206_" d="M392,167.2c-3.8,6.5-11.5,9.2-19.3,6.4C379.7,171.3,385.5,169.4,392,167.2z"/>
<path id="XMLID_1205_" d="M561.7,388c-7.2,2.5-13.4-0.4-17-8.7C551,382.5,556.2,385.2,561.7,388z"/>
<path id="XMLID_1204_" d="M385.2,417.2c-6.5,2.1-13,4.2-19.6,6.2c-0.2-0.6-0.4-1.2-0.6-1.9c5.5-5.3,12.9-4.8,19.7-5.8
	C384.9,416.2,385.1,416.7,385.2,417.2z"/>
<path id="XMLID_1203_" d="M387.6,541.8c2.4-6.8,8.4-9.1,14.3-11.7c0.3,0.3,0.6,0.6,0.8,0.9c-4.5,4.1-9.1,8.2-13.6,12.3
	C388.6,542.8,388.1,542.3,387.6,541.8z"/>
<path id="XMLID_1202_" d="M391.6,177.6c-3.5,5.4-8.7,6.8-14.7,6.7c-0.2-0.5-0.5-1-0.7-1.5c4.9-2.4,9.7-4.7,14.6-7.1
	C391,176.3,391.3,177,391.6,177.6z"/>
<path id="XMLID_1201_" d="M629.8,389c-2.8,5.8-8.5,6.8-15.5,4.3c-0.1-0.5-0.2-0.9-0.3-1.4C619.3,390.9,624.5,390,629.8,389z"/>
<path id="XMLID_1200_" d="M395.5,597.8c4.7-5.9,9.3-9,16.5-9.2C407.7,593.8,403.1,597,395.5,597.8z"/>
<path id="XMLID_1199_" d="M636,295.2c5.4-0.7,10.4-1.5,15.5-2.2c0.3,0.4,0.6,0.7,0.9,1.1c-1.7,1.2-3.2,2.9-5.1,3.7
	C642.9,299.4,639.1,298.4,636,295.2z"/>
<path id="XMLID_1198_" d="M625.9,412.9c-3.7,5.5-9.4,6.2-17.5,1.5C614.1,413.9,619.8,413.4,625.9,412.9z"/>
<path id="XMLID_1197_" d="M556.7,398.8c-8.1,2.2-14.4-0.9-15.5-8.1C546.4,393.4,551.2,396,556.7,398.8z"/>
<path id="XMLID_1196_" d="M625.7,339.4c5-0.3,10.1-0.7,15.6-1.1c-3.5,5.5-8.5,6.2-15.5,2.7C625.8,340.5,625.8,340,625.7,339.4z"/>
<path id="XMLID_1195_" d="M632.6,312c6-0.9,11.4-1.8,17.3-2.7C646.6,315.4,638.1,316.6,632.6,312z"/>
<path id="XMLID_1194_" d="M562.3,381.5c-4.6-2.1-9.3-4.3-14.9-6.8c5.5-2.9,8.8-1.5,15.7,5.1C562.8,380.3,562.6,380.9,562.3,381.5z"
	/>
<path id="XMLID_1193_" d="M393.1,607.2c2.7-6.3,8.9-6,14.2-7.6c0.3,0.5,0.5,1,0.8,1.5c-4.7,2.6-9.3,5.2-14,7.7
	C393.8,608.2,393.4,607.7,393.1,607.2z"/>
<path id="XMLID_1192_" d="M535.4,416.1c4.3,2.4,8.6,4.7,13.2,7.2c-6.2,2.6-11.2,0.4-14-5.8C534.8,417,535.1,416.5,535.4,416.1z"/>
<path id="XMLID_1191_" d="M377.5,231.4c6.6-1.8,13.3-3.6,20.3-5.6C393.7,230.9,387.1,232.9,377.5,231.4z"/>
<path id="XMLID_1190_" d="M571.9,269.8c4.1,1.9,8.2,3.9,12.2,5.8c-6.9,2.5-11.3,0.5-13.1-4.5C571.4,270.7,571.7,270.3,571.9,269.8z"
	/>
<path id="XMLID_1189_" d="M516,507.3c-5.4,3.2-10.4,4.3-15.3,0C505.8,507.3,510.9,507.3,516,507.3z"/>
<path id="XMLID_1188_" d="M420.1,341.1c-6.7,4.1-14.2,2-21.3,2.8c-0.1-0.4-0.1-0.8-0.2-1.3c7.1-1,14.2-2.1,21.3-3.1
	C420,340,420,340.5,420.1,341.1z"/>
<path id="XMLID_1187_" d="M535.2,407c6,2.8,10.8,5,16.3,7.5C543.6,416.3,538.7,414.2,535.2,407z"/>
<path id="XMLID_1186_" d="M552.4,407.2c-6.1,2.7-9.7-1.8-13.8-4.6C544.7,399.3,547.7,406.2,552.4,407.2z"/>
<path id="XMLID_1185_" d="M614.1,399.9c4.9-1,9.6-2,14.3-3C627.5,402.6,620.4,404.1,614.1,399.9z"/>
<path id="XMLID_1184_" d="M634.5,302.8c5.5-0.6,10.1-1,14.8-1.5C647.4,306.9,641.7,307.5,634.5,302.8z"/>
<path id="XMLID_1183_" d="M532.4,423.9c4.1,2.6,8.2,5.2,12.4,7.7c-6.3,1.7-10.3-0.7-13.3-6.5C531.8,424.8,532.1,424.4,532.4,423.9z"
	/>
<path id="XMLID_1182_" d="M410,324c4.6-0.6,9.2-1.2,14.6-2c-2.3,4.5-5.1,5.1-14.3,3.9C410.2,325.3,410.1,324.6,410,324z"/>
<path id="XMLID_1181_" d="M577.6,343.7c-0.5,0.6-1,1.2-1.6,1.8c-5.1-2.7-10.2-5.3-15.4-8c0.3-0.6,0.6-1.3,1-1.9
	C567,338.3,572.3,341,577.6,343.7z"/>
<path id="XMLID_1180_" d="M516.2,518.4c-4-0.3-8.1-0.7-13-1.1C507.6,512.4,512.2,512.7,516.2,518.4z"/>
<path id="XMLID_1179_" d="M384.5,442.9c-4.8,2.4-9.7,4.7-14.5,7.1c-0.2-0.5-0.5-1-0.7-1.4c3.6-4.8,9.2-5.7,14.5-7.1
	C384,441.9,384.2,442.4,384.5,442.9z"/>
<path id="XMLID_1178_" d="M542.1,442.1c-7.6,0.6-10.6-1.6-11.4-8.9C534.2,435.9,537.7,438.6,542.1,442.1z"/>
<path id="XMLID_1177_" d="M636.2,358.7c-3.1,3.4-7.4,3.8-13.4-0.1c4.4-0.5,8.8-0.9,13.1-1.4C636,357.7,636.1,358.2,636.2,358.7z"/>
<path id="XMLID_1176_" d="M323.9,170.7c4.7-1.2,9.4-2.5,14.1-3.7c0.1,0.5,0.3,1,0.4,1.5c-4.5,2-8.2,6.4-14.1,3.8
	C324.2,171.7,324,171.2,323.9,170.7z"/>
<path id="XMLID_1175_" d="M587.1,266.5c-5,1-8.7-0.7-11.9-5.5C581,259.7,584,263.3,587.1,266.5z"/>
<path id="XMLID_1174_" d="M356.4,391.8c5.2-0.9,10.4-1.9,15.6-2.8c0.1,0.7,0.3,1.3,0.4,2c-5.2,1.1-10.3,2.2-15.5,3.4
	C356.8,393.5,356.6,392.7,356.4,391.8z"/>
<path id="XMLID_1173_" d="M516.4,564.9c-4.2,1.7-8.3,3.4-13.2,5.4c1.7-5.8,4.1-6.8,12.6-6.8C516,564,516.2,564.4,516.4,564.9z"/>
<path id="XMLID_1172_" d="M576.2,299.7c-5-0.2-8.7-2.3-10.9-6.8c0.4-0.6,0.7-1.1,1.1-1.7c3.5,2.3,7,4.7,10.5,7
	C576.7,298.6,576.5,299.2,576.2,299.7z"/>
<path id="XMLID_1171_" d="M557.3,342.8c5.8-0.8,8.1,4.2,11.7,6.9c-0.3,0.5-0.5,0.9-0.8,1.4c-3.9-2.1-7.9-4.2-11.8-6.3
	C556.7,344.1,557,343.5,557.3,342.8z"/>
<path id="XMLID_1170_" d="M452.2,579.3c-3.6,2.5-7.2,5-11.3,7.8C440.9,581.5,443.4,579.7,452.2,579.3z"/>
<path id="XMLID_1169_" d="M616,252.5c-1-1-2-2-3-3.1c4.8,1.1,9.5,2.2,14.3,3.3c-0.1,0.4-0.1,0.8-0.2,1.2
	C623.3,254.4,619.4,255.9,616,252.5z"/>
<path id="XMLID_1168_" d="M395.8,279.2c4.2-0.8,8.3-1.6,12.5-2.4c0.2,0.9,0.4,1.7,0.6,2.6c-4.1,0.9-8.3,1.9-12.4,2.8
	C396.3,281.3,396,280.2,395.8,279.2z"/>
<path id="XMLID_1167_" d="M411.6,358.3c5.8-1.6,11.6-3.2,17.9-4.9C426.2,357.5,420.3,359.3,411.6,358.3z"/>
<path id="XMLID_1166_" d="M643.5,277.5c3.8-0.4,7.6-0.8,12-1.2c-3.2,5.2-6.5,5.8-11.8,2.8C643.6,278.6,643.5,278.1,643.5,277.5z"/>
<path id="XMLID_1165_" d="M329.9,191.3c4.1-0.9,8.1-1.8,13.2-3c-3,4.4-5.8,5.2-12.8,4.8C330.2,192.5,330,191.9,329.9,191.3z"/>
<path id="XMLID_1164_" d="M570.7,283c3.7,1.6,7.4,3.2,11.5,5c-5.5,2.7-9.1,1.4-12.1-3.6C570.3,283.9,570.5,283.5,570.7,283z"/>
<path id="XMLID_1163_" d="M440.1,378.5c-3.9,0.9-7.9,1.7-11.8,2.6c-0.2-0.7-0.4-1.4-0.6-2.1c3.9-1.1,7.7-2.3,11.6-3.4
	C439.5,376.4,439.8,377.5,440.1,378.5z"/>
<path id="XMLID_1162_" d="M601.1,236.8c0.9,1.1,1.9,2.3,2.8,3.4c-4.2,0-10.1-4.3-14.1-10.7C594,232.2,597.6,234.5,601.1,236.8z"/>
<path id="XMLID_1161_" d="M394,185.7c-1.8,4.9-6.3,4.8-10.5,5.2c-0.2-0.4-0.4-0.8-0.6-1.2c3.4-1.8,6.9-3.7,10.3-5.5
	C393.4,184.6,393.7,185.1,394,185.7z"/>
<path id="XMLID_1160_" d="M392.3,487c-3.9,3.2-7.8,6.4-11.8,9.6c-0.5-0.6-0.9-1.2-1.4-1.8c4-3.1,8-6.1,12-9.2
	C391.5,486.1,391.9,486.5,392.3,487z"/>
<path id="XMLID_1159_" d="M453.9,427.6c-3.8,1-7.5,1.9-11.7,3C446.7,424.2,451,423.1,453.9,427.6z"/>
<path id="XMLID_1158_" d="M406.2,299.6c3.5-3.6,7.5-4.7,11.9-2.7c0.1,0.5,0.1,1,0.2,1.4C414.3,298.8,410.3,299.2,406.2,299.6z"/>
<path id="XMLID_1157_" d="M357.5,333.5c-2.8,0.6-5.6,1.4-8.4,1.8c-0.5,0.1-1.8-1.1-1.8-1.7c0-0.6,1-1.8,1.6-1.8
	c2.7-0.2,5.4-0.1,8.1-0.1C357.3,332.3,357.4,332.9,357.5,333.5z"/>
<path id="XMLID_1156_" d="M336.2,132.1c-3.2,1.2-6.3,2.3-9.8,3.6C327,130.5,329,129.6,336.2,132.1z"/>
<path id="XMLID_1155_" d="M580.9,460.1c2.9,1.2,5.8,2.5,8.8,3.7c-4.1,2.1-7.4,2.3-9.4-1.8C580.4,461.3,580.6,460.7,580.9,460.1z"/>
<path id="XMLID_1154_" d="M404.5,270.9c-3.3,0.7-6.6,1.4-9.8,2.1c-0.2-0.9-0.3-1.8-0.5-2.8c3.2-0.5,6.5-1.1,9.7-1.6
	C404.1,269.4,404.3,270.1,404.5,270.9z"/>
<path id="XMLID_1153_" d="M356.3,323.8c-3.2,0.5-6.4,1-9.6,1.6c-0.1-0.9-0.3-1.7-0.4-2.6c3.2-0.4,6.3-0.8,9.5-1.3
	C356,322.3,356.2,323,356.3,323.8z"/>
<path id="XMLID_1152_" d="M326.6,181c4.5-0.6,8.2-1.1,12.7-1.7C334,184.1,331.1,184.5,326.6,181z"/>
<path id="XMLID_1151_" d="M364,348.1c-7.2,4.6-8.3,4.6-9.7,0C357.5,348.1,360.7,348.1,364,348.1z"/>
<path id="XMLID_1150_" d="M508.2,521.7c2.8,0.4,5.6,0.9,8.8,1.4c-2.7,4.3-4.2,4.2-9.1,0.1C508,522.7,508.1,522.2,508.2,521.7z"/>
<path id="XMLID_1149_" d="M650,288.6c-3.1-0.3-6.3-0.6-9.4-0.8c0-0.6,0.1-1.1,0.1-1.7c3.2-0.2,6.5-2.2,9.6,0.6
	C650.2,287.3,650.1,288,650,288.6z"/>
<path id="XMLID_1148_" d="M537.4,557.2c-2.8,1.3-5.5,2.6-8.3,3.9c-0.2-0.5-0.5-1-0.7-1.6c1.6-3.8,4.7-4.5,8.6-3.7
	C537.1,556.2,537.3,556.7,537.4,557.2z"/>
<path id="XMLID_1147_" d="M450.9,417c-3.6,0.5-6.6,1-9.9,1.5C444,413.6,447.5,412.9,450.9,417z"/>
<path id="XMLID_1146_" d="M634.6,364.6c-2.7,3.3-6.2,3.2-11.4,1c4.5-1.1,7.8-1.8,11-2.6C634.4,363.6,634.5,364.1,634.6,364.6z"/>
<path id="XMLID_1145_" d="M412.4,287.4c-2.8,3.7-5.7,5-10.2,0.5C406.5,287.6,409.4,287.5,412.4,287.4z"/>
<path id="XMLID_1144_" d="M324.9,161.5c3-0.8,6-1.6,8.9-2.4c0.2,0.7,0.4,1.4,0.7,2.1c-2.9,0.9-5.9,1.9-8.8,2.8
	C325.4,163.1,325.2,162.3,324.9,161.5z"/>
<path id="XMLID_1143_" d="M398,194.8c-2.9,0.8-5.8,1.5-8.8,2.3c-0.2-0.7-0.4-1.3-0.7-2c2.8-1.1,5.7-2.1,8.5-3.2
	C397.4,193,397.7,193.9,398,194.8z"/>
<path id="XMLID_1142_" d="M409,524.7c2.6-1.2,5.2-2.5,7.9-3.7c0.3,0.6,0.7,1.3,1,1.9c-2.5,1.4-5.1,2.8-7.6,4.2
	C409.8,526.2,409.4,525.4,409,524.7z"/>
<path id="XMLID_1141_" d="M388.7,614.6c2.7-1.2,5.3-2.5,8-3.7c0.3,0.6,0.7,1.2,1,1.9c-2.5,1.5-5,3-7.5,4.5
	C389.7,616.4,389.2,615.5,388.7,614.6z"/>
<path id="XMLID_1140_" d="M344,303.9c3.3-0.2,6.6-0.4,9.9-0.7c0.1,0.6,0.1,1.2,0.2,1.8c-3.3,0.5-6.5,0.9-9.8,1.4
	C344.2,305.6,344.1,304.7,344,303.9z"/>
<path id="XMLID_1139_" d="M448.3,565.2c-2,1.6-4.1,3.2-6.8,5.4C441.9,565.2,442.1,565,448.3,565.2z"/>
<path id="XMLID_1138_" d="M357.4,383.2c3.4-0.7,6.8-1.4,10.1-2c0.1,0.6,0.2,1.2,0.4,1.8c-3.4,0.6-6.8,1.3-10.2,1.9
	C357.6,384.3,357.5,383.7,357.4,383.2z"/>
<path id="XMLID_1137_" d="M570,1176.9c47.6-8.4,95.9-14.4,139.9-36.5c0.3,0.5,0.5,1,0.8,1.5c-4.4,2.8-8.5,6.2-13.2,8.3
	c-24.4,11-50,18-76.4,22c-16.9,2.6-34,4-51,5.9C570.2,1177.8,570.1,1177.4,570,1176.9z"/>
<path id="XMLID_1136_" d="M417.5,1154.5c20.4,8.9,41.9,13,63.5,16.2c21.5,3.1,43.2,4.4,64.9,7.5c-8.4,0-16.8,0.2-25.1,0
	c-23.1-0.7-46-3.4-68.4-9c-10.5-2.6-20.4-7.6-30.6-11.7C420.2,1156.7,418.9,1155.4,417.5,1154.5z"/>
<path id="XMLID_1135_" d="M401.1,1055.5c34.9,10.7,70.5,14.3,106.5,19.3C482.3,1078.4,406.9,1065,401.1,1055.5z"/>
<path id="XMLID_1134_" d="M409.3,1088.5c29.1,14.1,59.9,18.2,91.2,22.6C483.4,1117,413,1099.9,409.3,1088.5z"/>
<path id="XMLID_1133_" d="M486.1,1164.2c-13.6,4.6-72.7-12-76.6-21.4c12.5,4.2,25,9,37.9,12.6C460.3,1159,473.5,1161.4,486.1,1164.2
	z"/>
<path id="XMLID_1132_" d="M711.3,1114.8c-18.5,17.1-41.3,23.5-65.6,26.2C667.6,1132.4,691.2,1127.8,711.3,1114.8z"/>
<path id="XMLID_1131_" d="M480.8,1120.9c-16.1,2.2-65.3-11-67.5-17.7C435.7,1109,458.4,1115,480.8,1120.9z"/>
<path id="XMLID_1130_" d="M632,1157.8c21.7-8.1,43.3-16.2,65.1-24.2c0.5-0.2,1.3,0.7,3.2,1.8C677.5,1145.2,656.1,1155.3,632,1157.8z
	"/>
<path id="XMLID_1129_" d="M490.6,1142.4c-10.3,4.1-59.3-6.6-64-13.9C447.8,1133.1,469.6,1137.9,490.6,1142.4z"/>
<path id="XMLID_1128_" d="M406.2,1079.2c22.3,5.4,44.6,10.9,66.5,16.2C449,1097.4,427.4,1089.4,406.2,1079.2z"/>
<path id="XMLID_1127_" d="M461.4,1080.2c-16.4,2.4-45.1-4.3-58.3-13.2c2.2-0.4,3.9-1.4,4.8-0.8c15.2,8.2,32.4,9.2,48.8,12.9
	C458.3,1079.4,459.8,1079.8,461.4,1080.2z"/>
<path id="XMLID_1126_" d="M655.5,1124.9c18.3-8.8,38.8-12.3,56-23.7C695.6,1115.6,676.4,1122.3,655.5,1124.9z"/>
<path id="XMLID_1125_" d="M583.7,1069.6c-6.2,6.5-43.5,7.3-53.9,1.8C548,1070.8,565.3,1070.3,583.7,1069.6z"/>
<path id="XMLID_1124_" d="M464.3,1151.3c-18.7-1.7-36.9-5.1-52.9-15.9c17.8,4.7,35.6,9.4,53.4,14.2
	C464.6,1150.2,464.5,1150.7,464.3,1151.3z"/>
<path id="XMLID_1123_" d="M688.9,1054.4c-3.2,1.5-6.2,3.7-9.6,4.4c-13.9,2.8-28,5.2-41.9,7.7c-0.1-0.6-0.2-1.1-0.3-1.7
	c3.5-0.8,6.9-1.6,10.4-2.5c12.1-3,24.1-6,36.2-8.8c1.3-0.3,2.8,0,4.2,0C688.3,1053.8,688.6,1054.1,688.9,1054.4z"/>
<path id="XMLID_1122_" d="M657.3,1083c8.7-3,17.5-5.8,26.2-9c5.7-2.1,11.2-4.9,16.9-7.2c1.3-0.5,2.8-0.6,4.2-0.8
	c-1,1.2-1.6,2.9-2.9,3.6C692.2,1075,676.7,1083,657.3,1083z"/>
<path id="XMLID_1121_" d="M706.1,1094.4c-10.9,7.8-23,12.1-36.4,12.2c-0.1-0.4-0.3-0.8-0.4-1.2c12.1-4.1,24.1-8.3,36.2-12.4
	C705.7,1093.5,705.9,1094,706.1,1094.4z"/>
<path id="XMLID_1120_" d="M422.9,1118.2c11.8,2,23.5,4,33.8,10.7C444.8,1127.3,432.8,1126,422.9,1118.2z"/>
<path id="XMLID_1119_" d="M683.4,1089.7c-10,6-20.8,9.4-32.6,9.8c-0.1-0.4-0.3-0.8-0.4-1.2c10.8-3.5,21.6-6.9,32.3-10.4
	C683,1088.5,683.2,1089.1,683.4,1089.7z"/>
<path id="XMLID_1118_" d="M476.2,1082.2c8.6,0.7,17.2,1.4,25.7,2.1C496,1088.9,483.1,1087.9,476.2,1082.2z"/>
<path id="XMLID_1117_" d="M510.9,1098.3c-8.3,4.2-16.4,1.1-24.4-1.2C494.7,1094.2,502.8,1096.6,510.9,1098.3z"/>
<path id="XMLID_1116_" d="M687.2,1064.6c-7.5,6-16.6,4.8-25.3,5.7c-0.1-0.5-0.2-0.9-0.3-1.4c8.4-2.1,16.8-4.2,25.2-6.3
	C686.9,1063.3,687,1064,687.2,1064.6z"/>
<path id="XMLID_1115_" d="M616.2,1069.8c-4.6,0.7-9.2,1.3-14.3,2.1c2.4-4.8,5-5.4,14-4C616,1068.6,616.1,1069.2,616.2,1069.8z"/>
<path id="XMLID_1114_" d="M503.1,1166.8c4.4-1.3,8.7-2.4,12.7,1.8C510.9,1171.6,507,1168.9,503.1,1166.8z"/>
<path id="XMLID_1113_" d="M703.1,1131.9c3.8-2.4,7.6-4.8,11.4-7.2c-1,6.7-6,7.3-10.4,8.7C703.8,1132.9,703.4,1132.4,703.1,1131.9z"
	/>
<path id="XMLID_1112_" d="M696.9,1058.7c3-1.5,6.1-3,9.1-4.6c0.3,0.6,0.6,1.1,0.9,1.7c-1.7,4-5.5,4.3-9.2,4.5
	C697.5,1059.7,697.2,1059.2,696.9,1058.7z"/>
<path id="XMLID_1111_" d="M694,1084.2c3.3-1.5,6.7-3,10.7-4.8c-1.2,5.1-1.6,5.3-10.1,6.2C694.4,1085.1,694.2,1084.7,694,1084.2z"/>
<path id="XMLID_1110_" d="M688.9,1054.4c-0.3-0.3-0.7-0.6-1-0.9c3.9-1.8,7.8-3.6,11.7-5.4c0.3,0.7,0.5,1.4,0.8,2.1
	C696.7,1051.6,692.8,1053,688.9,1054.4z"/>
<path id="XMLID_1109_" d="M645.8,736.6c-7.6,0.9-15.1,0.9-21.9-3.3C631.6,732.2,639.2,731.2,645.8,736.6z"/>
<path id="XMLID_1108_" d="M734.7,613.3c-3.6-5.5-7.3-11-11.3-17.1C731.3,597.6,736.1,604.3,734.7,613.3z"/>
<path id="XMLID_1107_" d="M672.1,642.3c-8.1,1.8-15.1,3.8-22.5-0.5C654.8,638.9,659.3,639,672.1,642.3z"/>
<path id="XMLID_1106_" d="M676.9,626.4c-5,0-10.1,0.2-15.1-0.1c-1.2-0.1-2.3-1.8-3.5-2.7c1.2-0.6,2.4-1.7,3.5-1.6
	c5.1,0.5,10.3,1.3,15.4,2.1C677.1,624.8,677,625.6,676.9,626.4z"/>
<path id="XMLID_1105_" d="M713.6,624.5c7.2,3.2,12.9,6,13.6,14.8C720.9,635.9,717,631.3,713.6,624.5z"/>
<path id="XMLID_1104_" d="M719,616.1c6.9,1.5,10.8,6.1,13.2,13.6C725.1,626.9,722.3,621.2,719,616.1z"/>
<path id="XMLID_1103_" d="M664.2,648.9c-7.2,4.5-14,4.5-18.1,0C652.5,648.9,658.3,648.9,664.2,648.9z"/>
<path id="XMLID_1102_" d="M616,715.9c4.6-4.2,10-3.4,15.5-2.3c0.1,0.5,0.2,1,0.3,1.5c-5.1,1-10.2,2-15.3,3
	C616.3,717.4,616.1,716.6,616,715.9z"/>
<path id="XMLID_1101_" d="M670.7,634c-5.6,1.3-11.3,2.5-16.5-1c0-0.5,0.1-1.1,0.1-1.6c5.5,0.4,11,0.7,16.5,1.1
	C670.8,633,670.8,633.5,670.7,634z"/>
<path id="XMLID_1100_" d="M641.6,720c8-3.4,12.6,0.8,17.4,4.3c-0.2,0.5-0.3,1-0.5,1.6C653.2,724,648,722.2,641.6,720z"/>
<path id="XMLID_1099_" d="M691.8,698.2c-3.6-2.6-7.2-5.2-10.8-7.9c0.4-0.5,0.7-1,1.1-1.5c4.5,1.4,9.4,2.2,11.1,7.7
	C692.7,697.1,692.2,697.6,691.8,698.2z"/>
<path id="XMLID_1098_" d="M657.1,659.7c-3.4,0.2-6.7,0.5-10.1,0.6c-0.6,0-1.5-1.1-1.8-1.8c-0.1-0.4,0.7-1.6,1.3-1.7
	C650.3,655.9,654,655.7,657.1,659.7z"/>
<path id="XMLID_1097_" d="M636.2,698.5c-5.6,3.9-10.6,4.1-14.9,0C626.7,698.5,631,698.5,636.2,698.5z"/>
<path id="XMLID_1096_" d="M619.7,706.8c3.9-3.1,8.3-2.5,12.8-1c0.1,0.6,0.1,1.1,0.2,1.7c-4.2,0.5-8.4,0.9-12.6,1.4
	C620,708.2,619.8,707.5,619.7,706.8z"/>
<path id="XMLID_1095_" d="M651.4,669.2c-3.6-0.2-7.2-0.4-10.8-0.6c0-0.7,0.1-1.3,0.1-2c3.6,0,7.3,0,10.9,0
	C651.5,667.5,651.4,668.3,651.4,669.2z"/>
<path id="XMLID_1094_" d="M688.1,680.8c4.9,0.8,8.4,3.3,8.9,9.5c-3.2-2.8-6.4-5.6-9.6-8.4C687.6,681.5,687.9,681.1,688.1,680.8z"/>
<path id="XMLID_1093_" d="M625.4,722.3c-3.5,0.8-7.1,1.6-10.6,2.5c-0.2-0.8-0.4-1.6-0.5-2.4c3.5-0.7,7.1-1.4,10.6-2.2
	C625.1,720.9,625.2,721.6,625.4,722.3z"/>
<path id="XMLID_1092_" d="M640.2,685.6c-2.4,0.3-4.9,0.7-7.3,0.7c-0.8,0-1.6-1.3-2.4-2c0.8-0.7,1.7-2,2.4-1.9c2.5,0.3,5,1.1,7.4,1.6
	C640.3,684.5,640.2,685,640.2,685.6z"/>
<path id="XMLID_1091_" d="M626,690.3c3.4,0.3,6.3,0.6,9.7,0.9C631.6,695.6,628.3,695.4,626,690.3z"/>
<path id="XMLID_1090_" d="M635.9,675.4c3.1,0.1,6.1,0.3,9.2,0.4c0,0.6,0,1.1,0,1.7c-3.1,0-6.1,0-9.2,0
	C635.8,676.7,635.8,676,635.9,675.4z"/>
<path id="XMLID_1089_" d="M666.9,747.6c-1-2.3-2-4.5-3-6.8c0.7-0.3,1.5-0.6,2.2-1c1,2.3,2,4.5,3,6.8
	C668.4,747,667.7,747.3,666.9,747.6z"/>
<path id="XMLID_1088_" d="M689.4,511.1c-5.5-3-10.9-6-16.7-9.1c5.9-2.4,13.7,1.1,17.5,7.6C689.9,510.1,689.7,510.6,689.4,511.1z"/>
<path id="XMLID_1087_" d="M662.1,554.7c5.8-3.8,13.1-1.5,15.8,5.2C672.4,558.1,667.5,556.5,662.1,554.7z"/>
<path id="XMLID_1086_" d="M588.2,552.2c5.4-3.1,11.2-1.6,16.9-1.3c0.1,0.6,0.1,1.2,0.2,1.8c-5.6,0.6-11.3,1.1-16.9,1.7
	C588.3,553.7,588.2,553,588.2,552.2z"/>
<path id="XMLID_1085_" d="M675.8,567.1c-6.3-0.7-12-2.6-17-8.1c8.1-0.6,12.1,4.5,16.9,8.2C675.7,567.1,675.8,567.1,675.8,567.1z"/>
<path id="XMLID_1084_" d="M668.3,482.9c6-4.1,10.7-2.4,13.1,4.4C677,485.8,673,484.5,668.3,482.9z"/>
<path id="XMLID_1083_" d="M685.2,498.7c-4.7-1.9-8.2-3.3-12.5-5.1C678.4,490.6,682.4,492.2,685.2,498.7z"/>
<path id="XMLID_1082_" d="M590.4,543.8c3.7,0,7.5,0,11.2,0c0,0.5,0.1,1.1,0.1,1.6c-3.8,0.3-7.6,0.6-11.3,0.8
	C590.4,545.4,590.4,544.6,590.4,543.8z"/>
<path id="XMLID_1081_" d="M563.9,582.4c2.1,9.1,4.2,18,6.2,26.3C563.9,607.6,559.5,592.4,563.9,582.4z"/>
<path id="XMLID_1080_" d="M591.7,610.1c-5.4,0.8-6.6-1.1-6.8-9.2c0.4-0.2,0.8-0.5,1.3-0.7C588,603.5,589.8,606.7,591.7,610.1z"/>
<path id="XMLID_1079_" d="M570.7,699.3c2.7,0.3,5.4,0.7,8.1,1c-0.1,0.8-0.1,1.5-0.2,2.3c-2.8,2.7-5.3-1-8-1.4
	C570.7,700.5,570.7,699.9,570.7,699.3z"/>
</svg>
